<svg width="23" height="24" viewBox="0 0 23 24" fill="none" xmlns="http://www.w3.org/2000/svg">
<g clip-path="url(#clip0_3_13)">
<path d="M11.5 2.25C9.65198 2.25 7.84547 2.82183 6.30889 3.89317C4.77232 4.96451 3.57471 6.48726 2.8675 8.26884C2.1603 10.0504 1.97526 12.0108 2.33579 13.9021C2.69632 15.7934 3.58623 17.5307 4.89298 18.8943C6.19972 20.2579 7.86462 21.1865 9.67713 21.5627C11.4896 21.9389 13.3684 21.7458 15.0757 21.0078C16.783 20.2699 18.2423 19.0202 19.269 17.4168C20.2958 15.8134 20.8438 13.9284 20.8438 12C20.839 9.41566 19.8531 6.93859 18.1018 5.11118C16.3505 3.28378 13.9767 2.25496 11.5 2.25ZM15.0938 12.75H12.2188V15.75C12.2188 15.9489 12.143 16.1397 12.0082 16.2803C11.8734 16.421 11.6906 16.5 11.5 16.5C11.3094 16.5 11.1266 16.421 10.9918 16.2803C10.857 16.1397 10.7813 15.9489 10.7813 15.75V12.75H7.90625C7.71563 12.75 7.53281 12.671 7.39802 12.5303C7.26323 12.3897 7.1875 12.1989 7.1875 12C7.1875 11.8011 7.26323 11.6103 7.39802 11.4697C7.53281 11.329 7.71563 11.25 7.90625 11.25H10.7813V8.25C10.7813 8.05109 10.857 7.86032 10.9918 7.71967C11.1266 7.57902 11.3094 7.5 11.5 7.5C11.6906 7.5 11.8734 7.57902 12.0082 7.71967C12.143 7.86032 12.2188 8.05109 12.2188 8.25V11.25H15.0938C15.2844 11.25 15.4672 11.329 15.602 11.4697C15.7368 11.6103 15.8125 11.8011 15.8125 12C15.8125 12.1989 15.7368 12.3897 15.602 12.5303C15.4672 12.671 15.2844 12.75 15.0938 12.75Z" fill="#22577A"/>
</g>
<defs>
<clipPath id="clip0_3_13">
<rect width="23" height="24" fill="white"/>
</clipPath>
</defs>
</svg>
