<svg width="146" height="10" viewBox="0 0 146 10" fill="none" xmlns="http://www.w3.org/2000/svg">
<path d="M1.41477 9H0.306818L3.51136 0.272727H4.60227L7.80682 9H6.69886L4.09091 1.65341H4.02273L1.41477 9ZM1.82386 5.59091H6.28977V6.52841H1.82386V5.59091ZM11.5014 9.13636C10.956 9.13636 10.4744 8.99858 10.0568 8.72301C9.6392 8.4446 9.3125 8.05256 9.0767 7.54688C8.84091 7.03835 8.72301 6.4375 8.72301 5.74432C8.72301 5.05682 8.84091 4.46023 9.0767 3.95455C9.3125 3.44886 9.64063 3.05824 10.0611 2.78267C10.4815 2.5071 10.9673 2.36932 11.5185 2.36932C11.9446 2.36932 12.2813 2.44034 12.5284 2.58239C12.7784 2.72159 12.9688 2.88068 13.0994 3.05966C13.233 3.2358 13.3366 3.38068 13.4105 3.49432H13.4957V0.272727H14.5014V9H13.5298V7.99432H13.4105C13.3366 8.11364 13.2315 8.2642 13.0952 8.44602C12.9588 8.625 12.7642 8.78551 12.5114 8.92756C12.2585 9.06676 11.9219 9.13636 11.5014 9.13636ZM11.6378 8.23295C12.0412 8.23295 12.3821 8.12784 12.6605 7.91761C12.9389 7.70455 13.1506 7.41051 13.2955 7.03551C13.4403 6.65767 13.5128 6.22159 13.5128 5.72727C13.5128 5.23864 13.4418 4.81108 13.2997 4.4446C13.1577 4.07528 12.9474 3.78835 12.669 3.58381C12.3906 3.37642 12.0469 3.27273 11.6378 3.27273C11.2116 3.27273 10.8565 3.3821 10.5724 3.60085C10.2912 3.81676 10.0795 4.1108 9.9375 4.48295C9.7983 4.85227 9.72869 5.26705 9.72869 5.72727C9.72869 6.19318 9.79972 6.61648 9.94176 6.99716C10.0866 7.375 10.2997 7.67614 10.581 7.90057C10.8651 8.12216 11.2173 8.23295 11.6378 8.23295ZM16.483 9V2.45455H17.4886V9H16.483ZM16.9943 1.36364C16.7983 1.36364 16.6293 1.29688 16.4872 1.16335C16.348 1.02983 16.2784 0.869318 16.2784 0.681818C16.2784 0.494318 16.348 0.333807 16.4872 0.200284C16.6293 0.0667613 16.7983 0 16.9943 0C17.1903 0 17.358 0.0667613 17.4972 0.200284C17.6392 0.333807 17.7102 0.494318 17.7102 0.681818C17.7102 0.869318 17.6392 1.02983 17.4972 1.16335C17.358 1.29688 17.1903 1.36364 16.9943 1.36364ZM21.9897 9.13636C21.3761 9.13636 20.8477 8.99148 20.4045 8.7017C19.9613 8.41193 19.6204 8.01278 19.3817 7.50426C19.1431 6.99574 19.0238 6.41477 19.0238 5.76136C19.0238 5.09659 19.146 4.50994 19.3903 4.00142C19.6374 3.49006 19.9812 3.09091 20.4215 2.80398C20.8647 2.5142 21.3817 2.36932 21.9727 2.36932C22.4329 2.36932 22.8477 2.45455 23.217 2.625C23.5863 2.79545 23.8888 3.03409 24.1246 3.34091C24.3604 3.64773 24.5067 4.00568 24.5636 4.41477H23.5579C23.4812 4.11648 23.3107 3.85227 23.0465 3.62216C22.7852 3.3892 22.4329 3.27273 21.9897 3.27273C21.5977 3.27273 21.2539 3.375 20.9585 3.57955C20.6658 3.78125 20.4371 4.06676 20.2724 4.43608C20.1104 4.80256 20.0295 5.23295 20.0295 5.72727C20.0295 6.23295 20.109 6.6733 20.2681 7.0483C20.43 7.4233 20.6573 7.71449 20.9499 7.92188C21.2454 8.12926 21.592 8.23295 21.9897 8.23295C22.2511 8.23295 22.4883 8.1875 22.7013 8.09659C22.9144 8.00568 23.0948 7.875 23.2425 7.70455C23.3903 7.53409 23.4954 7.32955 23.5579 7.09091H24.5636C24.5067 7.47727 24.3661 7.82528 24.1417 8.13494C23.9201 8.44176 23.6261 8.68608 23.2596 8.8679C22.896 9.04688 22.4727 9.13636 21.9897 9.13636ZM26.0337 9V2.45455H27.0394V9H26.0337ZM26.5451 1.36364C26.3491 1.36364 26.18 1.29688 26.038 1.16335C25.8988 1.02983 25.8292 0.869318 25.8292 0.681818C25.8292 0.494318 25.8988 0.333807 26.038 0.200284C26.18 0.0667613 26.3491 0 26.5451 0C26.7411 0 26.9087 0.0667613 27.0479 0.200284C27.19 0.333807 27.261 0.494318 27.261 0.681818C27.261 0.869318 27.19 1.02983 27.0479 1.16335C26.9087 1.29688 26.7411 1.36364 26.5451 1.36364ZM31.5405 9.13636C30.9496 9.13636 30.4311 8.99574 29.9851 8.71449C29.5419 8.43324 29.1953 8.03977 28.9453 7.53409C28.6982 7.02841 28.5746 6.4375 28.5746 5.76136C28.5746 5.07955 28.6982 4.48437 28.9453 3.97585C29.1953 3.46733 29.5419 3.07244 29.9851 2.79119C30.4311 2.50994 30.9496 2.36932 31.5405 2.36932C32.1314 2.36932 32.6484 2.50994 33.0916 2.79119C33.5376 3.07244 33.8842 3.46733 34.1314 3.97585C34.3814 4.48437 34.5064 5.07955 34.5064 5.76136C34.5064 6.4375 34.3814 7.02841 34.1314 7.53409C33.8842 8.03977 33.5376 8.43324 33.0916 8.71449C32.6484 8.99574 32.1314 9.13636 31.5405 9.13636ZM31.5405 8.23295C31.9893 8.23295 32.3587 8.1179 32.6484 7.88778C32.9382 7.65767 33.1527 7.35511 33.2919 6.98011C33.4311 6.60511 33.5007 6.19886 33.5007 5.76136C33.5007 5.32386 33.4311 4.91619 33.2919 4.53835C33.1527 4.16051 32.9382 3.85511 32.6484 3.62216C32.3587 3.3892 31.9893 3.27273 31.5405 3.27273C31.0916 3.27273 30.7223 3.3892 30.4325 3.62216C30.1428 3.85511 29.9283 4.16051 29.7891 4.53835C29.6499 4.91619 29.5803 5.32386 29.5803 5.76136C29.5803 6.19886 29.6499 6.60511 29.7891 6.98011C29.9283 7.35511 30.1428 7.65767 30.4325 7.88778C30.7223 8.1179 31.0916 8.23295 31.5405 8.23295ZM37.0472 5.0625V9H36.0415V2.45455H37.0131V3.47727H37.0984C37.2518 3.14489 37.4847 2.87784 37.7972 2.67614C38.1097 2.47159 38.5131 2.36932 39.0075 2.36932C39.4506 2.36932 39.8384 2.46023 40.1708 2.64205C40.5032 2.82102 40.7617 3.09375 40.9464 3.46023C41.131 3.82386 41.2234 4.28409 41.2234 4.84091V9H40.2177V4.90909C40.2177 4.39489 40.0842 3.99432 39.8171 3.70739C39.5501 3.41761 39.1836 3.27273 38.7177 3.27273C38.3967 3.27273 38.1097 3.34233 37.8569 3.48153C37.6069 3.62074 37.4094 3.82386 37.2646 4.09091C37.1197 4.35795 37.0472 4.68182 37.0472 5.0625ZM45.8054 9.13636C45.1747 9.13636 44.6307 8.99716 44.1733 8.71875C43.7188 8.4375 43.3679 8.04545 43.1207 7.54261C42.8764 7.03693 42.7543 6.44886 42.7543 5.77841C42.7543 5.10795 42.8764 4.51705 43.1207 4.00568C43.3679 3.49148 43.7116 3.09091 44.152 2.80398C44.5952 2.5142 45.1122 2.36932 45.7031 2.36932C46.044 2.36932 46.3807 2.42614 46.7131 2.53977C47.0455 2.65341 47.348 2.83807 47.6207 3.09375C47.8935 3.34659 48.1108 3.68182 48.2727 4.09943C48.4347 4.51705 48.5156 5.03125 48.5156 5.64205V6.06818H43.4702V5.19886H47.4929C47.4929 4.82955 47.419 4.5 47.2713 4.21023C47.1264 3.92045 46.919 3.69176 46.6491 3.52415C46.3821 3.35653 46.0668 3.27273 45.7031 3.27273C45.3026 3.27273 44.956 3.37216 44.6634 3.57102C44.3736 3.76705 44.1506 4.02273 43.9943 4.33807C43.8381 4.65341 43.7599 4.99148 43.7599 5.35227V5.93182C43.7599 6.42614 43.8452 6.84517 44.0156 7.18892C44.1889 7.52983 44.429 7.78977 44.7358 7.96875C45.0426 8.14489 45.3991 8.23295 45.8054 8.23295C46.0696 8.23295 46.3082 8.19602 46.5213 8.12216C46.7372 8.04545 46.9233 7.93182 47.0795 7.78125C47.2358 7.62784 47.3565 7.4375 47.4418 7.21023L48.4134 7.48295C48.3111 7.8125 48.1392 8.10227 47.8977 8.35227C47.6563 8.59943 47.358 8.79261 47.0028 8.93182C46.6477 9.06818 46.2486 9.13636 45.8054 9.13636ZM55.3466 9.15341C54.9318 9.15341 54.5554 9.07528 54.2173 8.91903C53.8793 8.75994 53.6108 8.53125 53.4119 8.23295C53.2131 7.93182 53.1136 7.56818 53.1136 7.14205C53.1136 6.76705 53.1875 6.46307 53.3352 6.23011C53.483 5.99432 53.6804 5.80966 53.9276 5.67614C54.1747 5.54261 54.4474 5.44318 54.7457 5.37784C55.0469 5.30966 55.3494 5.25568 55.6534 5.21591C56.0511 5.16477 56.3736 5.12642 56.6207 5.10085C56.8707 5.07244 57.0526 5.02557 57.1662 4.96023C57.2827 4.89489 57.3409 4.78125 57.3409 4.61932V4.58523C57.3409 4.16477 57.2259 3.83807 56.9957 3.60511C56.7685 3.37216 56.4233 3.25568 55.9602 3.25568C55.4801 3.25568 55.1037 3.3608 54.831 3.57102C54.5582 3.78125 54.3665 4.00568 54.2557 4.24432L53.3011 3.90341C53.4716 3.50568 53.6989 3.19602 53.983 2.97443C54.2699 2.75 54.5824 2.59375 54.9205 2.50568C55.2614 2.41477 55.5966 2.36932 55.9261 2.36932C56.1364 2.36932 56.3778 2.39489 56.6506 2.44602C56.9261 2.49432 57.1918 2.59517 57.4474 2.74858C57.706 2.90199 57.9205 3.13352 58.0909 3.44318C58.2614 3.75284 58.3466 4.16761 58.3466 4.6875V9H57.3409V8.11364H57.2898C57.2216 8.25568 57.108 8.40767 56.9489 8.5696C56.7898 8.73153 56.5781 8.86932 56.3139 8.98295C56.0497 9.09659 55.7273 9.15341 55.3466 9.15341ZM55.5 8.25C55.8977 8.25 56.233 8.17188 56.5057 8.01562C56.7813 7.85938 56.9886 7.65767 57.1278 7.41051C57.2699 7.16335 57.3409 6.90341 57.3409 6.63068V5.71023C57.2983 5.76136 57.2045 5.80824 57.0597 5.85085C56.9176 5.89062 56.7528 5.92614 56.5653 5.95739C56.3807 5.9858 56.2003 6.01136 56.0241 6.03409C55.8509 6.05398 55.7102 6.07102 55.6023 6.08523C55.3409 6.11932 55.0966 6.17472 54.8693 6.25142C54.6449 6.32528 54.4631 6.4375 54.3239 6.58807C54.1875 6.7358 54.1193 6.9375 54.1193 7.19318C54.1193 7.54261 54.2486 7.80682 54.5071 7.9858C54.7685 8.16193 55.0994 8.25 55.5 8.25ZM68.1935 3.92045L67.2901 4.17614C67.2333 4.02557 67.1495 3.87926 67.0387 3.73722C66.9308 3.59233 66.783 3.47301 66.5955 3.37926C66.408 3.28551 66.168 3.23864 65.8754 3.23864C65.4748 3.23864 65.141 3.33097 64.8739 3.51562C64.6097 3.69744 64.4776 3.92898 64.4776 4.21023C64.4776 4.46023 64.5685 4.65767 64.7504 4.80256C64.9322 4.94744 65.2163 5.06818 65.6026 5.16477L66.5742 5.40341C67.1594 5.54545 67.5955 5.76278 67.8825 6.0554C68.1694 6.34517 68.3129 6.71875 68.3129 7.17614C68.3129 7.55114 68.2049 7.88636 67.989 8.18182C67.7759 8.47727 67.4776 8.71023 67.0941 8.88068C66.7106 9.05114 66.2646 9.13636 65.756 9.13636C65.0884 9.13636 64.5359 8.99148 64.0984 8.7017C63.6609 8.41193 63.3839 7.98864 63.2674 7.43182L64.2219 7.19318C64.3129 7.54545 64.4847 7.80966 64.7376 7.9858C64.9933 8.16193 65.3271 8.25 65.739 8.25C66.2077 8.25 66.5799 8.15057 66.8555 7.9517C67.1339 7.75 67.2731 7.50852 67.2731 7.22727C67.2731 7 67.1935 6.80966 67.0344 6.65625C66.8754 6.5 66.631 6.38352 66.3015 6.30682L65.2106 6.05114C64.6112 5.90909 64.1708 5.68892 63.8896 5.39062C63.6112 5.08949 63.4719 4.71307 63.4719 4.26136C63.4719 3.89205 63.5756 3.56534 63.783 3.28125C63.9933 2.99716 64.2788 2.77415 64.6396 2.61222C65.0032 2.45028 65.4151 2.36932 65.8754 2.36932C66.5231 2.36932 67.0316 2.51136 67.4009 2.79545C67.7731 3.07955 68.0373 3.45455 68.1935 3.92045ZM73.9517 6.32386V2.45455H74.9574V9H73.9517V7.89205H73.8835C73.7301 8.22443 73.4915 8.5071 73.1676 8.74006C72.8438 8.97017 72.4347 9.08523 71.9403 9.08523C71.5312 9.08523 71.1676 8.99574 70.8494 8.81676C70.5313 8.63494 70.2813 8.36222 70.0994 7.99858C69.9176 7.6321 69.8267 7.17045 69.8267 6.61364V2.45455H70.8324V6.54545C70.8324 7.02273 70.9659 7.40341 71.233 7.6875C71.5028 7.97159 71.8466 8.11364 72.2642 8.11364C72.5142 8.11364 72.7685 8.04972 73.027 7.92188C73.2884 7.79403 73.5071 7.59801 73.6832 7.33381C73.8622 7.0696 73.9517 6.73295 73.9517 6.32386ZM78.7255 9.15341C78.3107 9.15341 77.9343 9.07528 77.5962 8.91903C77.2582 8.75994 76.9897 8.53125 76.7908 8.23295C76.592 7.93182 76.4925 7.56818 76.4925 7.14205C76.4925 6.76705 76.5664 6.46307 76.7141 6.23011C76.8619 5.99432 77.0593 5.80966 77.3065 5.67614C77.5536 5.54261 77.8263 5.44318 78.1246 5.37784C78.4258 5.30966 78.7283 5.25568 79.0323 5.21591C79.43 5.16477 79.7525 5.12642 79.9996 5.10085C80.2496 5.07244 80.4315 5.02557 80.5451 4.96023C80.6616 4.89489 80.7198 4.78125 80.7198 4.61932V4.58523C80.7198 4.16477 80.6048 3.83807 80.3746 3.60511C80.1474 3.37216 79.8022 3.25568 79.3391 3.25568C78.859 3.25568 78.4826 3.3608 78.2099 3.57102C77.9371 3.78125 77.7454 4.00568 77.6346 4.24432L76.68 3.90341C76.8505 3.50568 77.0778 3.19602 77.3619 2.97443C77.6488 2.75 77.9613 2.59375 78.2994 2.50568C78.6403 2.41477 78.9755 2.36932 79.305 2.36932C79.5153 2.36932 79.7567 2.39489 80.0295 2.44602C80.305 2.49432 80.5707 2.59517 80.8263 2.74858C81.0849 2.90199 81.2994 3.13352 81.4698 3.44318C81.6403 3.75284 81.7255 4.16761 81.7255 4.6875V9H80.7198V8.11364H80.6687C80.6005 8.25568 80.4869 8.40767 80.3278 8.5696C80.1687 8.73153 79.957 8.86932 79.6928 8.98295C79.4286 9.09659 79.1062 9.15341 78.7255 9.15341ZM78.8789 8.25C79.2766 8.25 79.6119 8.17188 79.8846 8.01562C80.1602 7.85938 80.3675 7.65767 80.5067 7.41051C80.6488 7.16335 80.7198 6.90341 80.7198 6.63068V5.71023C80.6772 5.76136 80.5835 5.80824 80.4386 5.85085C80.2965 5.89062 80.1317 5.92614 79.9442 5.95739C79.7596 5.9858 79.5792 6.01136 79.4031 6.03409C79.2298 6.05398 79.0891 6.07102 78.9812 6.08523C78.7198 6.11932 78.4755 6.17472 78.2482 6.25142C78.0238 6.32528 77.842 6.4375 77.7028 6.58807C77.5664 6.7358 77.4982 6.9375 77.4982 7.19318C77.4982 7.54261 77.6275 7.80682 77.886 7.9858C78.1474 8.16193 78.4783 8.25 78.8789 8.25ZM87.9418 5.0625V9H86.9361V2.45455H87.9077V3.47727H87.9929C88.1463 3.14489 88.3793 2.87784 88.6918 2.67614C89.0043 2.47159 89.4077 2.36932 89.902 2.36932C90.3452 2.36932 90.733 2.46023 91.0653 2.64205C91.3977 2.82102 91.6563 3.09375 91.8409 3.46023C92.0256 3.82386 92.1179 4.28409 92.1179 4.84091V9H91.1122V4.90909C91.1122 4.39489 90.9787 3.99432 90.7116 3.70739C90.4446 3.41761 90.0781 3.27273 89.6122 3.27273C89.2912 3.27273 89.0043 3.34233 88.7514 3.48153C88.5014 3.62074 88.304 3.82386 88.1591 4.09091C88.0142 4.35795 87.9418 4.68182 87.9418 5.0625ZM96.6147 9.13636C96.0238 9.13636 95.5053 8.99574 95.0593 8.71449C94.6161 8.43324 94.2695 8.03977 94.0195 7.53409C93.7724 7.02841 93.6488 6.4375 93.6488 5.76136C93.6488 5.07955 93.7724 4.48437 94.0195 3.97585C94.2695 3.46733 94.6161 3.07244 95.0593 2.79119C95.5053 2.50994 96.0238 2.36932 96.6147 2.36932C97.2056 2.36932 97.7227 2.50994 98.1658 2.79119C98.6119 3.07244 98.9585 3.46733 99.2056 3.97585C99.4556 4.48437 99.5806 5.07955 99.5806 5.76136C99.5806 6.4375 99.4556 7.02841 99.2056 7.53409C98.9585 8.03977 98.6119 8.43324 98.1658 8.71449C97.7227 8.99574 97.2056 9.13636 96.6147 9.13636ZM96.6147 8.23295C97.0636 8.23295 97.4329 8.1179 97.7227 7.88778C98.0124 7.65767 98.2269 7.35511 98.3661 6.98011C98.5053 6.60511 98.5749 6.19886 98.5749 5.76136C98.5749 5.32386 98.5053 4.91619 98.3661 4.53835C98.2269 4.16051 98.0124 3.85511 97.7227 3.62216C97.4329 3.3892 97.0636 3.27273 96.6147 3.27273C96.1658 3.27273 95.7965 3.3892 95.5067 3.62216C95.217 3.85511 95.0025 4.16051 94.8633 4.53835C94.7241 4.91619 94.6545 5.32386 94.6545 5.76136C94.6545 6.19886 94.7241 6.60511 94.8633 6.98011C95.0025 7.35511 95.217 7.65767 95.5067 7.88778C95.7965 8.1179 96.1658 8.23295 96.6147 8.23295ZM106.234 2.45455L103.813 9H102.79L100.37 2.45455H101.461L103.268 7.67045H103.336L105.143 2.45455H106.234ZM109.288 9.15341C108.873 9.15341 108.497 9.07528 108.159 8.91903C107.821 8.75994 107.552 8.53125 107.353 8.23295C107.154 7.93182 107.055 7.56818 107.055 7.14205C107.055 6.76705 107.129 6.46307 107.277 6.23011C107.424 5.99432 107.622 5.80966 107.869 5.67614C108.116 5.54261 108.389 5.44318 108.687 5.37784C108.988 5.30966 109.291 5.25568 109.595 5.21591C109.993 5.16477 110.315 5.12642 110.562 5.10085C110.812 5.07244 110.994 5.02557 111.108 4.96023C111.224 4.89489 111.282 4.78125 111.282 4.61932V4.58523C111.282 4.16477 111.167 3.83807 110.937 3.60511C110.71 3.37216 110.365 3.25568 109.902 3.25568C109.422 3.25568 109.045 3.3608 108.772 3.57102C108.5 3.78125 108.308 4.00568 108.197 4.24432L107.243 3.90341C107.413 3.50568 107.64 3.19602 107.924 2.97443C108.211 2.75 108.524 2.59375 108.862 2.50568C109.203 2.41477 109.538 2.36932 109.868 2.36932C110.078 2.36932 110.319 2.39489 110.592 2.44602C110.868 2.49432 111.133 2.59517 111.389 2.74858C111.647 2.90199 111.862 3.13352 112.032 3.44318C112.203 3.75284 112.288 4.16761 112.288 4.6875V9H111.282V8.11364H111.231C111.163 8.25568 111.049 8.40767 110.89 8.5696C110.731 8.73153 110.52 8.86932 110.255 8.98295C109.991 9.09659 109.669 9.15341 109.288 9.15341ZM109.441 8.25C109.839 8.25 110.174 8.17188 110.447 8.01562C110.723 7.85938 110.93 7.65767 111.069 7.41051C111.211 7.16335 111.282 6.90341 111.282 6.63068V5.71023C111.24 5.76136 111.146 5.80824 111.001 5.85085C110.859 5.89062 110.694 5.92614 110.507 5.95739C110.322 5.9858 110.142 6.01136 109.966 6.03409C109.792 6.05398 109.652 6.07102 109.544 6.08523C109.282 6.11932 109.038 6.17472 108.811 6.25142C108.586 6.32528 108.404 6.4375 108.265 6.58807C108.129 6.7358 108.061 6.9375 108.061 7.19318C108.061 7.54261 108.19 7.80682 108.449 7.9858C108.71 8.16193 109.041 8.25 109.441 8.25ZM117.499 9V2.45455H118.504V9H117.499ZM118.01 1.36364C117.814 1.36364 117.645 1.29688 117.503 1.16335C117.364 1.02983 117.294 0.869318 117.294 0.681818C117.294 0.494318 117.364 0.333807 117.503 0.200284C117.645 0.0667613 117.814 0 118.01 0C118.206 0 118.374 0.0667613 118.513 0.200284C118.655 0.333807 118.726 0.494318 118.726 0.681818C118.726 0.869318 118.655 1.02983 118.513 1.16335C118.374 1.29688 118.206 1.36364 118.01 1.36364ZM122.818 9.13636C122.272 9.13636 121.791 8.99858 121.373 8.72301C120.956 8.4446 120.629 8.05256 120.393 7.54688C120.157 7.03835 120.039 6.4375 120.039 5.74432C120.039 5.05682 120.157 4.46023 120.393 3.95455C120.629 3.44886 120.957 3.05824 121.377 2.78267C121.798 2.5071 122.284 2.36932 122.835 2.36932C123.261 2.36932 123.598 2.44034 123.845 2.58239C124.095 2.72159 124.285 2.88068 124.416 3.05966C124.549 3.2358 124.653 3.38068 124.727 3.49432H124.812V0.272727H125.818V9H124.846V7.99432H124.727C124.653 8.11364 124.548 8.2642 124.412 8.44602C124.275 8.625 124.081 8.78551 123.828 8.92756C123.575 9.06676 123.238 9.13636 122.818 9.13636ZM122.954 8.23295C123.358 8.23295 123.699 8.12784 123.977 7.91761C124.255 7.70455 124.467 7.41051 124.612 7.03551C124.757 6.65767 124.829 6.22159 124.829 5.72727C124.829 5.23864 124.758 4.81108 124.616 4.4446C124.474 4.07528 124.264 3.78835 123.985 3.58381C123.707 3.37642 123.363 3.27273 122.954 3.27273C122.528 3.27273 122.173 3.3821 121.889 3.60085C121.608 3.81676 121.396 4.1108 121.254 4.48295C121.115 4.85227 121.045 5.26705 121.045 5.72727C121.045 6.19318 121.116 6.61648 121.258 6.99716C121.403 7.375 121.616 7.67614 121.897 7.90057C122.181 8.12216 122.534 8.23295 122.954 8.23295ZM130.544 9.13636C129.913 9.13636 129.369 8.99716 128.912 8.71875C128.457 8.4375 128.106 8.04545 127.859 7.54261C127.615 7.03693 127.493 6.44886 127.493 5.77841C127.493 5.10795 127.615 4.51705 127.859 4.00568C128.106 3.49148 128.45 3.09091 128.89 2.80398C129.333 2.5142 129.85 2.36932 130.441 2.36932C130.782 2.36932 131.119 2.42614 131.451 2.53977C131.784 2.65341 132.086 2.83807 132.359 3.09375C132.632 3.34659 132.849 3.68182 133.011 4.09943C133.173 4.51705 133.254 5.03125 133.254 5.64205V6.06818H128.208V5.19886H132.231C132.231 4.82955 132.157 4.5 132.01 4.21023C131.865 3.92045 131.657 3.69176 131.387 3.52415C131.12 3.35653 130.805 3.27273 130.441 3.27273C130.041 3.27273 129.694 3.37216 129.402 3.57102C129.112 3.76705 128.889 4.02273 128.733 4.33807C128.576 4.65341 128.498 4.99148 128.498 5.35227V5.93182C128.498 6.42614 128.583 6.84517 128.754 7.18892C128.927 7.52983 129.167 7.78977 129.474 7.96875C129.781 8.14489 130.137 8.23295 130.544 8.23295C130.808 8.23295 131.047 8.19602 131.26 8.12216C131.475 8.04545 131.662 7.93182 131.818 7.78125C131.974 7.62784 132.095 7.4375 132.18 7.21023L133.152 7.48295C133.049 7.8125 132.877 8.10227 132.636 8.35227C132.395 8.59943 132.096 8.79261 131.741 8.93182C131.386 9.06818 130.987 9.13636 130.544 9.13636ZM134.784 9V2.45455H135.789V9H134.784ZM135.295 1.36364C135.099 1.36364 134.93 1.29688 134.788 1.16335C134.649 1.02983 134.579 0.869318 134.579 0.681818C134.579 0.494318 134.649 0.333807 134.788 0.200284C134.93 0.0667613 135.099 0 135.295 0C135.491 0 135.659 0.0667613 135.798 0.200284C135.94 0.333807 136.011 0.494318 136.011 0.681818C136.011 0.869318 135.94 1.02983 135.798 1.16335C135.659 1.29688 135.491 1.36364 135.295 1.36364ZM139.558 9.15341C139.143 9.15341 138.766 9.07528 138.428 8.91903C138.09 8.75994 137.822 8.53125 137.623 8.23295C137.424 7.93182 137.325 7.56818 137.325 7.14205C137.325 6.76705 137.398 6.46307 137.546 6.23011C137.694 5.99432 137.891 5.80966 138.138 5.67614C138.386 5.54261 138.658 5.44318 138.957 5.37784C139.258 5.30966 139.56 5.25568 139.864 5.21591C140.262 5.16477 140.585 5.12642 140.832 5.10085C141.082 5.07244 141.263 5.02557 141.377 4.96023C141.494 4.89489 141.552 4.78125 141.552 4.61932V4.58523C141.552 4.16477 141.437 3.83807 141.207 3.60511C140.979 3.37216 140.634 3.25568 140.171 3.25568C139.691 3.25568 139.315 3.3608 139.042 3.57102C138.769 3.78125 138.577 4.00568 138.467 4.24432L137.512 3.90341C137.683 3.50568 137.91 3.19602 138.194 2.97443C138.481 2.75 138.793 2.59375 139.131 2.50568C139.472 2.41477 139.808 2.36932 140.137 2.36932C140.347 2.36932 140.589 2.39489 140.862 2.44602C141.137 2.49432 141.403 2.59517 141.658 2.74858C141.917 2.90199 142.131 3.13352 142.302 3.44318C142.472 3.75284 142.558 4.16761 142.558 4.6875V9H141.552V8.11364H141.501C141.433 8.25568 141.319 8.40767 141.16 8.5696C141.001 8.73153 140.789 8.86932 140.525 8.98295C140.261 9.09659 139.938 9.15341 139.558 9.15341ZM139.711 8.25C140.109 8.25 140.444 8.17188 140.717 8.01562C140.992 7.85938 141.2 7.65767 141.339 7.41051C141.481 7.16335 141.552 6.90341 141.552 6.63068V5.71023C141.509 5.76136 141.415 5.80824 141.271 5.85085C141.129 5.89062 140.964 5.92614 140.776 5.95739C140.592 5.9858 140.411 6.01136 140.235 6.03409C140.062 6.05398 139.921 6.07102 139.813 6.08523C139.552 6.11932 139.308 6.17472 139.08 6.25142C138.856 6.32528 138.674 6.4375 138.535 6.58807C138.398 6.7358 138.33 6.9375 138.33 7.19318C138.33 7.54261 138.46 7.80682 138.718 7.9858C138.979 8.16193 139.31 8.25 139.711 8.25ZM145.126 9.06818C144.916 9.06818 144.735 8.9929 144.585 8.84233C144.434 8.69176 144.359 8.51136 144.359 8.30114C144.359 8.09091 144.434 7.91051 144.585 7.75994C144.735 7.60937 144.916 7.53409 145.126 7.53409C145.336 7.53409 145.517 7.60937 145.667 7.75994C145.818 7.91051 145.893 8.09091 145.893 8.30114C145.893 8.44034 145.858 8.56818 145.787 8.68466C145.718 8.80114 145.626 8.89489 145.51 8.96591C145.396 9.03409 145.268 9.06818 145.126 9.06818ZM145.126 4.21023C144.916 4.21023 144.735 4.13494 144.585 3.98438C144.434 3.83381 144.359 3.65341 144.359 3.44318C144.359 3.23295 144.434 3.05256 144.585 2.90199C144.735 2.75142 144.916 2.67614 145.126 2.67614C145.336 2.67614 145.517 2.75142 145.667 2.90199C145.818 3.05256 145.893 3.23295 145.893 3.44318C145.893 3.58239 145.858 3.71023 145.787 3.8267C145.718 3.94318 145.626 4.03693 145.51 4.10795C145.396 4.17614 145.268 4.21023 145.126 4.21023Z" fill="black"/>
</svg>
