<svg width="31" height="27" viewBox="0 0 31 27" fill="none" xmlns="http://www.w3.org/2000/svg">
<g clip-path="url(#clip0_1_153)">
<path d="M29.6905 22.665L22.7935 16.7327C24.3619 14.7299 25.1357 12.2276 24.7214 9.56124C24.015 5.02595 19.6936 1.33518 14.4157 0.760425C6.56852 -0.0936524 -0.0300317 5.58202 0.962977 12.3317C1.63136 16.8734 5.92284 20.5934 11.1961 21.1981C14.2961 21.5543 17.2058 20.889 19.5336 19.5398L26.4307 25.4722C27.3307 26.2463 28.7902 26.2463 29.6902 25.4722C30.5894 24.697 30.5894 23.4382 29.6905 22.665ZM5.42132 10.9836C5.42132 7.48564 8.72981 4.63988 12.7966 4.63988C16.8633 4.63988 20.1718 7.48564 20.1718 10.9836C20.1718 14.4816 16.8633 17.3274 12.7966 17.3274C8.72981 17.3274 5.42132 14.4826 5.42132 10.9836Z" fill="black" fill-opacity="0.5"/>
</g>
<defs>
<clipPath id="clip0_1_153">
<rect width="29.501" height="25.375" fill="white" transform="translate(0.863281 0.675003)"/>
</clipPath>
</defs>
</svg>
