<svg width="22" height="22" viewBox="0 0 22 22" fill="none" xmlns="http://www.w3.org/2000/svg">
<g clip-path="url(#clip0_3_19)">
<path d="M21.4973 19.0653L16.354 13.9219C17.5236 12.1855 18.1007 10.016 17.7917 7.70433C17.2649 3.77226 14.0423 0.572375 10.1063 0.0740661C4.25441 -0.666414 -0.666373 4.25437 0.0741505 10.1063C0.572588 14.0439 3.7729 17.2692 7.7054 17.7934C10.0171 18.1023 12.187 17.5254 13.923 16.3557L19.0663 21.499C19.7375 22.1702 20.8259 22.1702 21.4971 21.499C22.1677 20.827 22.1677 19.7356 21.4973 19.0653ZM3.3989 8.93753C3.3989 5.9048 5.86617 3.43753 8.8989 3.43753C11.9316 3.43753 14.3989 5.9048 14.3989 8.93753C14.3989 11.9703 11.9316 14.4375 8.8989 14.4375C5.86617 14.4375 3.3989 11.9711 3.3989 8.93753Z" fill="#22577A"/>
</g>
<defs>
<clipPath id="clip0_3_19">
<rect width="22" height="22" fill="white"/>
</clipPath>
</defs>
</svg>
