<svg width="143" height="48" viewBox="0 0 143 48" fill="none" xmlns="http://www.w3.org/2000/svg">
<path d="M18.16 1.688C25.7973 1.688 31.472 3.608 35.184 7.448C38.896 11.2453 40.752 16.7067 40.752 23.832C40.752 28.4827 39.8347 32.5573 38 36.056C36.208 39.512 33.584 42.2 30.128 44.12C26.672 46.04 22.4907 47 17.584 47C16.944 47 16.0907 46.9787 15.024 46.936C13.9573 46.8933 12.848 46.872 11.696 46.872C10.5867 46.8293 9.56267 46.808 8.624 46.808C7.13067 46.808 5.65867 46.8293 4.208 46.872C2.75733 46.872 1.584 46.9147 0.688 47V45.72C2.13867 45.6347 3.22667 45.464 3.952 45.208C4.72 44.952 5.232 44.44 5.488 43.672C5.744 42.904 5.872 41.752 5.872 40.216V8.472C5.872 6.89333 5.744 5.74133 5.488 5.016C5.232 4.248 4.72 3.736 3.952 3.48C3.22667 3.18133 2.13867 3.01066 0.688 2.968V1.688C1.584 1.73067 2.75733 1.79467 4.208 1.88C5.65867 1.92266 7.088 1.92266 8.496 1.88C9.98933 1.83733 11.6747 1.79467 13.552 1.752C15.4293 1.70933 16.9653 1.688 18.16 1.688ZM16.56 2.84C14.5973 2.84 13.3173 3.20266 12.72 3.928C12.1227 4.65333 11.824 6.12533 11.824 8.344V40.344C11.824 42.5627 12.1227 44.0347 12.72 44.76C13.36 45.4853 14.6613 45.848 16.624 45.848C21.2747 45.848 24.88 45.016 27.44 43.352C30 41.6453 31.792 39.1707 32.816 35.928C33.84 32.6853 34.352 28.7387 34.352 24.088C34.352 19.3093 33.776 15.3627 32.624 12.248C31.5147 9.09066 29.6587 6.744 27.056 5.208C24.496 3.62933 20.9973 2.84 16.56 2.84ZM63.547 1.368L79.163 41.624C79.803 43.2453 80.5283 44.3333 81.339 44.888C82.1497 45.4 82.8963 45.6773 83.579 45.72V47C82.7257 46.9147 81.6803 46.872 80.443 46.872C79.2057 46.8293 77.9683 46.808 76.731 46.808C75.067 46.808 73.5097 46.8293 72.059 46.872C70.6083 46.872 69.435 46.9147 68.539 47V45.72C70.715 45.6347 72.1017 45.272 72.699 44.632C73.2963 43.9493 73.1683 42.52 72.315 40.344L60.411 8.536L61.435 7.704L50.299 36.632C49.6163 38.3387 49.211 39.7893 49.083 40.984C48.955 42.136 49.0617 43.0533 49.403 43.736C49.787 44.4187 50.4057 44.9093 51.259 45.208C52.155 45.5067 53.2643 45.6773 54.587 45.72V47C53.3923 46.9147 52.1337 46.872 50.811 46.872C49.531 46.8293 48.3363 46.808 47.227 46.808C46.1603 46.808 45.243 46.8293 44.475 46.872C43.7497 46.872 43.067 46.9147 42.427 47V45.72C43.2803 45.5067 44.155 45.016 45.051 44.248C45.947 43.4373 46.7577 42.072 47.483 40.152L62.523 1.368C62.6937 1.368 62.8643 1.368 63.035 1.368C63.2057 1.368 63.3763 1.368 63.547 1.368ZM71.355 28.568V29.848H52.283L52.923 28.568H71.355ZM100.946 1.688V2.968C99.4948 3.01066 98.3855 3.18133 97.6175 3.48C96.8922 3.736 96.4015 4.248 96.1455 5.016C95.8895 5.74133 95.7615 6.89333 95.7615 8.472V40.216C95.7615 41.752 95.8895 42.904 96.1455 43.672C96.4015 44.44 96.8922 44.952 97.6175 45.208C98.3855 45.464 99.4948 45.6347 100.946 45.72V47C99.9642 46.9147 98.7268 46.872 97.2335 46.872C95.7828 46.8293 94.3108 46.808 92.8175 46.808C91.1535 46.808 89.5962 46.8293 88.1455 46.872C86.6948 46.872 85.5215 46.9147 84.6255 47V45.72C86.0762 45.6347 87.1642 45.464 87.8895 45.208C88.6575 44.952 89.1695 44.44 89.4255 43.672C89.6815 42.904 89.8095 41.752 89.8095 40.216V8.472C89.8095 6.89333 89.6815 5.74133 89.4255 5.016C89.1695 4.248 88.6575 3.736 87.8895 3.48C87.1642 3.18133 86.0762 3.01066 84.6255 2.968V1.688C85.5215 1.73067 86.6948 1.77333 88.1455 1.816C89.5962 1.85866 91.1535 1.88 92.8175 1.88C94.3108 1.88 95.7828 1.85866 97.2335 1.816C98.7268 1.77333 99.9642 1.73067 100.946 1.688ZM126.869 0.791996C129.685 0.791996 131.989 1.21866 133.781 2.072C135.616 2.88266 137.237 3.84267 138.645 4.952C139.498 5.592 140.138 5.67733 140.565 5.208C141.034 4.696 141.354 3.52267 141.525 1.688H142.997C142.912 3.26667 142.848 5.18667 142.805 7.448C142.762 9.70933 142.741 12.696 142.741 16.408H141.269C140.97 14.5733 140.693 13.1227 140.437 12.056C140.181 10.9467 139.861 10.008 139.477 9.24C139.136 8.472 138.666 7.704 138.069 6.936C136.746 5.18666 135.082 3.928 133.077 3.16C131.072 2.34933 128.96 1.944 126.741 1.944C124.65 1.944 122.752 2.47733 121.045 3.544C119.381 4.568 117.93 6.06133 116.693 8.024C115.498 9.98667 114.56 12.3547 113.877 15.128C113.237 17.9013 112.917 21.016 112.917 24.472C112.917 28.056 113.28 31.2347 114.005 34.008C114.73 36.7387 115.733 39.0427 117.013 40.92C118.336 42.7973 119.872 44.2267 121.621 45.208C123.413 46.1467 125.333 46.616 127.381 46.616C129.301 46.616 131.306 46.232 133.397 45.464C135.488 44.696 137.13 43.4587 138.325 41.752C139.264 40.5147 139.904 39.1707 140.245 37.72C140.629 36.2693 140.97 34.2427 141.269 31.64H142.741C142.741 35.5227 142.762 38.6587 142.805 41.048C142.848 43.3947 142.912 45.3787 142.997 47H141.525C141.354 45.1653 141.056 44.0133 140.629 43.544C140.245 43.0747 139.584 43.1387 138.645 43.736C137.066 44.8453 135.381 45.8267 133.589 46.68C131.84 47.4907 129.578 47.896 126.805 47.896C122.752 47.896 119.189 46.9787 116.117 45.144C113.088 43.3093 110.72 40.664 109.013 37.208C107.349 33.752 106.517 29.592 106.517 24.728C106.517 19.9493 107.392 15.768 109.141 12.184C110.89 8.6 113.28 5.80533 116.309 3.8C119.381 1.79466 122.901 0.791996 126.869 0.791996Z" fill="black"/>
</svg>
