<svg width="102" height="21" viewBox="0 0 102 21" fill="none" xmlns="http://www.w3.org/2000/svg">
<g filter="url(#filter0_d_10_2)">
<path d="M12.9865 3.823C12.4991 3.47167 12.0798 3.21667 11.7285 3.058C11.3771 2.888 10.9691 2.803 10.5045 2.803C9.57514 2.803 8.77614 3.041 8.10747 3.517C7.59747 3.891 7.21781 4.37833 6.96847 4.979C6.71914 5.57967 6.59447 6.254 6.59447 7.002C6.59447 7.716 6.75881 8.345 7.08747 8.889C7.41614 9.42167 7.84114 9.82967 8.36247 10.113C8.88381 10.3963 9.42781 10.538 9.99447 10.538C10.5611 10.538 11.0485 10.453 11.4565 10.283C11.8758 10.1017 12.2101 9.86933 12.4595 9.586C12.8448 9.09867 13.0375 8.45267 13.0375 7.648C13.0375 7.53467 12.9468 7.45533 12.7655 7.41C12.5841 7.36467 12.3235 7.342 11.9835 7.342L10.7595 7.359C10.4308 7.359 10.1701 7.29667 9.97747 7.172C9.78481 7.04733 9.68847 6.88867 9.68847 6.696C9.68847 6.424 9.77914 6.22567 9.96047 6.101C10.1418 5.965 10.3855 5.897 10.6915 5.897C11.0541 5.897 11.5415 5.91967 12.1535 5.965C12.7655 6.01033 13.2075 6.033 13.4795 6.033C13.8761 6.033 14.1935 6.15767 14.4315 6.407C14.6808 6.65633 14.8055 7.019 14.8055 7.495C14.8055 7.937 14.7091 8.45267 14.5165 9.042C14.3238 9.63133 14.0518 10.1583 13.7005 10.623C13.3605 11.0763 12.8561 11.422 12.1875 11.66C11.5301 11.8867 10.7991 12 9.99447 12C9.32581 12 8.67981 11.8923 8.05647 11.677C7.43314 11.4617 6.91181 11.1613 6.49247 10.776C5.97114 10.2887 5.55747 9.71067 5.25147 9.042C4.95681 8.362 4.80947 7.68767 4.80947 7.019C4.80947 6.04433 5.03614 5.098 5.48947 4.18C5.95414 3.25067 6.57747 2.531 7.35947 2.021C7.69947 1.79433 8.17547 1.60733 8.78747 1.46C9.39947 1.31267 9.96047 1.239 10.4705 1.239C11.2638 1.239 11.9608 1.36367 12.5615 1.613C13.1621 1.851 13.6211 2.19667 13.9385 2.65C14.0745 2.854 14.1425 3.03533 14.1425 3.194C14.1425 3.37533 14.0631 3.54533 13.9045 3.704C13.7458 3.86267 13.5871 3.942 13.4285 3.942C13.3605 3.942 13.2811 3.93067 13.1905 3.908C13.0998 3.88533 13.0318 3.857 12.9865 3.823ZM19.1138 11.32C19.1138 11.5127 19.0401 11.6827 18.8928 11.83C18.7454 11.9773 18.5641 12.051 18.3488 12.051C18.0088 12.051 17.7594 11.9887 17.6008 11.864C17.4421 11.728 17.3628 11.4843 17.3628 11.133C17.3628 10.7137 17.3514 10.164 17.3288 9.484C17.3061 8.91733 17.2948 8.44133 17.2948 8.056C17.2948 7.87467 17.3061 7.63667 17.3288 7.342C17.3514 7.07 17.3628 6.866 17.3628 6.73C17.3288 6.51467 17.2438 6.339 17.1078 6.203C16.9718 6.05567 16.7961 5.982 16.5808 5.982C16.4788 5.982 16.3938 5.93667 16.3258 5.846C16.2578 5.744 16.2238 5.642 16.2238 5.54C16.2238 5.27933 16.3258 5.081 16.5298 4.945C16.7451 4.809 17.0001 4.741 17.2948 4.741C17.9068 4.741 18.3318 5.10367 18.5698 5.829C18.8644 5.489 19.1988 5.217 19.5728 5.013C19.9581 4.79767 20.3264 4.69 20.6778 4.69C21.0971 4.69 21.4768 4.80333 21.8168 5.03C22.1681 5.25667 22.3438 5.56267 22.3438 5.948C22.3438 6.16333 22.2474 6.38433 22.0548 6.611C21.8734 6.83767 21.6864 6.951 21.4938 6.951C21.3918 6.951 21.3011 6.92833 21.2218 6.883C21.1538 6.82633 21.0688 6.747 20.9668 6.645C20.8534 6.53167 20.7571 6.45233 20.6778 6.407C20.5984 6.35033 20.5078 6.322 20.4058 6.322C20.2244 6.322 20.0544 6.35033 19.8958 6.407C19.7371 6.46367 19.6294 6.53167 19.5728 6.611C19.3914 6.89433 19.2554 7.14933 19.1648 7.376C19.0854 7.60267 19.0458 7.84633 19.0458 8.107C19.0458 8.29967 19.0401 8.45267 19.0288 8.566L19.0118 9.535C19.0118 9.68233 19.0174 9.84667 19.0288 10.028C19.0401 10.2093 19.0514 10.3453 19.0628 10.436C19.0968 10.742 19.1138 11.0367 19.1138 11.32ZM23.2186 8.396C23.2186 7.96533 23.2979 7.53467 23.4566 7.104C23.6153 6.662 23.8249 6.25967 24.0856 5.897C24.3463 5.53433 24.7599 5.23967 25.3266 5.013C25.8933 4.775 26.3976 4.656 26.8396 4.656C27.2929 4.656 27.7519 4.71833 28.2166 4.843C28.6926 4.96767 29.0213 5.16033 29.2026 5.421C29.6219 6.01033 29.8316 6.58833 29.8316 7.155C29.8316 7.461 29.7636 7.72167 29.6276 7.937C29.5029 8.15233 29.3216 8.38467 29.0836 8.634C28.8909 8.838 28.5849 8.974 28.1656 9.042C27.7576 9.11 27.3496 9.144 26.9416 9.144C26.6809 9.144 26.3636 9.12133 25.9896 9.076C25.6156 9.01933 25.2529 8.95133 24.9016 8.872C24.9243 9.09867 24.9809 9.31967 25.0716 9.535C25.1623 9.75033 25.2699 9.91467 25.3946 10.028C25.6213 10.2433 25.8536 10.3793 26.0916 10.436C26.3409 10.4927 26.6583 10.521 27.0436 10.521C27.4516 10.521 27.8313 10.453 28.1826 10.317C28.4659 10.215 28.6983 10.164 28.8796 10.164C29.0949 10.164 29.2593 10.232 29.3726 10.368C29.4859 10.4927 29.5426 10.657 29.5426 10.861C29.5426 11.1443 29.3783 11.3767 29.0496 11.558C28.7209 11.7393 28.3413 11.8753 27.9106 11.966C27.4913 12.0453 27.1513 12.085 26.8906 12.085C26.3579 12.085 25.8423 11.9887 25.3436 11.796C24.8449 11.6033 24.4313 11.3313 24.1026 10.98C23.8306 10.6627 23.6153 10.283 23.4566 9.841C23.2979 9.38767 23.2186 8.906 23.2186 8.396ZM26.9246 6.101C26.6753 6.101 26.4259 6.152 26.1766 6.254C25.9273 6.34467 25.7233 6.475 25.5646 6.645C25.3606 6.86033 25.2189 7.036 25.1396 7.172C25.0716 7.29667 25.0263 7.47233 25.0036 7.699C25.2869 7.78967 25.8763 7.835 26.7716 7.835C27.2589 7.835 27.6329 7.76133 27.8936 7.614C28.1656 7.46667 28.3016 7.274 28.3016 7.036C28.3016 6.798 28.1543 6.58267 27.8596 6.39C27.5649 6.19733 27.2533 6.101 26.9246 6.101ZM31.2862 8.107C31.2862 7.41567 31.4392 6.84333 31.7452 6.39C32.0512 5.92533 32.4762 5.489 33.0202 5.081C33.1788 4.96767 33.4452 4.87133 33.8192 4.792C34.1932 4.70133 34.5218 4.656 34.8052 4.656C35.1452 4.656 35.5022 4.72967 35.8762 4.877C36.2615 5.013 36.5732 5.17167 36.8112 5.353C37.2305 5.659 37.5195 6.016 37.6782 6.424C37.8368 6.82067 37.9162 7.29667 37.9162 7.852C37.9162 8.09 37.7802 8.32233 37.5082 8.549C37.2475 8.76433 36.9642 8.872 36.6582 8.872L36.0122 8.855C35.6835 8.855 35.2132 8.86633 34.6012 8.889L34.2442 8.906C33.9948 8.92867 33.8078 8.94 33.6832 8.94C33.5018 8.94 33.2525 8.91733 32.9352 8.872C32.9805 9.40467 33.1788 9.824 33.5302 10.13C33.8815 10.4247 34.2612 10.572 34.6692 10.572C35.3832 10.572 35.8818 10.4303 36.1652 10.147C36.4032 9.977 36.5618 9.86933 36.6412 9.824C36.7205 9.77867 36.8452 9.756 37.0152 9.756C37.1965 9.756 37.3552 9.841 37.4912 10.011C37.6272 10.181 37.6952 10.351 37.6952 10.521C37.6952 10.7137 37.5762 10.912 37.3382 11.116C37.1115 11.3087 36.7998 11.5127 36.4032 11.728C36.1878 11.8187 35.8932 11.898 35.5192 11.966C35.1452 12.034 34.8335 12.068 34.5842 12.068C34.1875 12.068 33.7455 11.9547 33.2582 11.728C32.7708 11.49 32.4082 11.2293 32.1702 10.946C31.9322 10.6627 31.7225 10.2603 31.5412 9.739C31.3712 9.21767 31.2862 8.67367 31.2862 8.107ZM34.6692 7.648C35.4738 7.648 36.0632 7.61967 36.4372 7.563C36.4145 7.23433 36.3125 6.968 36.1312 6.764C35.9498 6.54867 35.7005 6.36733 35.3832 6.22C35.2812 6.17467 35.1905 6.14067 35.1112 6.118C35.0318 6.09533 34.9412 6.084 34.8392 6.084C34.3178 6.084 33.8758 6.22567 33.5132 6.509C33.1618 6.79233 32.9522 7.155 32.8842 7.597C33.4508 7.631 34.0458 7.648 34.6692 7.648ZM39.3885 6.016C39.2979 5.948 39.2242 5.88 39.1675 5.812C39.1109 5.73267 39.0825 5.59667 39.0825 5.404C39.0825 5.18867 39.1562 5.02433 39.3035 4.911C39.4622 4.78633 39.6435 4.724 39.8475 4.724C40.2442 4.724 40.5842 4.826 40.8675 5.03C41.1622 5.234 41.3775 5.51733 41.5135 5.88C41.7629 5.41533 42.0802 5.098 42.4655 4.928C42.8509 4.74667 43.3835 4.656 44.0635 4.656C44.3355 4.656 44.6132 4.741 44.8965 4.911C45.1912 5.06967 45.4575 5.268 45.6955 5.506C45.8882 5.75533 46.0525 6.067 46.1885 6.441C46.3245 6.80367 46.3925 7.13233 46.3925 7.427C46.3925 7.597 46.3812 7.87467 46.3585 8.26C46.3359 8.668 46.3245 8.991 46.3245 9.229C46.3245 10.0223 46.4775 10.5097 46.7835 10.691C46.8289 10.7137 46.9139 10.742 47.0385 10.776C47.1632 10.81 47.2539 10.844 47.3105 10.878C47.3785 10.912 47.4125 10.963 47.4125 11.031C47.4239 11.303 47.3219 11.5297 47.1065 11.711C46.9025 11.881 46.6532 11.966 46.3585 11.966C45.9165 11.966 45.5709 11.847 45.3215 11.609C45.0722 11.371 44.8965 11.0083 44.7945 10.521C44.7379 10.3397 44.7095 10.0733 44.7095 9.722C44.7095 9.52933 44.7209 9.21767 44.7435 8.787C44.7775 8.447 44.7945 8.08433 44.7945 7.699C44.7945 7.30233 44.6812 6.95667 44.4545 6.662C44.2279 6.356 43.9162 6.203 43.5195 6.203C43.2815 6.203 43.0322 6.27667 42.7715 6.424C42.5109 6.56 42.3295 6.73 42.2275 6.934C42.0575 7.28533 41.9442 7.64233 41.8875 8.005C41.7515 8.70767 41.6835 9.382 41.6835 10.028C41.6835 10.1867 41.6949 10.4927 41.7175 10.946C41.7175 10.98 41.7175 11.065 41.7175 11.201C41.7175 11.3257 41.7005 11.4447 41.6665 11.558C41.6439 11.6713 41.5985 11.7733 41.5305 11.864C41.4852 11.9093 41.4002 11.9547 41.2755 12C41.1509 12.0453 41.0432 12.068 40.9525 12.068C40.7939 12.068 40.5955 12 40.3575 11.864C40.1195 11.728 39.9779 11.575 39.9325 11.405L39.9155 11.167C39.9155 11.0763 39.9269 10.9403 39.9495 10.759C40.0855 9.96567 40.1535 9.27433 40.1535 8.685C40.1535 8.42433 40.1479 8.226 40.1365 8.09L40.1195 7.308C40.1195 7.07 40.0515 6.84333 39.9155 6.628C39.7795 6.40133 39.6039 6.19733 39.3885 6.016ZM60.3633 9.076C60.3633 9.60867 60.25 10.0393 60.0233 10.368C59.7967 10.6967 59.4057 11.0197 58.8503 11.337C58.4763 11.5637 58.0457 11.7393 57.5583 11.864C57.071 11.9773 56.578 12.034 56.0793 12.034C55.7733 12.034 55.4163 11.9773 55.0083 11.864C54.6117 11.7393 54.2887 11.6203 54.0393 11.507L53.7503 11.252C53.2403 10.8327 52.8833 10.4983 52.6793 10.249C52.4867 9.98833 52.3903 9.671 52.3903 9.297C52.3903 9.00233 52.4583 8.78133 52.5943 8.634C52.7303 8.48667 52.9513 8.413 53.2573 8.413C53.416 8.413 53.5633 8.464 53.6993 8.566C53.8353 8.668 53.9543 8.80967 54.0563 8.991C54.3397 9.48967 54.674 9.858 55.0593 10.096C55.456 10.3227 55.9207 10.436 56.4533 10.436C56.952 10.436 57.4563 10.283 57.9663 9.977C58.3857 9.71633 58.5953 9.46133 58.5953 9.212C58.5953 8.77 58.397 8.40167 58.0003 8.107C57.615 7.81233 57.0597 7.546 56.3343 7.308C55.8923 7.14933 55.2293 6.85467 54.3453 6.424C53.7447 6.12933 53.297 5.76667 53.0023 5.336C52.7077 4.90533 52.5603 4.452 52.5603 3.976C52.5603 3.54533 52.7077 3.126 53.0023 2.718C53.3083 2.29867 53.6767 1.987 54.1073 1.783C54.334 1.66967 54.6967 1.55067 55.1953 1.426C55.694 1.29 56.068 1.222 56.3173 1.222C56.782 1.222 57.1843 1.27867 57.5243 1.392C57.8643 1.494 58.1987 1.64133 58.5273 1.834C59.026 2.11733 59.3943 2.37233 59.6323 2.599C59.8703 2.82567 59.9893 3.109 59.9893 3.449C59.9893 3.653 59.91 3.83433 59.7513 3.993C59.604 4.15167 59.3433 4.231 58.9693 4.231C58.8787 4.231 58.788 4.19133 58.6973 4.112C58.6067 4.03267 58.4933 3.91367 58.3573 3.755C58.176 3.517 58.0003 3.35833 57.8303 3.279C57.785 3.26767 57.598 3.194 57.2693 3.058C56.952 2.922 56.5553 2.854 56.0793 2.854C55.626 2.854 55.2237 2.96167 54.8723 3.177C54.521 3.381 54.3453 3.68133 54.3453 4.078C54.3453 4.47467 54.7023 4.79767 55.4163 5.047C56.1757 5.34167 56.8047 5.59667 57.3033 5.812C57.8133 6.02733 58.3063 6.28233 58.7823 6.577C59.3263 6.90567 59.723 7.25133 59.9723 7.614C60.233 7.97667 60.3633 8.464 60.3633 9.076ZM68.6512 6.543C68.7419 6.70167 68.8156 6.934 68.8722 7.24C68.9289 7.53467 68.9572 7.801 68.9572 8.039C68.9572 8.35633 68.9062 8.753 68.8042 9.229C68.7022 9.69367 68.6172 10.0053 68.5492 10.164C67.9372 11.4333 66.7586 12.068 65.0132 12.068C64.4579 12.068 63.9139 11.8867 63.3812 11.524C62.8486 11.15 62.4689 10.7137 62.2422 10.215L62.1232 9.875C62.1119 9.82967 62.0496 9.65967 61.9362 9.365C61.8342 9.059 61.7832 8.82667 61.7832 8.668C61.7832 8.20333 61.8966 7.665 62.1232 7.053C62.3499 6.441 62.6106 5.95367 62.9052 5.591C63.0979 5.33033 63.4662 5.10933 64.0102 4.928C64.5542 4.73533 65.0359 4.639 65.4552 4.639C66.2372 4.639 66.8662 4.78633 67.3422 5.081C67.8296 5.37567 68.2659 5.863 68.6512 6.543ZM67.0872 9.28C67.1326 9.20067 67.1722 9.059 67.2062 8.855C67.2402 8.651 67.2572 8.413 67.2572 8.141C67.2572 7.81233 67.1949 7.48933 67.0702 7.172C66.9569 6.85467 66.7869 6.58267 66.5602 6.356C66.5489 6.33333 66.5092 6.29933 66.4412 6.254C66.3732 6.19733 66.2656 6.14633 66.1182 6.101C65.9709 6.04433 65.7839 6.016 65.5572 6.016C65.1152 6.016 64.7412 6.14633 64.4352 6.407C64.1292 6.66767 63.8969 6.99067 63.7382 7.376C63.5909 7.76133 63.5172 8.141 63.5172 8.515C63.5172 8.617 63.5512 8.82667 63.6192 9.144C63.6872 9.46133 63.7382 9.66533 63.7722 9.756C63.8629 9.91467 64.0386 10.1017 64.2992 10.317C64.5599 10.521 64.8546 10.623 65.1832 10.623C65.6932 10.623 66.0899 10.504 66.3732 10.266C66.6679 10.028 66.9059 9.69933 67.0872 9.28ZM72.4901 9.365C72.4901 9.79567 72.5524 10.13 72.6771 10.368C72.8131 10.5947 72.9831 10.708 73.1871 10.708C73.3004 10.708 73.4081 10.7023 73.5101 10.691C73.6121 10.6683 73.7141 10.657 73.8161 10.657C73.9294 10.657 74.0257 10.7137 74.1051 10.827C74.1957 10.9403 74.2411 11.065 74.2411 11.201C74.2411 11.473 74.1107 11.6883 73.8501 11.847C73.6007 11.9943 73.2607 12.068 72.8301 12.068C72.5241 12.068 72.2124 11.9773 71.8951 11.796C71.5891 11.6033 71.3341 11.3087 71.1301 10.912C70.9261 10.504 70.8241 9.99967 70.8241 9.399C70.8241 8.107 70.8467 7.01333 70.8921 6.118C70.9487 5.05267 70.9771 3.70967 70.9771 2.089C70.9771 1.579 71.0054 1.222 71.0621 1.018C71.1301 0.859333 71.2377 0.740333 71.3851 0.660999C71.5437 0.570333 71.7081 0.525 71.8781 0.525C72.0481 0.525 72.1954 0.553333 72.3201 0.61C72.4561 0.666666 72.5467 0.757333 72.5921 0.881999C72.6374 1.018 72.6657 1.154 72.6771 1.29C72.6997 1.41467 72.7111 1.596 72.7111 1.834C72.7111 2.29867 72.6941 2.74633 72.6601 3.177C72.6374 3.69833 72.6261 4.078 72.6261 4.316C72.5354 6.31067 72.4901 7.99367 72.4901 9.365ZM79.3445 7.631C79.3785 7.54033 79.4975 7.21167 79.7015 6.645C79.9168 6.07833 80.1152 5.64767 80.2965 5.353C80.5912 4.88833 80.8518 4.656 81.0785 4.656C81.3958 4.656 81.6395 4.71833 81.8095 4.843C81.9795 4.95633 82.0645 5.12067 82.0645 5.336C82.0645 5.438 82.0192 5.57967 81.9285 5.761C81.8492 5.94233 81.8038 6.05 81.7925 6.084C81.3392 7.08133 80.9312 8.15233 80.5685 9.297L80.2115 10.623C80.0755 11.0537 79.8432 11.405 79.5145 11.677C79.1858 11.9377 78.8005 12.068 78.3585 12.068C77.9618 12.068 77.5935 11.8867 77.2535 11.524C77.0495 11.2067 76.8342 10.8043 76.6075 10.317C76.3922 9.82967 76.2052 9.35367 76.0465 8.889L75.4515 7.104C75.3268 6.75267 75.2248 6.45233 75.1455 6.203C75.0775 5.95367 75.0435 5.727 75.0435 5.523C75.0322 5.285 75.1002 5.09233 75.2475 4.945C75.3948 4.79767 75.5988 4.724 75.8595 4.724C76.1542 4.724 76.3638 4.78633 76.4885 4.911C76.6132 5.02433 76.7265 5.20567 76.8285 5.455C76.8738 5.71567 76.9985 6.24833 77.2025 7.053L77.3215 7.529C77.4235 7.91433 77.5538 8.30533 77.7125 8.702C77.8712 9.09867 78.0298 9.47833 78.1885 9.841C78.1658 9.78433 78.2452 9.97133 78.4265 10.402C78.5398 10.0733 78.6702 9.671 78.8175 9.195L79.3445 7.631ZM83.1337 8.396C83.1337 7.96533 83.213 7.53467 83.3717 7.104C83.5303 6.662 83.74 6.25967 84.0007 5.897C84.2613 5.53433 84.675 5.23967 85.2417 5.013C85.8083 4.775 86.3127 4.656 86.7547 4.656C87.208 4.656 87.667 4.71833 88.1317 4.843C88.6077 4.96767 88.9363 5.16033 89.1177 5.421C89.537 6.01033 89.7467 6.58833 89.7467 7.155C89.7467 7.461 89.6787 7.72167 89.5427 7.937C89.418 8.15233 89.2367 8.38467 88.9987 8.634C88.806 8.838 88.5 8.974 88.0807 9.042C87.6727 9.11 87.2647 9.144 86.8567 9.144C86.596 9.144 86.2787 9.12133 85.9047 9.076C85.5307 9.01933 85.168 8.95133 84.8167 8.872C84.8393 9.09867 84.896 9.31967 84.9867 9.535C85.0773 9.75033 85.185 9.91467 85.3097 10.028C85.5363 10.2433 85.7687 10.3793 86.0067 10.436C86.256 10.4927 86.5733 10.521 86.9587 10.521C87.3667 10.521 87.7463 10.453 88.0977 10.317C88.381 10.215 88.6133 10.164 88.7947 10.164C89.01 10.164 89.1743 10.232 89.2877 10.368C89.401 10.4927 89.4577 10.657 89.4577 10.861C89.4577 11.1443 89.2933 11.3767 88.9647 11.558C88.636 11.7393 88.2563 11.8753 87.8257 11.966C87.4063 12.0453 87.0663 12.085 86.8057 12.085C86.273 12.085 85.7573 11.9887 85.2587 11.796C84.76 11.6033 84.3463 11.3313 84.0177 10.98C83.7457 10.6627 83.5303 10.283 83.3717 9.841C83.213 9.38767 83.1337 8.906 83.1337 8.396ZM86.8397 6.101C86.5903 6.101 86.341 6.152 86.0917 6.254C85.8423 6.34467 85.6383 6.475 85.4797 6.645C85.2757 6.86033 85.134 7.036 85.0547 7.172C84.9867 7.29667 84.9413 7.47233 84.9187 7.699C85.202 7.78967 85.7913 7.835 86.6867 7.835C87.174 7.835 87.548 7.76133 87.8087 7.614C88.0807 7.46667 88.2167 7.274 88.2167 7.036C88.2167 6.798 88.0693 6.58267 87.7747 6.39C87.48 6.19733 87.1683 6.101 86.8397 6.101ZM96.1312 8.328C96.2219 8.38467 96.3975 8.49233 96.6582 8.651C96.9302 8.79833 97.1115 8.974 97.2022 9.178C97.2929 9.382 97.3382 9.66533 97.3382 10.028C97.3382 10.436 97.2192 10.7987 96.9812 11.116C96.7432 11.422 96.4372 11.66 96.0632 11.83C95.8025 11.9433 95.5192 12.0113 95.2132 12.034C94.9185 12.0567 94.5615 12.068 94.1422 12.068C93.9155 12.068 93.6209 12.034 93.2582 11.966C92.9069 11.898 92.6632 11.8357 92.5272 11.779C92.1645 11.575 91.8585 11.337 91.6092 11.065C91.3599 10.793 91.2352 10.5153 91.2352 10.232C91.2352 10.0053 91.3089 9.824 91.4562 9.688C91.6035 9.552 91.7962 9.484 92.0342 9.484C92.1589 9.484 92.2779 9.518 92.3912 9.586C92.5159 9.64267 92.6009 9.71067 92.6462 9.79C92.7709 10.0847 92.9805 10.3057 93.2752 10.453C93.5699 10.6003 93.8702 10.674 94.1762 10.674C95.2529 10.674 95.7912 10.4813 95.7912 10.096C95.7912 9.994 95.7629 9.91467 95.7062 9.858C95.6609 9.79 95.5929 9.722 95.5022 9.654C95.3549 9.552 95.1452 9.44433 94.8732 9.331C94.6125 9.21767 94.3802 9.13267 94.1762 9.076C93.7115 8.974 93.2582 8.821 92.8162 8.617C92.4082 8.413 92.0739 8.14667 91.8132 7.818C91.5525 7.478 91.4222 7.06433 91.4222 6.577C91.4222 6.28233 91.5299 5.99333 91.7452 5.71C91.9719 5.41533 92.2325 5.19433 92.5272 5.047C92.7312 4.96767 93.0655 4.88267 93.5302 4.792C93.9949 4.70133 94.3122 4.656 94.4822 4.656C94.7429 4.656 95.0262 4.68433 95.3322 4.741C95.6382 4.78633 95.8705 4.86567 96.0292 4.979C96.3352 5.16033 96.5845 5.353 96.7772 5.557C96.9699 5.74967 97.0662 5.97067 97.0662 6.22C97.0662 6.34467 97.0379 6.48067 96.9812 6.628C96.9245 6.764 96.8565 6.849 96.7772 6.883C96.6072 6.96233 96.4089 7.002 96.1822 7.002C96.0802 7.002 95.9952 6.97367 95.9272 6.917C95.8705 6.86033 95.7912 6.76967 95.6892 6.645C95.5645 6.45233 95.4455 6.339 95.3322 6.305C95.1962 6.271 94.9979 6.23133 94.7372 6.186C94.4765 6.12933 94.3009 6.101 94.2102 6.101C93.9269 6.101 93.6549 6.15767 93.3942 6.271C93.1449 6.38433 93.0202 6.53733 93.0202 6.73C93.0202 6.95667 93.2072 7.14933 93.5812 7.308C93.8192 7.42133 94.0799 7.51767 94.3632 7.597C94.6579 7.67633 94.8392 7.72733 94.9072 7.75C95.0659 7.784 95.2699 7.86333 95.5192 7.988C95.7799 8.11267 95.9839 8.226 96.1312 8.328Z" fill="#646464"/>
</g>
<defs>
<filter id="filter0_d_10_2" x="0.809479" y="0.524994" width="100.529" height="19.56" filterUnits="userSpaceOnUse" color-interpolation-filters="sRGB">
<feFlood flood-opacity="0" result="BackgroundImageFix"/>
<feColorMatrix in="SourceAlpha" type="matrix" values="0 0 0 0 0 0 0 0 0 0 0 0 0 0 0 0 0 0 127 0" result="hardAlpha"/>
<feOffset dy="4"/>
<feGaussianBlur stdDeviation="2"/>
<feComposite in2="hardAlpha" operator="out"/>
<feColorMatrix type="matrix" values="0 0 0 0 0 0 0 0 0 0 0 0 0 0 0 0 0 0 0.25 0"/>
<feBlend mode="normal" in2="BackgroundImageFix" result="effect1_dropShadow_10_2"/>
<feBlend mode="normal" in="SourceGraphic" in2="effect1_dropShadow_10_2" result="shape"/>
</filter>
</defs>
</svg>
