<svg width="23" height="22" viewBox="0 0 23 22" fill="none" xmlns="http://www.w3.org/2000/svg">
<path d="M20.93 10.1933L17.6333 7.48V4.4C17.6333 3.96 17.3267 3.66667 16.8667 3.66667H15.3333C14.8733 3.66667 14.5667 3.96 14.5667 4.4V5.06L12.0367 3.00667C11.73 2.78667 11.27 2.78667 10.9633 3.00667L2.07 10.1933C1.68667 10.4867 1.91667 11 2.37667 11H3.83334V19.0667C3.83334 19.5067 4.14 19.8 4.6 19.8H9.2V15.4C9.2 14.1533 10.1967 13.2 11.5 13.2C12.8033 13.2 13.8 14.1533 13.8 15.4V19.8H18.4C18.86 19.8 19.1667 19.5067 19.1667 19.0667V11H20.6233C21.0833 11 21.3133 10.4867 20.93 10.1933Z" fill="#22577A"/>
</svg>
