<svg width="178" height="266" viewBox="0 0 178 266" fill="none" xmlns="http://www.w3.org/2000/svg">
<rect width="92.9525" height="97.7704" rx="10" transform="matrix(0.999989 -0.00476723 0.00484711 0.999988 27.4956 11.6171)" fill="#646464"/>
<path fill-rule="evenodd" clip-rule="evenodd" d="M50.8462 77.3599C54.148 82.6033 77.23 94.1927 91.8822 79.2774C100.554 70.4495 106.801 51.6915 96.7101 30.0358C61.2748 36.3807 52.2838 49.1005 50.8462 77.3599Z" fill="#7AC143"/>
<path fill-rule="evenodd" clip-rule="evenodd" d="M93.3218 46.5872C93.3218 46.5872 69.5523 74.3197 38.8126 80.2656L40.0804 82.6852C40.0804 82.6852 72.6284 79.7639 93.3218 46.5872Z" fill="#3F8640"/>
<path fill-rule="evenodd" clip-rule="evenodd" d="M64.8177 58.739C64.8016 58.7694 58.5636 71.3976 57.7325 75.5212L61.228 74.357C62.0136 70.4725 64.8017 58.7688 64.8177 58.739Z" fill="#3F8640"/>
<path fill-rule="evenodd" clip-rule="evenodd" d="M76.9081 54.9651C76.8926 54.9856 71.1947 63.8876 70.2249 66.8682L72.9095 66.2298C73.8239 63.4216 76.8927 54.9854 76.9081 54.9651Z" fill="#3F8640"/>
<path fill-rule="evenodd" clip-rule="evenodd" d="M86.0892 67.2947C86.0488 67.2964 70.3396 68.3382 65.792 69.5515L68.6493 71.5725C72.9336 70.429 86.0499 67.2965 86.0892 67.2947Z" fill="#3F8640"/>
<path fill-rule="evenodd" clip-rule="evenodd" d="M84.2823 51.2659C84.2754 51.2815 81.5353 57.8197 81.2495 59.927L82.9778 59.2572C83.2471 57.2718 84.2752 51.2817 84.2823 51.2659Z" fill="#3F8640"/>
<path fill-rule="evenodd" clip-rule="evenodd" d="M93.1441 58.6416C93.1186 58.6432 82.3834 59.3546 79.2764 60.1827L81.2284 61.564C84.157 60.7835 93.12 58.6424 93.1441 58.6416Z" fill="#3F8640"/>
<rect width="104.189" height="103.388" rx="10" transform="matrix(0.982537 0.186067 -0.189075 0.981963 32.959 0)" fill="#646464" fill-opacity="0.3"/>
<rect width="92.9525" height="97.7704" rx="10" transform="matrix(0.999989 -0.00476723 0.00484711 0.999988 27.4956 11.6171)" fill="#646464"/>
<path fill-rule="evenodd" clip-rule="evenodd" d="M50.8438 77.3599C54.1456 82.6033 77.2275 94.1927 91.8798 79.2774C100.551 70.4495 106.799 51.6915 96.7077 30.0358C61.2723 36.3807 52.2813 49.1005 50.8438 77.3599Z" fill="#7AC143"/>
<path fill-rule="evenodd" clip-rule="evenodd" d="M93.3193 46.5872C93.3193 46.5872 69.5498 74.3197 38.8102 80.2656L40.078 82.6852C40.078 82.6852 72.626 79.7639 93.3193 46.5872Z" fill="#3F8640"/>
<path fill-rule="evenodd" clip-rule="evenodd" d="M64.8152 58.739C64.7992 58.7694 58.5611 71.3976 57.7301 75.5212L61.2255 74.357C62.0111 70.4725 64.7992 58.7688 64.8152 58.739Z" fill="#3F8640"/>
<path fill-rule="evenodd" clip-rule="evenodd" d="M76.9056 54.9651C76.8902 54.9856 71.1923 63.8876 70.2224 66.8682L72.907 66.2298C73.8215 63.4216 76.8902 54.9854 76.9056 54.9651Z" fill="#3F8640"/>
<path fill-rule="evenodd" clip-rule="evenodd" d="M86.0868 67.2947C86.0464 67.2964 70.3371 68.3382 65.7895 69.5515L68.6469 71.5725C72.9311 70.429 86.0474 67.2965 86.0868 67.2947Z" fill="#3F8640"/>
<path fill-rule="evenodd" clip-rule="evenodd" d="M84.2799 51.2659C84.273 51.2815 81.5329 57.8197 81.247 59.927L82.9753 59.2572C83.2447 57.2718 84.2728 51.2817 84.2799 51.2659Z" fill="#3F8640"/>
<path fill-rule="evenodd" clip-rule="evenodd" d="M93.1417 58.6416C93.1162 58.6432 82.381 59.3546 79.2739 60.1827L81.2259 61.564C84.1546 60.7835 93.1175 58.6424 93.1417 58.6416Z" fill="#3F8640"/>
<path d="M26.55 144.859C25.1167 143.826 23.8833 143.076 22.85 142.609C21.8167 142.109 20.6167 141.859 19.25 141.859C16.5167 141.859 14.1667 142.559 12.2 143.959C10.7 145.059 9.58333 146.492 8.85 148.259C8.11667 150.026 7.75 152.009 7.75 154.209C7.75 156.309 8.23333 158.159 9.2 159.759C10.1667 161.326 11.4167 162.526 12.95 163.359C14.4833 164.192 16.0833 164.609 17.75 164.609C19.4167 164.609 20.85 164.359 22.05 163.859C23.2833 163.326 24.2667 162.642 25 161.809C26.1333 160.376 26.7 158.476 26.7 156.109C26.7 155.776 26.4333 155.542 25.9 155.409C25.3667 155.276 24.6 155.209 23.6 155.209L20 155.259C19.0333 155.259 18.2667 155.076 17.7 154.709C17.1333 154.342 16.85 153.876 16.85 153.309C16.85 152.509 17.1167 151.926 17.65 151.559C18.1833 151.159 18.9 150.959 19.8 150.959C20.8667 150.959 22.3 151.026 24.1 151.159C25.9 151.292 27.2 151.359 28 151.359C29.1667 151.359 30.1 151.726 30.8 152.459C31.5333 153.192 31.9 154.259 31.9 155.659C31.9 156.959 31.6167 158.476 31.05 160.209C30.4833 161.942 29.6833 163.492 28.65 164.859C27.65 166.192 26.1667 167.209 24.2 167.909C22.2667 168.576 20.1167 168.909 17.75 168.909C15.7833 168.909 13.8833 168.592 12.05 167.959C10.2167 167.326 8.68333 166.442 7.45 165.309C5.91667 163.876 4.7 162.176 3.8 160.209C2.93333 158.209 2.5 156.226 2.5 154.259C2.5 151.392 3.16667 148.609 4.5 145.909C5.86667 143.176 7.7 141.059 10 139.559C11 138.892 12.4 138.342 14.2 137.909C16 137.476 17.65 137.259 19.15 137.259C21.4833 137.259 23.5333 137.626 25.3 138.359C27.0667 139.059 28.4167 140.076 29.35 141.409C29.75 142.009 29.95 142.542 29.95 143.009C29.95 143.542 29.7167 144.042 29.25 144.509C28.7833 144.976 28.3167 145.209 27.85 145.209C27.65 145.209 27.4167 145.176 27.15 145.109C26.8833 145.042 26.6833 144.959 26.55 144.859ZM44.5715 166.909C44.5715 167.476 44.3548 167.976 43.9215 168.409C43.4882 168.842 42.9548 169.059 42.3215 169.059C41.3215 169.059 40.5882 168.876 40.1215 168.509C39.6548 168.109 39.4215 167.392 39.4215 166.359C39.4215 165.126 39.3882 163.509 39.3215 161.509C39.2548 159.842 39.2215 158.442 39.2215 157.309C39.2215 156.776 39.2548 156.076 39.3215 155.209C39.3882 154.409 39.4215 153.809 39.4215 153.409C39.3215 152.776 39.0715 152.259 38.6715 151.859C38.2715 151.426 37.7548 151.209 37.1215 151.209C36.8215 151.209 36.5715 151.076 36.3715 150.809C36.1715 150.509 36.0715 150.209 36.0715 149.909C36.0715 149.142 36.3715 148.559 36.9715 148.159C37.6048 147.759 38.3548 147.559 39.2215 147.559C41.0215 147.559 42.2715 148.626 42.9715 150.759C43.8382 149.759 44.8215 148.959 45.9215 148.359C47.0548 147.726 48.1382 147.409 49.1715 147.409C50.4048 147.409 51.5215 147.742 52.5215 148.409C53.5548 149.076 54.0715 149.976 54.0715 151.109C54.0715 151.742 53.7882 152.392 53.2215 153.059C52.6882 153.726 52.1382 154.059 51.5715 154.059C51.2715 154.059 51.0048 153.992 50.7715 153.859C50.5715 153.692 50.3215 153.459 50.0215 153.159C49.6882 152.826 49.4048 152.592 49.1715 152.459C48.9382 152.292 48.6715 152.209 48.3715 152.209C47.8382 152.209 47.3382 152.292 46.8715 152.459C46.4048 152.626 46.0882 152.826 45.9215 153.059C45.3882 153.892 44.9882 154.642 44.7215 155.309C44.4882 155.976 44.3715 156.692 44.3715 157.459C44.3715 158.026 44.3548 158.476 44.3215 158.809L44.2715 161.659C44.2715 162.092 44.2882 162.576 44.3215 163.109C44.3548 163.642 44.3882 164.042 44.4215 164.309C44.5215 165.209 44.5715 166.076 44.5715 166.909ZM56.6445 158.309C56.6445 157.042 56.8779 155.776 57.3445 154.509C57.8112 153.209 58.4279 152.026 59.1945 150.959C59.9612 149.892 61.1779 149.026 62.8445 148.359C64.5112 147.659 65.9945 147.309 67.2945 147.309C68.6279 147.309 69.9779 147.492 71.3445 147.859C72.7445 148.226 73.7112 148.792 74.2445 149.559C75.4779 151.292 76.0945 152.992 76.0945 154.659C76.0945 155.559 75.8945 156.326 75.4945 156.959C75.1279 157.592 74.5945 158.276 73.8945 159.009C73.3279 159.609 72.4279 160.009 71.1945 160.209C69.9945 160.409 68.7945 160.509 67.5945 160.509C66.8279 160.509 65.8945 160.442 64.7945 160.309C63.6945 160.142 62.6279 159.942 61.5945 159.709C61.6612 160.376 61.8279 161.026 62.0945 161.659C62.3612 162.292 62.6779 162.776 63.0445 163.109C63.7112 163.742 64.3945 164.142 65.0945 164.309C65.8279 164.476 66.7612 164.559 67.8945 164.559C69.0945 164.559 70.2112 164.359 71.2445 163.959C72.0779 163.659 72.7612 163.509 73.2945 163.509C73.9279 163.509 74.4112 163.709 74.7445 164.109C75.0779 164.476 75.2445 164.959 75.2445 165.559C75.2445 166.392 74.7612 167.076 73.7945 167.609C72.8279 168.142 71.7112 168.542 70.4445 168.809C69.2112 169.042 68.2112 169.159 67.4445 169.159C65.8779 169.159 64.3612 168.876 62.8945 168.309C61.4279 167.742 60.2112 166.942 59.2445 165.909C58.4445 164.976 57.8112 163.859 57.3445 162.559C56.8779 161.226 56.6445 159.809 56.6445 158.309ZM67.5445 151.559C66.8112 151.559 66.0779 151.709 65.3445 152.009C64.6112 152.276 64.0112 152.659 63.5445 153.159C62.9445 153.792 62.5279 154.309 62.2945 154.709C62.0945 155.076 61.9612 155.592 61.8945 156.259C62.7279 156.526 64.4612 156.659 67.0945 156.659C68.5279 156.659 69.6279 156.442 70.3945 156.009C71.1945 155.576 71.5945 155.009 71.5945 154.309C71.5945 153.609 71.1612 152.976 70.2945 152.409C69.4279 151.842 68.5112 151.559 67.5445 151.559ZM80.3727 157.459C80.3727 155.426 80.8227 153.742 81.7227 152.409C82.6227 151.042 83.8727 149.759 85.4727 148.559C85.9393 148.226 86.7227 147.942 87.8227 147.709C88.9227 147.442 89.8893 147.309 90.7227 147.309C91.7227 147.309 92.7727 147.526 93.8727 147.959C95.006 148.359 95.9227 148.826 96.6227 149.359C97.856 150.259 98.706 151.309 99.1727 152.509C99.6393 153.676 99.8727 155.076 99.8727 156.709C99.8727 157.409 99.4727 158.092 98.6727 158.759C97.906 159.392 97.0727 159.709 96.1727 159.709L94.2727 159.659C93.306 159.659 91.9227 159.692 90.1227 159.759L89.0727 159.809C88.3393 159.876 87.7893 159.909 87.4227 159.909C86.8893 159.909 86.156 159.842 85.2227 159.709C85.356 161.276 85.9393 162.509 86.9727 163.409C88.006 164.276 89.1227 164.709 90.3227 164.709C92.4227 164.709 93.8893 164.292 94.7227 163.459C95.4227 162.959 95.8893 162.642 96.1227 162.509C96.356 162.376 96.7227 162.309 97.2227 162.309C97.756 162.309 98.2227 162.559 98.6227 163.059C99.0227 163.559 99.2227 164.059 99.2227 164.559C99.2227 165.126 98.8727 165.709 98.1727 166.309C97.506 166.876 96.5893 167.476 95.4227 168.109C94.7893 168.376 93.9227 168.609 92.8227 168.809C91.7227 169.009 90.806 169.109 90.0727 169.109C88.906 169.109 87.606 168.776 86.1727 168.109C84.7393 167.409 83.6727 166.642 82.9727 165.809C82.2727 164.976 81.656 163.792 81.1227 162.259C80.6227 160.726 80.3727 159.126 80.3727 157.459ZM90.3227 156.109C92.6893 156.109 94.4227 156.026 95.5227 155.859C95.456 154.892 95.156 154.109 94.6227 153.509C94.0893 152.876 93.356 152.342 92.4227 151.909C92.1227 151.776 91.856 151.676 91.6227 151.609C91.3893 151.542 91.1227 151.509 90.8227 151.509C89.2893 151.509 87.9893 151.926 86.9227 152.759C85.8893 153.592 85.2727 154.659 85.0727 155.959C86.7393 156.059 88.4893 156.109 90.3227 156.109ZM104.203 151.309C103.936 151.109 103.72 150.909 103.553 150.709C103.386 150.476 103.303 150.076 103.303 149.509C103.303 148.876 103.52 148.392 103.953 148.059C104.42 147.692 104.953 147.509 105.553 147.509C106.72 147.509 107.72 147.809 108.553 148.409C109.42 149.009 110.053 149.842 110.453 150.909C111.186 149.542 112.12 148.609 113.253 148.109C114.386 147.576 115.953 147.309 117.953 147.309C118.753 147.309 119.57 147.559 120.403 148.059C121.27 148.526 122.053 149.109 122.753 149.809C123.32 150.542 123.803 151.459 124.203 152.559C124.603 153.626 124.803 154.592 124.803 155.459C124.803 155.959 124.77 156.776 124.703 157.909C124.636 159.109 124.603 160.059 124.603 160.759C124.603 163.092 125.053 164.526 125.953 165.059C126.086 165.126 126.336 165.209 126.703 165.309C127.07 165.409 127.336 165.509 127.503 165.609C127.703 165.709 127.803 165.859 127.803 166.059C127.836 166.859 127.536 167.526 126.903 168.059C126.303 168.559 125.57 168.809 124.703 168.809C123.403 168.809 122.386 168.459 121.653 167.759C120.92 167.059 120.403 165.992 120.103 164.559C119.936 164.026 119.853 163.242 119.853 162.209C119.853 161.642 119.886 160.726 119.953 159.459C120.053 158.459 120.103 157.392 120.103 156.259C120.103 155.092 119.77 154.076 119.103 153.209C118.436 152.309 117.52 151.859 116.353 151.859C115.653 151.859 114.92 152.076 114.153 152.509C113.386 152.909 112.853 153.409 112.553 154.009C112.053 155.042 111.72 156.092 111.553 157.159C111.153 159.226 110.953 161.209 110.953 163.109C110.953 163.576 110.986 164.476 111.053 165.809C111.053 165.909 111.053 166.159 111.053 166.559C111.053 166.926 111.003 167.276 110.903 167.609C110.836 167.942 110.703 168.242 110.503 168.509C110.37 168.642 110.12 168.776 109.753 168.909C109.386 169.042 109.07 169.109 108.803 169.109C108.336 169.109 107.753 168.909 107.053 168.509C106.353 168.109 105.936 167.659 105.803 167.159L105.753 166.459C105.753 166.192 105.786 165.792 105.853 165.259C106.253 162.926 106.453 160.892 106.453 159.159C106.453 158.392 106.436 157.809 106.403 157.409L106.353 155.109C106.353 154.409 106.153 153.742 105.753 153.109C105.353 152.442 104.836 151.842 104.203 151.309ZM26.05 220.309C26.05 221.876 25.7167 223.142 25.05 224.109C24.3833 225.076 23.2333 226.026 21.6 226.959C20.5 227.626 19.2333 228.142 17.8 228.509C16.3667 228.842 14.9167 229.009 13.45 229.009C12.55 229.009 11.5 228.842 10.3 228.509C9.13333 228.142 8.18333 227.792 7.45 227.459L6.6 226.709C5.1 225.476 4.05 224.492 3.45 223.759C2.88333 222.992 2.6 222.059 2.6 220.959C2.6 220.092 2.8 219.442 3.2 219.009C3.6 218.576 4.25 218.359 5.15 218.359C5.61667 218.359 6.05 218.509 6.45 218.809C6.85 219.109 7.2 219.526 7.5 220.059C8.33333 221.526 9.31667 222.609 10.45 223.309C11.6167 223.976 12.9833 224.309 14.55 224.309C16.0167 224.309 17.5 223.859 19 222.959C20.2333 222.192 20.85 221.442 20.85 220.709C20.85 219.409 20.2667 218.326 19.1 217.459C17.9667 216.592 16.3333 215.809 14.2 215.109C12.9 214.642 10.95 213.776 8.35 212.509C6.58333 211.642 5.26667 210.576 4.4 209.309C3.53333 208.042 3.1 206.709 3.1 205.309C3.1 204.042 3.53333 202.809 4.4 201.609C5.3 200.376 6.38333 199.459 7.65 198.859C8.31667 198.526 9.38333 198.176 10.85 197.809C12.3167 197.409 13.4167 197.209 14.15 197.209C15.5167 197.209 16.7 197.376 17.7 197.709C18.7 198.009 19.6833 198.442 20.65 199.009C22.1167 199.842 23.2 200.592 23.9 201.259C24.6 201.926 24.95 202.759 24.95 203.759C24.95 204.359 24.7167 204.892 24.25 205.359C23.8167 205.826 23.05 206.059 21.95 206.059C21.6833 206.059 21.4167 205.942 21.15 205.709C20.8833 205.476 20.55 205.126 20.15 204.659C19.6167 203.959 19.1 203.492 18.6 203.259C18.4667 203.226 17.9167 203.009 16.95 202.609C16.0167 202.209 14.85 202.009 13.45 202.009C12.1167 202.009 10.9333 202.326 9.9 202.959C8.86667 203.559 8.35 204.442 8.35 205.609C8.35 206.776 9.4 207.726 11.5 208.459C13.7333 209.326 15.5833 210.076 17.05 210.709C18.55 211.342 20 212.092 21.4 212.959C23 213.926 24.1667 214.942 24.9 216.009C25.6667 217.076 26.05 218.509 26.05 220.309ZM50.4262 212.859C50.6928 213.326 50.9095 214.009 51.0762 214.909C51.2428 215.776 51.3262 216.559 51.3262 217.259C51.3262 218.192 51.1762 219.359 50.8762 220.759C50.5762 222.126 50.3262 223.042 50.1262 223.509C48.3262 227.242 44.8595 229.109 39.7262 229.109C38.0928 229.109 36.4928 228.576 34.9262 227.509C33.3595 226.409 32.2428 225.126 31.5762 223.659L31.2262 222.659C31.1928 222.526 31.0095 222.026 30.6762 221.159C30.3762 220.259 30.2262 219.576 30.2262 219.109C30.2262 217.742 30.5595 216.159 31.2262 214.359C31.8928 212.559 32.6595 211.126 33.5262 210.059C34.0928 209.292 35.1762 208.642 36.7762 208.109C38.3762 207.542 39.7928 207.259 41.0262 207.259C43.3262 207.259 45.1762 207.692 46.5762 208.559C48.0095 209.426 49.2928 210.859 50.4262 212.859ZM45.8262 220.909C45.9595 220.676 46.0762 220.259 46.1762 219.659C46.2762 219.059 46.3262 218.359 46.3262 217.559C46.3262 216.592 46.1428 215.642 45.7762 214.709C45.4428 213.776 44.9428 212.976 44.2762 212.309C44.2428 212.242 44.1262 212.142 43.9262 212.009C43.7262 211.842 43.4095 211.692 42.9762 211.559C42.5428 211.392 41.9928 211.309 41.3262 211.309C40.0262 211.309 38.9262 211.692 38.0262 212.459C37.1262 213.226 36.4428 214.176 35.9762 215.309C35.5428 216.442 35.3262 217.559 35.3262 218.659C35.3262 218.959 35.4262 219.576 35.6262 220.509C35.8262 221.442 35.9762 222.042 36.0762 222.309C36.3428 222.776 36.8595 223.326 37.6262 223.959C38.3928 224.559 39.2595 224.859 40.2262 224.859C41.7262 224.859 42.8928 224.509 43.7262 223.809C44.5928 223.109 45.2928 222.142 45.8262 220.909ZM61.7168 221.159C61.7168 222.426 61.9001 223.409 62.2668 224.109C62.6668 224.776 63.1668 225.109 63.7668 225.109C64.1001 225.109 64.4168 225.092 64.7168 225.059C65.0168 224.992 65.3168 224.959 65.6168 224.959C65.9501 224.959 66.2335 225.126 66.4668 225.459C66.7335 225.792 66.8668 226.159 66.8668 226.559C66.8668 227.359 66.4835 227.992 65.7168 228.459C64.9835 228.892 63.9835 229.109 62.7168 229.109C61.8168 229.109 60.9001 228.842 59.9668 228.309C59.0668 227.742 58.3168 226.876 57.7168 225.709C57.1168 224.509 56.8168 223.026 56.8168 221.259C56.8168 217.459 56.8835 214.242 57.0168 211.609C57.1835 208.476 57.2668 204.526 57.2668 199.759C57.2668 198.259 57.3501 197.209 57.5168 196.609C57.7168 196.142 58.0335 195.792 58.4668 195.559C58.9335 195.292 59.4168 195.159 59.9168 195.159C60.4168 195.159 60.8501 195.242 61.2168 195.409C61.6168 195.576 61.8835 195.842 62.0168 196.209C62.1501 196.609 62.2335 197.009 62.2668 197.409C62.3335 197.776 62.3668 198.309 62.3668 199.009C62.3668 200.376 62.3168 201.692 62.2168 202.959C62.1501 204.492 62.1168 205.609 62.1168 206.309C61.8501 212.176 61.7168 217.126 61.7168 221.159ZM81.877 216.059C81.977 215.792 82.327 214.826 82.927 213.159C83.5603 211.492 84.1436 210.226 84.677 209.359C85.5436 207.992 86.3103 207.309 86.977 207.309C87.9103 207.309 88.627 207.492 89.127 207.859C89.627 208.192 89.877 208.676 89.877 209.309C89.877 209.609 89.7436 210.026 89.477 210.559C89.2436 211.092 89.1103 211.409 89.077 211.509C87.7436 214.442 86.5436 217.592 85.477 220.959L84.427 224.859C84.027 226.126 83.3436 227.159 82.377 227.959C81.4103 228.726 80.277 229.109 78.977 229.109C77.8103 229.109 76.727 228.576 75.727 227.509C75.127 226.576 74.4936 225.392 73.827 223.959C73.1936 222.526 72.6436 221.126 72.177 219.759L70.427 214.509C70.0603 213.476 69.7603 212.592 69.527 211.859C69.327 211.126 69.227 210.459 69.227 209.859C69.1936 209.159 69.3936 208.592 69.827 208.159C70.2603 207.726 70.8603 207.509 71.627 207.509C72.4936 207.509 73.1103 207.692 73.477 208.059C73.8436 208.392 74.177 208.926 74.477 209.659C74.6103 210.426 74.977 211.992 75.577 214.359L75.927 215.759C76.227 216.892 76.6103 218.042 77.077 219.209C77.5436 220.376 78.0103 221.492 78.477 222.559C78.4103 222.392 78.6436 222.942 79.177 224.209C79.5103 223.242 79.8936 222.059 80.327 220.659L81.877 216.059ZM93.0215 218.309C93.0215 217.042 93.2548 215.776 93.7215 214.509C94.1882 213.209 94.8048 212.026 95.5715 210.959C96.3382 209.892 97.5548 209.026 99.2215 208.359C100.888 207.659 102.371 207.309 103.671 207.309C105.005 207.309 106.355 207.492 107.721 207.859C109.121 208.226 110.088 208.792 110.621 209.559C111.855 211.292 112.471 212.992 112.471 214.659C112.471 215.559 112.271 216.326 111.871 216.959C111.505 217.592 110.971 218.276 110.271 219.009C109.705 219.609 108.805 220.009 107.571 220.209C106.371 220.409 105.171 220.509 103.971 220.509C103.205 220.509 102.271 220.442 101.171 220.309C100.071 220.142 99.0048 219.942 97.9715 219.709C98.0382 220.376 98.2048 221.026 98.4715 221.659C98.7382 222.292 99.0548 222.776 99.4215 223.109C100.088 223.742 100.771 224.142 101.471 224.309C102.205 224.476 103.138 224.559 104.271 224.559C105.471 224.559 106.588 224.359 107.621 223.959C108.455 223.659 109.138 223.509 109.671 223.509C110.305 223.509 110.788 223.709 111.121 224.109C111.455 224.476 111.621 224.959 111.621 225.559C111.621 226.392 111.138 227.076 110.171 227.609C109.205 228.142 108.088 228.542 106.821 228.809C105.588 229.042 104.588 229.159 103.821 229.159C102.255 229.159 100.738 228.876 99.2715 228.309C97.8048 227.742 96.5882 226.942 95.6215 225.909C94.8215 224.976 94.1882 223.859 93.7215 222.559C93.2548 221.226 93.0215 219.809 93.0215 218.309ZM103.921 211.559C103.188 211.559 102.455 211.709 101.721 212.009C100.988 212.276 100.388 212.659 99.9215 213.159C99.3215 213.792 98.9048 214.309 98.6715 214.709C98.4715 215.076 98.3382 215.592 98.2715 216.259C99.1048 216.526 100.838 216.659 103.471 216.659C104.905 216.659 106.005 216.442 106.771 216.009C107.571 215.576 107.971 215.009 107.971 214.309C107.971 213.609 107.538 212.976 106.671 212.409C105.805 211.842 104.888 211.559 103.921 211.559ZM131.25 218.109C131.516 218.276 132.033 218.592 132.8 219.059C133.6 219.492 134.133 220.009 134.4 220.609C134.666 221.209 134.8 222.042 134.8 223.109C134.8 224.309 134.45 225.376 133.75 226.309C133.05 227.209 132.15 227.909 131.05 228.409C130.283 228.742 129.45 228.942 128.55 229.009C127.683 229.076 126.633 229.109 125.4 229.109C124.733 229.109 123.866 229.009 122.8 228.809C121.766 228.609 121.05 228.426 120.65 228.259C119.583 227.659 118.683 226.959 117.95 226.159C117.216 225.359 116.85 224.542 116.85 223.709C116.85 223.042 117.066 222.509 117.5 222.109C117.933 221.709 118.5 221.509 119.2 221.509C119.566 221.509 119.916 221.609 120.25 221.809C120.616 221.976 120.866 222.176 121 222.409C121.366 223.276 121.983 223.926 122.85 224.359C123.716 224.792 124.6 225.009 125.5 225.009C128.666 225.009 130.25 224.442 130.25 223.309C130.25 223.009 130.166 222.776 130 222.609C129.866 222.409 129.666 222.209 129.4 222.009C128.966 221.709 128.35 221.392 127.55 221.059C126.783 220.726 126.1 220.476 125.5 220.309C124.133 220.009 122.8 219.559 121.5 218.959C120.3 218.359 119.316 217.576 118.55 216.609C117.783 215.609 117.4 214.392 117.4 212.959C117.4 212.092 117.716 211.242 118.35 210.409C119.016 209.542 119.783 208.892 120.65 208.459C121.25 208.226 122.233 207.976 123.6 207.709C124.966 207.442 125.9 207.309 126.4 207.309C127.166 207.309 128 207.392 128.9 207.559C129.8 207.692 130.483 207.926 130.95 208.259C131.85 208.792 132.583 209.359 133.15 209.959C133.716 210.526 134 211.176 134 211.909C134 212.276 133.916 212.676 133.75 213.109C133.583 213.509 133.383 213.759 133.15 213.859C132.65 214.092 132.066 214.209 131.4 214.209C131.1 214.209 130.85 214.126 130.65 213.959C130.483 213.792 130.25 213.526 129.95 213.159C129.583 212.592 129.233 212.259 128.9 212.159C128.5 212.059 127.916 211.942 127.15 211.809C126.383 211.642 125.866 211.559 125.6 211.559C124.766 211.559 123.966 211.726 123.2 212.059C122.466 212.392 122.1 212.842 122.1 213.409C122.1 214.076 122.65 214.642 123.75 215.109C124.45 215.442 125.216 215.726 126.05 215.959C126.916 216.192 127.45 216.342 127.65 216.409C128.116 216.509 128.716 216.742 129.45 217.109C130.216 217.476 130.816 217.809 131.25 218.109Z" fill="#646464"/>
</svg>
