<svg width="108" height="65" viewBox="0 0 108 65" fill="none" xmlns="http://www.w3.org/2000/svg">
<g clip-path="url(#clip0_19_673)">
<path d="M38.7688 5.9801L20.769 6.07242C13.1221 6.11164 6.95283 12.7573 6.98959 20.916L7.08943 43.0748C7.12619 51.2335 13.3551 57.8156 21.002 57.7764L39.0018 57.684C46.6487 57.6448 52.818 50.9991 52.7812 42.8405L52.6814 20.6816C52.6446 12.523 46.4158 5.94088 38.7688 5.9801Z" fill="#646464"/>
<path d="M46.3302 7.48128L23.2095 2.77084C15.6982 1.24055 8.44637 6.49659 7.01206 14.5105L2.59707 39.1785C1.16276 47.1924 6.08914 54.9296 13.6004 56.4599L36.7211 61.1703C44.2324 62.7006 51.4843 57.4445 52.9186 49.4306L57.3336 24.7627C58.7679 16.7487 53.8415 9.01157 46.3302 7.48128Z" fill="#646464" fill-opacity="0.3"/>
<path fill-rule="evenodd" clip-rule="evenodd" d="M18.4007 40.9109C20.0238 43.6837 31.37 49.8126 38.5726 41.9249C42.8352 37.2564 45.9061 27.3365 40.9458 15.8841C23.527 19.2396 19.1074 25.9662 18.4007 40.9109Z" fill="#7AC143"/>
<path fill-rule="evenodd" clip-rule="evenodd" d="M39.2803 24.6371C39.2803 24.6371 27.5959 39.303 12.4854 42.4475L13.1086 43.727C13.1086 43.727 29.1081 42.1822 39.2803 24.6371Z" fill="#3F8640"/>
<path fill-rule="evenodd" clip-rule="evenodd" d="M25.2687 31.0634C25.2608 31.0795 22.1943 37.7578 21.7858 39.9384L23.504 39.3228C23.8903 37.2685 25.2608 31.0792 25.2687 31.0634Z" fill="#3F8640"/>
<path fill-rule="evenodd" clip-rule="evenodd" d="M31.2119 29.0676C31.2042 29.0785 28.4033 33.7861 27.9266 35.3624L29.2463 35.0248C29.6958 33.5397 31.2042 29.0783 31.2119 29.0676Z" fill="#3F8640"/>
<path fill-rule="evenodd" clip-rule="evenodd" d="M35.725 35.5879C35.7051 35.5888 27.9829 36.1399 25.7475 36.7814L27.152 37.8502C29.258 37.2456 35.7056 35.5888 35.725 35.5879Z" fill="#3F8640"/>
<path fill-rule="evenodd" clip-rule="evenodd" d="M34.8368 27.1114C34.8333 27.1196 33.4864 30.5773 33.3458 31.6916L34.1954 31.3375C34.3279 30.2875 34.8332 27.1198 34.8368 27.1114Z" fill="#3F8640"/>
<path fill-rule="evenodd" clip-rule="evenodd" d="M39.1929 31.0119C39.1803 31.0127 33.9033 31.3889 32.376 31.8268L33.3356 32.5573C34.7752 32.1446 39.181 31.0122 39.1929 31.0119Z" fill="#3F8640"/>
<path d="M71.1305 16.5868C70.6542 16.2205 70.2443 15.9545 69.9009 15.7891C69.5575 15.6118 69.1588 15.5232 68.7046 15.5232C67.7963 15.5232 67.0154 15.7714 66.3618 16.2677C65.8634 16.6577 65.4923 17.1659 65.2486 17.7923C65.0049 18.4186 64.8831 19.1218 64.8831 19.9018C64.8831 20.6464 65.0437 21.3023 65.3649 21.8695C65.6862 22.425 66.1015 22.8505 66.6111 23.1459C67.1206 23.4414 67.6523 23.5891 68.2062 23.5891C68.76 23.5891 69.2363 23.5005 69.6351 23.3232C70.0449 23.1341 70.3717 22.8918 70.6154 22.5964C70.992 22.0882 71.1803 21.4145 71.1803 20.5755C71.1803 20.4573 71.0917 20.3745 70.9145 20.3273C70.7372 20.28 70.4825 20.2564 70.1502 20.2564L68.9538 20.2741C68.6326 20.2741 68.3778 20.2091 68.1895 20.0791C68.0012 19.9491 67.9071 19.7836 67.9071 19.5827C67.9071 19.2991 67.9957 19.0923 68.1729 18.9623C68.3502 18.8205 68.5883 18.7495 68.8874 18.7495C69.2418 18.7495 69.7182 18.7732 70.3163 18.8205C70.9145 18.8677 71.3465 18.8914 71.6123 18.8914C72 18.8914 72.3102 19.0214 72.5428 19.2814C72.7865 19.5414 72.9083 19.9195 72.9083 20.4159C72.9083 20.8768 72.8142 21.4145 72.6258 22.0291C72.4375 22.6436 72.1717 23.1932 71.8283 23.6777C71.496 24.1505 71.0031 24.5109 70.3495 24.7591C69.7071 24.9955 68.9926 25.1136 68.2062 25.1136C67.5526 25.1136 66.9212 25.0014 66.312 24.7768C65.7028 24.5523 65.1932 24.2391 64.7834 23.8373C64.2738 23.3291 63.8695 22.7264 63.5705 22.0291C63.2825 21.32 63.1385 20.6168 63.1385 19.9195C63.1385 18.9032 63.36 17.9164 63.8031 16.9591C64.2572 15.99 64.8665 15.2395 65.6308 14.7077C65.9631 14.4714 66.4283 14.2764 67.0265 14.1227C67.6246 13.9691 68.1729 13.8923 68.6714 13.8923C69.4468 13.8923 70.128 14.0223 70.7151 14.2823C71.3022 14.5305 71.7508 14.8909 72.0609 15.3636C72.1938 15.5764 72.2603 15.7655 72.2603 15.9309C72.2603 16.12 72.1828 16.2973 72.0277 16.4627C71.8726 16.6282 71.7175 16.7109 71.5625 16.7109C71.496 16.7109 71.4185 16.6991 71.3298 16.6755C71.2412 16.6518 71.1748 16.6223 71.1305 16.5868ZM77.1192 24.4045C77.1192 24.6055 77.0472 24.7827 76.9032 24.9364C76.7592 25.09 76.582 25.1668 76.3715 25.1668C76.0392 25.1668 75.7955 25.1018 75.6404 24.9718C75.4854 24.83 75.4078 24.5759 75.4078 24.2095C75.4078 23.7723 75.3967 23.1991 75.3746 22.49C75.3524 21.8991 75.3414 21.4027 75.3414 21.0009C75.3414 20.8118 75.3524 20.5636 75.3746 20.2564C75.3967 19.9727 75.4078 19.76 75.4078 19.6182C75.3746 19.3936 75.2915 19.2105 75.1586 19.0686C75.0257 18.915 74.854 18.8382 74.6435 18.8382C74.5438 18.8382 74.4607 18.7909 74.3943 18.6964C74.3278 18.59 74.2946 18.4836 74.2946 18.3773C74.2946 18.1055 74.3943 17.8986 74.5937 17.7568C74.8041 17.615 75.0534 17.5441 75.3414 17.5441C75.9395 17.5441 76.3549 17.9223 76.5875 18.6786C76.8755 18.3241 77.2023 18.0405 77.5678 17.8277C77.9444 17.6032 78.3044 17.4909 78.6478 17.4909C79.0577 17.4909 79.4287 17.6091 79.761 17.8455C80.1044 18.0818 80.2761 18.4009 80.2761 18.8027C80.2761 19.0273 80.182 19.2577 79.9937 19.4941C79.8164 19.7305 79.6337 19.8486 79.4454 19.8486C79.3457 19.8486 79.257 19.825 79.1795 19.7777C79.113 19.7186 79.03 19.6359 78.9303 19.5295C78.8195 19.4114 78.7254 19.3286 78.6478 19.2814C78.5703 19.2223 78.4817 19.1927 78.382 19.1927C78.2047 19.1927 78.0386 19.2223 77.8835 19.2814C77.7284 19.3405 77.6232 19.4114 77.5678 19.4941C77.3906 19.7895 77.2577 20.0555 77.169 20.2918C77.0915 20.5282 77.0527 20.7823 77.0527 21.0541C77.0527 21.255 77.0472 21.4145 77.0361 21.5327L77.0195 22.5432C77.0195 22.6968 77.025 22.8682 77.0361 23.0573C77.0472 23.2464 77.0583 23.3882 77.0694 23.4827C77.1026 23.8018 77.1192 24.1091 77.1192 24.4045ZM81.1311 21.3555C81.1311 20.9064 81.2087 20.4573 81.3637 20.0082C81.5188 19.5473 81.7237 19.1277 81.9785 18.7495C82.2333 18.3714 82.6376 18.0641 83.1914 17.8277C83.7453 17.5795 84.2382 17.4555 84.6702 17.4555C85.1133 17.4555 85.5619 17.5205 86.016 17.6505C86.4813 17.7805 86.8025 17.9814 86.9797 18.2532C87.3896 18.8677 87.5945 19.4705 87.5945 20.0614C87.5945 20.3805 87.528 20.6523 87.3951 20.8768C87.2733 21.1014 87.096 21.3436 86.8634 21.6036C86.6751 21.8164 86.376 21.9582 85.9662 22.0291C85.5674 22.1 85.1687 22.1355 84.7699 22.1355C84.5151 22.1355 84.205 22.1118 83.8394 22.0645C83.4739 22.0055 83.1194 21.9345 82.776 21.8518C82.7982 22.0882 82.8536 22.3186 82.9422 22.5432C83.0308 22.7677 83.136 22.9391 83.2579 23.0573C83.4794 23.2818 83.7065 23.4236 83.9391 23.4827C84.1828 23.5418 84.493 23.5714 84.8696 23.5714C85.2684 23.5714 85.6394 23.5005 85.9828 23.3586C86.2597 23.2523 86.4868 23.1991 86.664 23.1991C86.8745 23.1991 87.0351 23.27 87.1459 23.4118C87.2567 23.5418 87.312 23.7132 87.312 23.9259C87.312 24.2214 87.1514 24.4636 86.8302 24.6527C86.509 24.8418 86.1379 24.9836 85.717 25.0782C85.3071 25.1609 84.9748 25.2023 84.72 25.2023C84.1994 25.2023 83.6954 25.1018 83.208 24.9009C82.7207 24.7 82.3164 24.4164 81.9951 24.05C81.7293 23.7191 81.5188 23.3232 81.3637 22.8623C81.2087 22.3895 81.1311 21.8873 81.1311 21.3555ZM84.7533 18.9623C84.5096 18.9623 84.2659 19.0155 84.0222 19.1218C83.7785 19.2164 83.5791 19.3523 83.424 19.5295C83.2247 19.7541 83.0862 19.9373 83.0087 20.0791C82.9422 20.2091 82.8979 20.3923 82.8757 20.6286C83.1527 20.7232 83.7287 20.7705 84.6037 20.7705C85.08 20.7705 85.4456 20.6936 85.7004 20.54C85.9662 20.3864 86.0991 20.1855 86.0991 19.9373C86.0991 19.6891 85.9551 19.4645 85.6671 19.2636C85.3791 19.0627 85.0745 18.9623 84.7533 18.9623ZM89.0161 21.0541C89.0161 20.3332 89.1656 19.7364 89.4647 19.2636C89.7638 18.7791 90.1792 18.3241 90.7109 17.8986C90.8659 17.7805 91.1262 17.68 91.4918 17.5973C91.8573 17.5027 92.1786 17.4555 92.4555 17.4555C92.7878 17.4555 93.1367 17.5323 93.5023 17.6859C93.8789 17.8277 94.1835 17.9932 94.4161 18.1823C94.8259 18.5014 95.1084 18.8736 95.2635 19.2991C95.4186 19.7127 95.4961 20.2091 95.4961 20.7882C95.4961 21.0364 95.3632 21.2786 95.0973 21.515C94.8425 21.7395 94.5656 21.8518 94.2666 21.8518L93.6352 21.8341C93.3139 21.8341 92.8542 21.8459 92.2561 21.8695L91.9072 21.8873C91.6635 21.9109 91.4807 21.9227 91.3589 21.9227C91.1816 21.9227 90.9379 21.8991 90.6278 21.8518C90.6721 22.4073 90.8659 22.8445 91.2093 23.1636C91.5527 23.4709 91.9238 23.6245 92.3226 23.6245C93.0204 23.6245 93.5078 23.4768 93.7847 23.1814C94.0173 23.0041 94.1724 22.8918 94.2499 22.8445C94.3275 22.7973 94.4493 22.7736 94.6155 22.7736C94.7927 22.7736 94.9478 22.8623 95.0807 23.0395C95.2136 23.2168 95.2801 23.3941 95.2801 23.5714C95.2801 23.7723 95.1638 23.9791 94.9312 24.1918C94.7096 24.3927 94.405 24.6055 94.0173 24.83C93.8069 24.9245 93.5189 25.0073 93.1533 25.0782C92.7878 25.1491 92.4832 25.1845 92.2395 25.1845C91.8518 25.1845 91.4198 25.0664 90.9435 24.83C90.4672 24.5818 90.1127 24.31 89.8801 24.0145C89.6475 23.7191 89.4426 23.2995 89.2653 22.7559C89.0992 22.2123 89.0161 21.645 89.0161 21.0541ZM92.3226 20.5755C93.109 20.5755 93.685 20.5459 94.0506 20.4868C94.0284 20.1441 93.9287 19.8664 93.7515 19.6536C93.5742 19.4291 93.3305 19.24 93.0204 19.0864C92.9207 19.0391 92.8321 19.0036 92.7546 18.98C92.677 18.9564 92.5884 18.9445 92.4887 18.9445C91.9792 18.9445 91.5472 19.0923 91.1927 19.3877C90.8493 19.6832 90.6444 20.0614 90.5779 20.5223C91.1318 20.5577 91.7133 20.5755 92.3226 20.5755ZM96.9353 18.8736C96.8466 18.8027 96.7746 18.7318 96.7193 18.6609C96.6639 18.5782 96.6362 18.4364 96.6362 18.2355C96.6362 18.0109 96.7082 17.8395 96.8522 17.7214C97.0073 17.5914 97.1845 17.5264 97.3839 17.5264C97.7716 17.5264 98.1039 17.6327 98.3807 17.8455C98.6688 18.0582 98.8793 18.3536 99.0122 18.7318C99.2559 18.2473 99.566 17.9164 99.9426 17.7391C100.319 17.55 100.84 17.4555 101.504 17.4555C101.77 17.4555 102.042 17.5441 102.319 17.7214C102.607 17.8868 102.867 18.0936 103.1 18.3418C103.288 18.6018 103.448 18.9268 103.581 19.3168C103.714 19.695 103.781 20.0377 103.781 20.345C103.781 20.5223 103.77 20.8118 103.748 21.2136C103.725 21.6391 103.714 21.9759 103.714 22.2241C103.714 23.0514 103.864 23.5595 104.163 23.7486C104.207 23.7723 104.29 23.8018 104.412 23.8373C104.534 23.8727 104.623 23.9082 104.678 23.9436C104.744 23.9791 104.778 24.0323 104.778 24.1032C104.789 24.3868 104.689 24.6232 104.479 24.8123C104.279 24.9895 104.036 25.0782 103.748 25.0782C103.316 25.0782 102.978 24.9541 102.734 24.7059C102.49 24.4577 102.319 24.0795 102.219 23.5714C102.164 23.3823 102.136 23.1045 102.136 22.7382C102.136 22.5373 102.147 22.2123 102.169 21.7632C102.202 21.4086 102.219 21.0305 102.219 20.6286C102.219 20.215 102.108 19.8545 101.887 19.5473C101.665 19.2282 101.36 19.0686 100.973 19.0686C100.74 19.0686 100.496 19.1455 100.242 19.2991C99.9869 19.4409 99.8097 19.6182 99.71 19.8309C99.5439 20.1973 99.4331 20.5695 99.3777 20.9477C99.2448 21.6805 99.1783 22.3836 99.1783 23.0573C99.1783 23.2227 99.1894 23.5418 99.2116 24.0145C99.2116 24.05 99.2116 24.1386 99.2116 24.2805C99.2116 24.4105 99.195 24.5345 99.1617 24.6527C99.1396 24.7709 99.0953 24.8773 99.0288 24.9718C98.9845 25.0191 98.9014 25.0664 98.7796 25.1136C98.6577 25.1609 98.5525 25.1845 98.4639 25.1845C98.3088 25.1845 98.115 25.1136 97.8823 24.9718C97.6497 24.83 97.5113 24.6705 97.467 24.4932L97.4503 24.245C97.4503 24.1505 97.4614 24.0086 97.4836 23.8195C97.6165 22.9923 97.683 22.2714 97.683 21.6568C97.683 21.385 97.6774 21.1782 97.6663 21.0364L97.6497 20.2209C97.6497 19.9727 97.5833 19.7364 97.4503 19.5118C97.3174 19.2755 97.1457 19.0627 96.9353 18.8736Z" fill="#646464"/>
<path d="M64.4885 48.75C64.8669 48.8386 65.1808 49.0134 65.43 49.2744C65.6792 49.5355 65.8038 49.8383 65.8038 50.183C65.8038 50.3898 65.7577 50.5917 65.6654 50.7886C65.5176 51.1037 65.2961 51.3401 65.0008 51.4977C64.71 51.6554 64.3731 51.7341 63.99 51.7341C63.75 51.7341 63.5354 51.6873 63.3462 51.5937C63.1569 51.4952 62.97 51.3648 62.7854 51.2023C62.7162 51.1333 62.6538 51.0349 62.5985 50.9068C62.5476 50.7787 62.5223 50.673 62.5223 50.5892C62.5223 50.4809 62.55 50.3946 62.6054 50.3307C62.6653 50.2617 62.7438 50.2273 62.8408 50.2273C62.9377 50.2273 63.0138 50.2519 63.0692 50.3011C63.1246 50.3503 63.1915 50.4292 63.27 50.5375C63.3438 50.6409 63.4108 50.7247 63.4708 50.7886C63.5307 50.8477 63.6116 50.8994 63.7131 50.9438C63.8146 50.9881 63.9415 51.0102 64.0938 51.0102C64.403 51.0102 64.6453 50.929 64.8208 50.7665C64.9962 50.604 65.0838 50.375 65.0838 50.0795C65.0838 49.9662 65.0261 49.8531 64.9108 49.7398C64.7954 49.6216 64.6869 49.5378 64.5854 49.4886C64.5254 49.4542 64.4147 49.4196 64.2531 49.3852C64.0361 49.3261 63.8723 49.2696 63.7615 49.2153C63.6553 49.1562 63.6023 49.0651 63.6023 48.942C63.6023 48.8583 63.6369 48.777 63.7061 48.6983C63.7754 48.6145 63.8792 48.5111 64.0177 48.3881C64.1562 48.265 64.26 48.164 64.3292 48.0852C64.3985 48.0015 64.4331 47.9179 64.4331 47.8341C64.3454 47.8094 64.2139 47.7972 64.0385 47.7972C63.96 47.7972 63.8423 47.802 63.6854 47.8119C63.5469 47.8218 63.4407 47.8267 63.3669 47.8267C63.2008 47.8267 63.0577 47.7972 62.9377 47.7381C62.8224 47.679 62.7646 47.6026 62.7646 47.5091C62.7646 47.4057 62.7739 47.3244 62.7923 47.2653C62.8107 47.2014 62.8453 47.1619 62.8962 47.1472C62.9284 47.1324 62.9862 47.125 63.0692 47.125C63.2953 47.125 63.4915 47.1324 63.6577 47.1472C63.8423 47.1571 63.9831 47.1619 64.08 47.1619L64.6546 47.1545C65.1254 47.1545 65.3608 47.2752 65.3608 47.5165C65.3608 47.6986 65.2731 47.9054 65.0977 48.1369C64.927 48.3634 64.7238 48.5679 64.4885 48.75ZM68.8218 49.7472C68.9833 50.0377 69.1448 50.2963 69.3064 50.5227C69.4725 50.7443 69.6895 51.0176 69.9571 51.3426C69.9894 51.377 70.0056 51.4165 70.0056 51.4608C70.0056 51.5298 69.9686 51.5889 69.8948 51.6381C69.8256 51.6873 69.7402 51.7119 69.6387 51.7119C69.4956 51.7119 69.341 51.648 69.1748 51.5199C69.0271 51.4066 68.8956 51.2565 68.7802 51.0693C68.6649 50.8821 68.531 50.6384 68.3787 50.3381C68.2586 50.1066 68.1872 49.9713 68.1641 49.9318C67.9841 50.0106 67.7026 50.0599 67.3194 50.0795C67.3194 50.2469 67.3333 50.4735 67.361 50.7591C67.3887 51.0545 67.4025 51.2687 67.4025 51.4017C67.4025 51.4903 67.361 51.5642 67.2779 51.6233C67.1994 51.6824 67.1094 51.7119 67.0079 51.7119C66.8879 51.7119 66.7956 51.6602 66.731 51.5568C66.6663 51.419 66.6248 51.254 66.6064 51.0619C66.588 50.8699 66.5787 50.6409 66.5787 50.375C66.5787 50.0943 66.5949 49.7767 66.6271 49.4222C66.6548 49.0282 66.6687 48.7377 66.6687 48.5506C66.6687 48.398 66.6548 48.1935 66.6271 47.9375C66.6226 47.8932 66.6156 47.8168 66.6064 47.7085C66.5971 47.6002 66.5925 47.5017 66.5925 47.4131C66.5925 47.3441 66.6156 47.285 66.6618 47.2358C66.7126 47.1816 66.7656 47.1446 66.821 47.125C67.1948 47.061 67.5594 47.029 67.9148 47.029C68.5195 47.029 69.0202 47.1497 69.4171 47.3909C69.8141 47.6322 70.0125 47.9991 70.0125 48.4915C70.0125 48.6441 69.9803 48.7918 69.9156 48.9347C69.8556 49.0725 69.7726 49.1883 69.6664 49.2818C69.3849 49.5133 69.1032 49.6684 68.8218 49.7472ZM69.2856 48.4693C69.2856 48.233 69.1679 48.0409 68.9325 47.8932C68.6971 47.7406 68.3625 47.6642 67.9287 47.6642C67.7348 47.6642 67.5433 47.6889 67.3541 47.7381L67.361 48.1148C67.361 48.3315 67.3541 48.5432 67.3402 48.75C67.3264 48.9568 67.3194 49.1784 67.3194 49.4148C67.3979 49.3951 67.481 49.3827 67.5687 49.3778C67.6563 49.3679 67.7141 49.3606 67.7418 49.3557C67.9449 49.336 68.1018 49.3114 68.2125 49.2818C68.4202 49.2128 68.5909 49.1514 68.7248 49.0972C68.8633 49.0381 68.9903 48.9568 69.1056 48.8534C69.2256 48.7451 69.2856 48.617 69.2856 48.4693ZM72.5638 50.0426C72.6008 50.0673 72.6722 50.114 72.7784 50.183C72.8892 50.2469 72.963 50.3233 73 50.4119C73.0369 50.5006 73.0554 50.6236 73.0554 50.7813C73.0554 50.9585 73.0069 51.1161 72.91 51.254C72.813 51.3869 72.6884 51.4903 72.5361 51.5642C72.4254 51.6184 72.2892 51.6602 72.1277 51.6898C71.9708 51.7193 71.8462 51.7341 71.7538 51.7341C71.6615 51.7341 71.5415 51.7193 71.3938 51.6898C71.2508 51.6602 71.1515 51.6332 71.0961 51.6085C70.9531 51.5199 70.8285 51.4116 70.7223 51.2835C70.6208 51.1554 70.57 51.025 70.57 50.892C70.57 50.7935 70.6 50.7173 70.66 50.6631C70.7199 50.604 70.7984 50.5744 70.8954 50.5744C70.9415 50.5744 70.9899 50.5941 71.0407 50.6335C71.0916 50.6679 71.1262 50.7049 71.1446 50.7443C71.1954 50.8724 71.2807 50.9684 71.4007 51.0324C71.5208 51.0964 71.643 51.1284 71.7677 51.1284C71.9292 51.1284 72.0792 51.1014 72.2177 51.0472C72.3561 50.9881 72.4254 50.9093 72.4254 50.8108C72.4254 50.7665 72.4139 50.7321 72.3907 50.7074C72.3723 50.6778 72.3446 50.6483 72.3077 50.6187C72.243 50.5696 72.1461 50.5301 72.0169 50.5006C71.8877 50.4662 71.8046 50.444 71.7677 50.4341C71.5784 50.3898 71.3938 50.3233 71.2138 50.2347C71.0338 50.1411 70.8908 50.0304 70.7846 49.9023C70.6784 49.7742 70.6253 49.6093 70.6253 49.4074C70.6253 49.2744 70.6715 49.1366 70.7638 48.9938C70.8562 48.846 70.96 48.7426 71.0754 48.6835C71.1584 48.6491 71.2969 48.6122 71.4907 48.5727C71.6891 48.5333 71.823 48.5136 71.8923 48.5136C71.9985 48.5136 72.1138 48.5259 72.2384 48.5506C72.363 48.5702 72.4576 48.6048 72.5223 48.654C72.6469 48.7327 72.7484 48.8165 72.8269 48.9051C72.9054 48.9889 72.9446 49.0849 72.9446 49.1932C72.9446 49.2474 72.9331 49.3065 72.91 49.3705C72.8868 49.4295 72.8591 49.4665 72.8269 49.4812C72.7577 49.5157 72.6769 49.533 72.5846 49.533C72.543 49.533 72.5084 49.5207 72.4807 49.496C72.4576 49.4714 72.4254 49.4321 72.3838 49.3778C72.333 49.2941 72.2845 49.2449 72.2384 49.2301C72.183 49.2153 72.1023 49.1981 71.9961 49.1784C71.8899 49.1537 71.8185 49.1415 71.7815 49.1415C71.6753 49.1415 71.5645 49.1735 71.4492 49.2375C71.3384 49.3015 71.283 49.3753 71.283 49.4591C71.283 49.5034 71.2992 49.5378 71.3315 49.5625C71.3685 49.5872 71.4053 49.6093 71.4423 49.629C71.4838 49.6486 71.5115 49.661 71.5254 49.6659C71.6223 49.7151 71.7285 49.7571 71.8438 49.7915C71.9639 49.8259 72.0377 49.8481 72.0654 49.858C72.3146 49.9219 72.4807 49.9835 72.5638 50.0426Z" fill="#646464"/>
<path d="M70.9643 38.155C70.9643 38.7105 70.8425 39.1891 70.5988 39.5909C70.3662 39.9809 69.9785 40.3414 69.4357 40.6723C69.0702 40.9086 68.6437 41.0859 68.1563 41.2041C67.6689 41.3223 67.176 41.3814 66.6775 41.3814C66.168 41.3814 65.5366 41.2041 64.7834 40.8495C64.2406 40.5659 63.8086 40.2291 63.4874 39.8391C63.1772 39.4491 63.0222 39.0236 63.0222 38.5627C63.0222 38.2436 63.0886 38.0132 63.2215 37.8714C63.3545 37.7177 63.5705 37.6409 63.8695 37.6409C64.0246 37.6409 64.1852 37.7118 64.3514 37.8536C64.5175 37.9836 64.6172 38.1136 64.6505 38.2436C64.8055 38.7282 65.0769 39.1005 65.4646 39.3605C65.8523 39.6086 66.3342 39.7327 66.9102 39.7327C67.5748 39.7327 68.1286 39.6027 68.5717 39.3427C69.0258 39.0827 69.2529 38.7341 69.2529 38.2968C69.2529 37.8714 69.0092 37.4932 68.5218 37.1623C68.0345 36.8314 67.536 36.6009 67.0265 36.4709C66.2954 36.2582 65.6474 36.0041 65.0825 35.7086C64.4954 35.4014 64.0578 35.0232 63.7698 34.5741C63.4818 34.125 63.3378 33.6523 63.3378 33.1559C63.3378 32.695 63.4874 32.2282 63.7865 31.7555C64.0855 31.2709 64.44 30.9223 64.8498 30.7095C65.0714 30.5914 65.448 30.4673 65.9797 30.3373C66.5225 30.1955 66.9157 30.1245 67.1594 30.1245C67.4806 30.1245 67.8351 30.1659 68.2228 30.2486C68.6105 30.3314 68.9262 30.4495 69.1698 30.6032C69.6572 30.8986 70.0172 31.1645 70.2498 31.4009C70.4825 31.6373 70.5988 31.9327 70.5988 32.2873C70.5988 32.5 70.5212 32.6891 70.3662 32.8545C70.2222 33.02 69.9674 33.1027 69.6018 33.1027C69.5132 33.1027 69.4246 33.0614 69.336 32.9786C69.2474 32.8959 69.1366 32.7718 69.0037 32.6064C68.8265 32.3582 68.6548 32.1927 68.4886 32.11C68.3225 32.0509 68.0788 31.9859 67.7575 31.915C67.4474 31.8441 67.1705 31.8086 66.9268 31.8086C66.6609 31.8086 66.384 31.8677 66.096 31.9859C65.808 32.1041 65.5643 32.2755 65.3649 32.5C65.1766 32.7127 65.0825 32.9609 65.0825 33.2445C65.0825 33.4809 65.1822 33.6877 65.3815 33.865C65.592 34.0305 65.8412 34.1664 66.1292 34.2727C66.4615 34.4145 66.8215 34.5386 67.2092 34.645C67.7188 34.8105 68.1342 34.9641 68.4554 35.1059C68.7877 35.2359 69.1089 35.4014 69.4191 35.6023C69.9618 35.945 70.3551 36.2995 70.5988 36.6659C70.8425 37.0205 70.9643 37.5168 70.9643 38.155ZM79.098 35.6732C79.1866 35.8386 79.2586 36.0809 79.314 36.4C79.3693 36.7073 79.397 36.985 79.397 37.2332C79.397 37.6941 79.3029 38.35 79.1146 39.2009C78.3503 40.69 77.2204 41.4345 75.725 41.4345C75.1712 41.4345 74.6063 41.2395 74.0303 40.8495C73.4543 40.4595 73.0555 40.0105 72.834 39.5023C72.5349 38.4859 72.3853 37.8418 72.3853 37.57C72.3853 37.0973 72.4795 36.595 72.6678 36.0632C72.8672 35.5314 73.1164 35.0705 73.4155 34.6805C73.6038 34.4086 73.9416 34.1782 74.429 33.9891C74.9164 33.7882 75.3595 33.6877 75.7583 33.6877C76.5336 33.6877 77.1927 33.8473 77.7355 34.1664C78.2783 34.4736 78.7324 34.9759 79.098 35.6732ZM77.6524 38.5273C77.7078 38.3736 77.7355 37.9777 77.7355 37.3395C77.7355 36.9968 77.6746 36.66 77.5527 36.3291C77.442 35.9982 77.2758 35.7145 77.0543 35.4782C77.0321 35.4545 76.9712 35.4191 76.8715 35.3718C76.7718 35.3127 76.6333 35.2595 76.4561 35.2123C76.29 35.1532 76.0961 35.1236 75.8746 35.1236C75.2543 35.1236 74.8001 35.3895 74.5121 35.9214C74.2241 36.4532 74.0801 37.0559 74.0801 37.7295C74.0801 37.8477 74.1078 38.0723 74.1632 38.4032C74.2296 38.7341 74.285 38.9409 74.3293 39.0236C74.3626 39.1064 74.4456 39.2245 74.5786 39.3782C74.7226 39.52 74.8943 39.65 75.0936 39.7682C75.3041 39.8745 75.5201 39.9277 75.7416 39.9277C76.2401 39.9277 76.6389 39.8036 76.938 39.5555C77.237 39.2955 77.4752 38.9527 77.6524 38.5273ZM82.8815 38.6159C82.8815 39.065 82.9425 39.4136 83.0643 39.6618C83.1972 39.8982 83.3634 40.0164 83.5628 40.0164C83.6736 40.0164 83.7788 40.0105 83.8785 39.9986C83.9782 39.975 84.0779 39.9632 84.1776 39.9632C84.2883 39.9632 84.3825 40.0223 84.46 40.1405C84.5486 40.2586 84.5929 40.3886 84.5929 40.5305C84.5929 40.8141 84.4656 41.0386 84.2108 41.2041C83.9671 41.3577 83.6348 41.4345 83.2139 41.4345C82.9148 41.4345 82.6102 41.34 82.3 41.1509C82.0009 40.95 81.7517 40.6427 81.5523 40.2291C81.3529 39.8036 81.2532 39.2777 81.2532 38.6514C81.2532 37.3041 81.2754 36.1636 81.3197 35.23C81.3751 34.1191 81.4028 32.7186 81.4028 31.0286C81.4028 30.4968 81.4305 30.1245 81.4859 29.9118C81.5523 29.7464 81.6576 29.6223 81.8016 29.5395C81.9566 29.445 82.1172 29.3977 82.2834 29.3977C82.4496 29.3977 82.5936 29.4273 82.7154 29.4864C82.8483 29.5455 82.9369 29.64 82.9812 29.77C83.0256 29.9118 83.0532 30.0536 83.0643 30.1955C83.0865 30.3255 83.0976 30.5145 83.0976 30.7627C83.0976 31.2473 83.0809 31.7141 83.0477 32.1632C83.0256 32.7068 83.0145 33.1027 83.0145 33.3509C82.9259 35.4309 82.8815 37.1859 82.8815 38.6159ZM89.5809 36.8077C89.6141 36.7132 89.7304 36.3705 89.9298 35.7795C90.1403 35.1886 90.3341 34.7395 90.5113 34.4323C90.7993 33.9477 91.0541 33.7055 91.2756 33.7055C91.5858 33.7055 91.824 33.7705 91.9901 33.9005C92.1563 34.0186 92.2393 34.19 92.2393 34.4145C92.2393 34.5209 92.195 34.6686 92.1064 34.8577C92.0289 35.0468 91.9846 35.1591 91.9735 35.1945C91.5304 36.2345 91.1316 37.3514 90.7772 38.545L90.4283 39.9277C90.2953 40.3768 90.0683 40.7432 89.747 41.0268C89.4258 41.2986 89.0492 41.4345 88.6172 41.4345C88.2295 41.4345 87.8695 41.2455 87.5372 40.8673C87.3378 40.5364 87.1273 40.1168 86.9058 39.6086C86.6953 39.1005 86.5126 38.6041 86.3575 38.1195L85.776 36.2582C85.6541 35.8918 85.5544 35.5786 85.4769 35.3186C85.4104 35.0586 85.3772 34.8223 85.3772 34.6095C85.3661 34.3614 85.4326 34.1605 85.5766 34.0068C85.7206 33.8532 85.92 33.7764 86.1747 33.7764C86.4627 33.7764 86.6676 33.8414 86.7895 33.9714C86.9113 34.0895 87.0221 34.2786 87.1218 34.5386C87.1661 34.8105 87.288 35.3659 87.4873 36.205L87.6036 36.7014C87.7033 37.1032 87.8307 37.5109 87.9858 37.9245C88.1409 38.3382 88.296 38.7341 88.451 39.1123C88.4289 39.0532 88.5064 39.2482 88.6836 39.6973C88.7944 39.3545 88.9218 38.935 89.0658 38.4386L89.5809 36.8077ZM93.2511 37.3041C93.2511 36.5832 93.4006 35.9864 93.6997 35.5136C93.9988 35.0291 94.4141 34.5741 94.9458 34.1486C95.1009 34.0305 95.3612 33.93 95.7268 33.8473C96.0923 33.7527 96.4135 33.7055 96.6905 33.7055C97.0228 33.7055 97.3717 33.7823 97.7372 33.9359C98.1138 34.0777 98.4185 34.2432 98.6511 34.4323C99.0609 34.7514 99.3434 35.1236 99.4985 35.5491C99.6535 35.9627 99.7311 36.4591 99.7311 37.0382C99.7311 37.2864 99.5981 37.5286 99.3323 37.765C99.0775 37.9895 98.8006 38.1018 98.5015 38.1018L97.8701 38.0841C97.5489 38.0841 97.0892 38.0959 96.4911 38.1195L96.1421 38.1373C95.8985 38.1609 95.7157 38.1727 95.5938 38.1727C95.4166 38.1727 95.1729 38.1491 94.8628 38.1018C94.9071 38.6573 95.1009 39.0945 95.4443 39.4136C95.7877 39.7209 96.1588 39.8745 96.5575 39.8745C97.2554 39.8745 97.7428 39.7268 98.0197 39.4314C98.2523 39.2541 98.4074 39.1418 98.4849 39.0945C98.5625 39.0473 98.6843 39.0236 98.8505 39.0236C99.0277 39.0236 99.1828 39.1123 99.3157 39.2895C99.4486 39.4668 99.5151 39.6441 99.5151 39.8214C99.5151 40.0223 99.3988 40.2291 99.1662 40.4418C98.9446 40.6427 98.64 40.8555 98.2523 41.08C98.0418 41.1745 97.7538 41.2573 97.3883 41.3282C97.0228 41.3991 96.7182 41.4345 96.4745 41.4345C96.0868 41.4345 95.6548 41.3164 95.1785 41.08C94.7021 40.8318 94.3477 40.56 94.1151 40.2645C93.8825 39.9691 93.6775 39.5495 93.5003 39.0059C93.3342 38.4623 93.2511 37.895 93.2511 37.3041ZM96.5575 36.8255C97.344 36.8255 97.92 36.7959 98.2855 36.7368C98.2634 36.3941 98.1637 36.1164 97.9865 35.9036C97.8092 35.6791 97.5655 35.49 97.2554 35.3364C97.1557 35.2891 97.0671 35.2536 96.9895 35.23C96.912 35.2064 96.8234 35.1945 96.7237 35.1945C96.2142 35.1945 95.7821 35.3423 95.4277 35.6377C95.0843 35.9332 94.8794 36.3114 94.8129 36.7723C95.3668 36.8077 95.9483 36.8255 96.5575 36.8255ZM106.022 37.3041C106.465 37.5759 106.775 37.8477 106.952 38.1195C107.129 38.3795 107.218 38.7223 107.218 39.1477C107.218 39.5732 107.102 39.9514 106.869 40.2823C106.637 40.6014 106.337 40.8495 105.972 41.0268C105.706 41.1568 105.374 41.2573 104.975 41.3282C104.587 41.3991 104.283 41.4345 104.061 41.4345C103.673 41.4345 103.253 41.3577 102.798 41.2041C102.344 41.0505 101.957 40.8318 101.635 40.5482C101.325 40.2645 101.17 39.9336 101.17 39.5555C101.17 39.3191 101.242 39.1359 101.386 39.0059C101.53 38.8641 101.718 38.7932 101.951 38.7932C102.139 38.7932 102.339 38.935 102.549 39.2186C102.76 39.4668 103.003 39.6559 103.28 39.7859C103.568 39.9159 103.851 39.9809 104.128 39.9809C105.18 39.9809 105.706 39.7268 105.706 39.2186C105.706 39.1123 105.673 39.0118 105.606 38.9173C105.54 38.8109 105.479 38.74 105.424 38.7045C105.324 38.6218 105.185 38.5509 105.008 38.4918C104.831 38.4327 104.654 38.3855 104.477 38.35C104.299 38.3027 104.166 38.2673 104.078 38.2436C103.989 38.22 103.801 38.1786 103.513 38.1195C103.236 38.0605 102.97 37.96 102.715 37.8182C102.294 37.6055 101.951 37.3455 101.685 37.0382C101.43 36.7309 101.303 36.335 101.303 35.8505C101.303 35.5786 101.364 35.3068 101.486 35.035C101.619 34.7514 101.796 34.5386 102.017 34.3968C102.35 34.1723 102.715 34.0009 103.114 33.8827C103.513 33.7645 103.884 33.7055 104.227 33.7055C104.504 33.7055 104.814 33.735 105.158 33.7941C105.512 33.8532 105.767 33.9359 105.922 34.0423C106.21 34.2077 106.421 34.3791 106.553 34.5564C106.686 34.7336 106.753 34.9582 106.753 35.23C106.753 35.36 106.725 35.49 106.67 35.62C106.614 35.7382 106.548 35.8209 106.47 35.8682C106.293 35.9391 106.138 35.9745 106.005 35.9745C105.905 35.9745 105.822 35.9568 105.756 35.9214C105.689 35.8741 105.629 35.8268 105.573 35.7795C105.529 35.7323 105.501 35.7027 105.49 35.6909C105.346 35.5255 105.185 35.3955 105.008 35.3009C104.831 35.2064 104.571 35.1591 104.227 35.1591C104.006 35.1591 103.79 35.1945 103.579 35.2655C103.38 35.3245 103.225 35.4014 103.114 35.4959C103.025 35.5668 102.965 35.6318 102.931 35.6909C102.898 35.7382 102.881 35.8032 102.881 35.8859C102.881 36.2168 103.192 36.4591 103.812 36.6127C104.443 36.7664 104.776 36.8491 104.809 36.8609C104.875 36.8845 105.058 36.9436 105.357 37.0382C105.667 37.1327 105.889 37.2214 106.022 37.3041Z" fill="#646464"/>
</g>
<defs>
<clipPath id="clip0_19_673">
<rect width="108" height="65" fill="white"/>
</clipPath>
</defs>
</svg>
