<svg width="292" height="67" viewBox="0 0 292 67" fill="none" xmlns="http://www.w3.org/2000/svg">
<rect width="48.0324" height="50.1349" rx="10" transform="matrix(0.999989 -0.00473071 0.00488454 0.999988 7.2782 5.95705)" fill="#646464"/>
<path fill-rule="evenodd" clip-rule="evenodd" d="M19.3442 39.6688C21.0504 42.3575 32.9778 48.3003 40.5493 40.652C45.0301 36.1253 48.2584 26.5065 43.044 15.4019C24.7331 18.6554 20.0871 25.1779 19.3442 39.6688Z" fill="#7AC143"/>
<path fill-rule="evenodd" clip-rule="evenodd" d="M41.2932 23.8891C41.2932 23.8891 29.0105 38.1098 13.126 41.1588L13.7811 42.3995C13.7811 42.3995 30.6 40.9015 41.2932 23.8891Z" fill="#3F8640"/>
<path fill-rule="evenodd" clip-rule="evenodd" d="M26.5639 30.1203C26.5556 30.1359 23.3322 36.6114 22.9027 38.7259L24.7089 38.1289C25.1149 36.137 26.5556 30.1356 26.5639 30.1203Z" fill="#3F8640"/>
<path fill-rule="evenodd" clip-rule="evenodd" d="M32.8116 28.1851C32.8036 28.1956 29.8593 32.7604 29.3581 34.2888L30.7454 33.9614C31.2179 32.5214 32.8036 28.1955 32.8116 28.1851Z" fill="#3F8640"/>
<path fill-rule="evenodd" clip-rule="evenodd" d="M37.5559 34.5075C37.535 34.5084 29.4174 35.0426 27.0674 35.6648L28.5439 36.7011C30.7578 36.1148 37.5355 34.5084 37.5559 34.5075Z" fill="#3F8640"/>
<path fill-rule="evenodd" clip-rule="evenodd" d="M36.6221 26.2883C36.6185 26.2963 35.2026 29.6489 35.0549 30.7296L35.948 30.3861C36.0872 29.368 36.6184 26.2964 36.6221 26.2883Z" fill="#3F8640"/>
<path fill-rule="evenodd" clip-rule="evenodd" d="M41.2014 30.0704C41.1882 30.0712 35.6409 30.436 34.0354 30.8606L35.044 31.5689C36.5574 31.1687 41.1889 30.0708 41.2014 30.0704Z" fill="#3F8640"/>
<rect width="53.8247" height="53.03" rx="10" transform="matrix(0.982797 0.184691 -0.190482 0.981691 10.1012 0)" fill="#646464" fill-opacity="0.3"/>
<rect width="48.0324" height="50.1349" rx="10" transform="matrix(0.999989 -0.00473071 0.00488454 0.999988 7.2782 5.95705)" fill="#646464"/>
<path fill-rule="evenodd" clip-rule="evenodd" d="M19.343 39.6688C21.0492 42.3575 32.9766 48.3003 40.548 40.652C45.0289 36.1253 48.2572 26.5065 43.0428 15.4019C24.7319 18.6554 20.0859 25.1779 19.343 39.6688Z" fill="#7AC143"/>
<path fill-rule="evenodd" clip-rule="evenodd" d="M41.2919 23.8891C41.2919 23.8891 29.0093 38.1098 13.1248 41.1588L13.7799 42.3995C13.7799 42.3995 30.5988 40.9015 41.2919 23.8891Z" fill="#3F8640"/>
<path fill-rule="evenodd" clip-rule="evenodd" d="M26.5627 30.1203C26.5544 30.1359 23.3309 36.6114 22.9015 38.7259L24.7077 38.1289C25.1137 36.137 26.5544 30.1356 26.5627 30.1203Z" fill="#3F8640"/>
<path fill-rule="evenodd" clip-rule="evenodd" d="M32.8104 28.1851C32.8024 28.1956 29.8581 32.7604 29.3569 34.2888L30.7442 33.9614C31.2167 32.5214 32.8024 28.1955 32.8104 28.1851Z" fill="#3F8640"/>
<path fill-rule="evenodd" clip-rule="evenodd" d="M37.5546 34.5075C37.5338 34.5084 29.4162 35.0426 27.0662 35.6648L28.5427 36.7011C30.7566 36.1148 37.5343 34.5084 37.5546 34.5075Z" fill="#3F8640"/>
<path fill-rule="evenodd" clip-rule="evenodd" d="M36.6209 26.2883C36.6173 26.2963 35.2014 29.6489 35.0537 30.7296L35.9467 30.3861C36.0859 29.368 36.6172 26.2964 36.6209 26.2883Z" fill="#3F8640"/>
<path fill-rule="evenodd" clip-rule="evenodd" d="M41.2002 30.0704C41.187 30.0712 35.6397 30.436 34.0341 30.8606L35.0428 31.5689C36.5562 31.1687 41.1877 30.0708 41.2002 30.0704Z" fill="#3F8640"/>
<path d="M78.93 31.57C78.07 30.95 77.33 30.5 76.71 30.22C76.09 29.92 75.37 29.77 74.55 29.77C72.91 29.77 71.5 30.19 70.32 31.03C69.42 31.69 68.75 32.55 68.31 33.61C67.87 34.67 67.65 35.86 67.65 37.18C67.65 38.44 67.94 39.55 68.52 40.51C69.1 41.45 69.85 42.17 70.77 42.67C71.69 43.17 72.65 43.42 73.65 43.42C74.65 43.42 75.51 43.27 76.23 42.97C76.97 42.65 77.56 42.24 78 41.74C78.68 40.88 79.02 39.74 79.02 38.32C79.02 38.12 78.86 37.98 78.54 37.9C78.22 37.82 77.76 37.78 77.16 37.78L75 37.81C74.42 37.81 73.96 37.7 73.62 37.48C73.28 37.26 73.11 36.98 73.11 36.64C73.11 36.16 73.27 35.81 73.59 35.59C73.91 35.35 74.34 35.23 74.88 35.23C75.52 35.23 76.38 35.27 77.46 35.35C78.54 35.43 79.32 35.47 79.8 35.47C80.5 35.47 81.06 35.69 81.48 36.13C81.92 36.57 82.14 37.21 82.14 38.05C82.14 38.83 81.97 39.74 81.63 40.78C81.29 41.82 80.81 42.75 80.19 43.57C79.59 44.37 78.7 44.98 77.52 45.4C76.36 45.8 75.07 46 73.65 46C72.47 46 71.33 45.81 70.23 45.43C69.13 45.05 68.21 44.52 67.47 43.84C66.55 42.98 65.82 41.96 65.28 40.78C64.76 39.58 64.5 38.39 64.5 37.21C64.5 35.49 64.9 33.82 65.7 32.2C66.52 30.56 67.62 29.29 69 28.39C69.6 27.99 70.44 27.66 71.52 27.4C72.6 27.14 73.59 27.01 74.49 27.01C75.89 27.01 77.12 27.23 78.18 27.67C79.24 28.09 80.05 28.7 80.61 29.5C80.85 29.86 80.97 30.18 80.97 30.46C80.97 30.78 80.83 31.08 80.55 31.36C80.27 31.64 79.99 31.78 79.71 31.78C79.59 31.78 79.45 31.76 79.29 31.72C79.13 31.68 79.01 31.63 78.93 31.57ZM89.7429 44.8C89.7429 45.14 89.6129 45.44 89.3529 45.7C89.0929 45.96 88.7729 46.09 88.3929 46.09C87.7929 46.09 87.3529 45.98 87.0729 45.76C86.7929 45.52 86.6529 45.09 86.6529 44.47C86.6529 43.73 86.6329 42.76 86.5929 41.56C86.5529 40.56 86.5329 39.72 86.5329 39.04C86.5329 38.72 86.5529 38.3 86.5929 37.78C86.6329 37.3 86.6529 36.94 86.6529 36.7C86.5929 36.32 86.4429 36.01 86.2029 35.77C85.9629 35.51 85.6529 35.38 85.2729 35.38C85.0929 35.38 84.9429 35.3 84.8229 35.14C84.7029 34.96 84.6429 34.78 84.6429 34.6C84.6429 34.14 84.8229 33.79 85.1829 33.55C85.5629 33.31 86.0129 33.19 86.5329 33.19C87.6129 33.19 88.3629 33.83 88.7829 35.11C89.3029 34.51 89.8929 34.03 90.5529 33.67C91.2329 33.29 91.8829 33.1 92.5029 33.1C93.2429 33.1 93.9129 33.3 94.5129 33.7C95.1329 34.1 95.4429 34.64 95.4429 35.32C95.4429 35.7 95.2729 36.09 94.9329 36.49C94.6129 36.89 94.2829 37.09 93.9429 37.09C93.7629 37.09 93.6029 37.05 93.4629 36.97C93.3429 36.87 93.1929 36.73 93.0129 36.55C92.8129 36.35 92.6429 36.21 92.5029 36.13C92.3629 36.03 92.2029 35.98 92.0229 35.98C91.7029 35.98 91.4029 36.03 91.1229 36.13C90.8429 36.23 90.6529 36.35 90.5529 36.49C90.2329 36.99 89.9929 37.44 89.8329 37.84C89.6929 38.24 89.6229 38.67 89.6229 39.13C89.6229 39.47 89.6129 39.74 89.5929 39.94L89.5629 41.65C89.5629 41.91 89.5729 42.2 89.5929 42.52C89.6129 42.84 89.6329 43.08 89.6529 43.24C89.7129 43.78 89.7429 44.3 89.7429 44.8ZM96.9867 39.64C96.9867 38.88 97.1267 38.12 97.4067 37.36C97.6867 36.58 98.0567 35.87 98.5167 35.23C98.9767 34.59 99.7067 34.07 100.707 33.67C101.707 33.25 102.597 33.04 103.377 33.04C104.177 33.04 104.987 33.15 105.807 33.37C106.647 33.59 107.227 33.93 107.547 34.39C108.287 35.43 108.657 36.45 108.657 37.45C108.657 37.99 108.537 38.45 108.297 38.83C108.077 39.21 107.757 39.62 107.337 40.06C106.997 40.42 106.457 40.66 105.717 40.78C104.997 40.9 104.277 40.96 103.557 40.96C103.097 40.96 102.537 40.92 101.877 40.84C101.217 40.74 100.577 40.62 99.9567 40.48C99.9967 40.88 100.097 41.27 100.257 41.65C100.417 42.03 100.607 42.32 100.827 42.52C101.227 42.9 101.637 43.14 102.057 43.24C102.497 43.34 103.057 43.39 103.737 43.39C104.457 43.39 105.127 43.27 105.747 43.03C106.247 42.85 106.657 42.76 106.977 42.76C107.357 42.76 107.647 42.88 107.847 43.12C108.047 43.34 108.147 43.63 108.147 43.99C108.147 44.49 107.857 44.9 107.277 45.22C106.697 45.54 106.027 45.78 105.267 45.94C104.527 46.08 103.927 46.15 103.467 46.15C102.527 46.15 101.617 45.98 100.737 45.64C99.8567 45.3 99.1267 44.82 98.5467 44.2C98.0667 43.64 97.6867 42.97 97.4067 42.19C97.1267 41.39 96.9867 40.54 96.9867 39.64ZM103.527 35.59C103.087 35.59 102.647 35.68 102.207 35.86C101.767 36.02 101.407 36.25 101.127 36.55C100.767 36.93 100.517 37.24 100.377 37.48C100.257 37.7 100.177 38.01 100.137 38.41C100.637 38.57 101.677 38.65 103.257 38.65C104.117 38.65 104.777 38.52 105.237 38.26C105.717 38 105.957 37.66 105.957 37.24C105.957 36.82 105.697 36.44 105.177 36.1C104.657 35.76 104.107 35.59 103.527 35.59ZM111.224 39.13C111.224 37.91 111.494 36.9 112.034 36.1C112.574 35.28 113.324 34.51 114.284 33.79C114.564 33.59 115.034 33.42 115.694 33.28C116.354 33.12 116.934 33.04 117.434 33.04C118.034 33.04 118.664 33.17 119.324 33.43C120.004 33.67 120.554 33.95 120.974 34.27C121.714 34.81 122.224 35.44 122.504 36.16C122.784 36.86 122.924 37.7 122.924 38.68C122.924 39.1 122.684 39.51 122.204 39.91C121.744 40.29 121.244 40.48 120.704 40.48L119.564 40.45C118.984 40.45 118.154 40.47 117.074 40.51L116.444 40.54C116.004 40.58 115.674 40.6 115.454 40.6C115.134 40.6 114.694 40.56 114.134 40.48C114.214 41.42 114.564 42.16 115.184 42.7C115.804 43.22 116.474 43.48 117.194 43.48C118.454 43.48 119.334 43.23 119.834 42.73C120.254 42.43 120.534 42.24 120.674 42.16C120.814 42.08 121.034 42.04 121.334 42.04C121.654 42.04 121.934 42.19 122.174 42.49C122.414 42.79 122.534 43.09 122.534 43.39C122.534 43.73 122.324 44.08 121.904 44.44C121.504 44.78 120.954 45.14 120.254 45.52C119.874 45.68 119.354 45.82 118.694 45.94C118.034 46.06 117.484 46.12 117.044 46.12C116.344 46.12 115.564 45.92 114.704 45.52C113.844 45.1 113.204 44.64 112.784 44.14C112.364 43.64 111.994 42.93 111.674 42.01C111.374 41.09 111.224 40.13 111.224 39.13ZM117.194 38.32C118.614 38.32 119.654 38.27 120.314 38.17C120.274 37.59 120.094 37.12 119.774 36.76C119.454 36.38 119.014 36.06 118.454 35.8C118.274 35.72 118.114 35.66 117.974 35.62C117.834 35.58 117.674 35.56 117.494 35.56C116.574 35.56 115.794 35.81 115.154 36.31C114.534 36.81 114.164 37.45 114.044 38.23C115.044 38.29 116.094 38.32 117.194 38.32ZM125.522 35.44C125.362 35.32 125.232 35.2 125.132 35.08C125.032 34.94 124.982 34.7 124.982 34.36C124.982 33.98 125.112 33.69 125.372 33.49C125.652 33.27 125.972 33.16 126.332 33.16C127.032 33.16 127.632 33.34 128.132 33.7C128.652 34.06 129.032 34.56 129.272 35.2C129.712 34.38 130.272 33.82 130.952 33.52C131.632 33.2 132.572 33.04 133.772 33.04C134.252 33.04 134.742 33.19 135.242 33.49C135.762 33.77 136.232 34.12 136.652 34.54C136.992 34.98 137.282 35.53 137.522 36.19C137.762 36.83 137.882 37.41 137.882 37.93C137.882 38.23 137.862 38.72 137.822 39.4C137.782 40.12 137.762 40.69 137.762 41.11C137.762 42.51 138.032 43.37 138.572 43.69C138.652 43.73 138.802 43.78 139.022 43.84C139.242 43.9 139.402 43.96 139.502 44.02C139.622 44.08 139.682 44.17 139.682 44.29C139.702 44.77 139.522 45.17 139.142 45.49C138.782 45.79 138.342 45.94 137.822 45.94C137.042 45.94 136.432 45.73 135.992 45.31C135.552 44.89 135.242 44.25 135.062 43.39C134.962 43.07 134.912 42.6 134.912 41.98C134.912 41.64 134.932 41.09 134.972 40.33C135.032 39.73 135.062 39.09 135.062 38.41C135.062 37.71 134.862 37.1 134.462 36.58C134.062 36.04 133.512 35.77 132.812 35.77C132.392 35.77 131.952 35.9 131.492 36.16C131.032 36.4 130.712 36.7 130.532 37.06C130.232 37.68 130.032 38.31 129.932 38.95C129.692 40.19 129.572 41.38 129.572 42.52C129.572 42.8 129.592 43.34 129.632 44.14C129.632 44.2 129.632 44.35 129.632 44.59C129.632 44.81 129.602 45.02 129.542 45.22C129.502 45.42 129.422 45.6 129.302 45.76C129.222 45.84 129.072 45.92 128.852 46C128.632 46.08 128.442 46.12 128.282 46.12C128.002 46.12 127.652 46 127.232 45.76C126.812 45.52 126.562 45.25 126.482 44.95L126.452 44.53C126.452 44.37 126.472 44.13 126.512 43.81C126.752 42.41 126.872 41.19 126.872 40.15C126.872 39.69 126.862 39.34 126.842 39.1L126.812 37.72C126.812 37.3 126.692 36.9 126.452 36.52C126.212 36.12 125.902 35.76 125.522 35.44ZM162.536 40.84C162.536 41.78 162.336 42.54 161.936 43.12C161.536 43.7 160.846 44.27 159.866 44.83C159.206 45.23 158.446 45.54 157.586 45.76C156.726 45.96 155.856 46.06 154.976 46.06C154.436 46.06 153.806 45.96 153.086 45.76C152.386 45.54 151.816 45.33 151.376 45.13L150.866 44.68C149.966 43.94 149.336 43.35 148.976 42.91C148.636 42.45 148.466 41.89 148.466 41.23C148.466 40.71 148.586 40.32 148.826 40.06C149.066 39.8 149.456 39.67 149.996 39.67C150.276 39.67 150.536 39.76 150.776 39.94C151.016 40.12 151.226 40.37 151.406 40.69C151.906 41.57 152.496 42.22 153.176 42.64C153.876 43.04 154.696 43.24 155.636 43.24C156.516 43.24 157.406 42.97 158.306 42.43C159.046 41.97 159.416 41.52 159.416 41.08C159.416 40.3 159.066 39.65 158.366 39.13C157.686 38.61 156.706 38.14 155.426 37.72C154.646 37.44 153.476 36.92 151.916 36.16C150.856 35.64 150.066 35 149.546 34.24C149.026 33.48 148.766 32.68 148.766 31.84C148.766 31.08 149.026 30.34 149.546 29.62C150.086 28.88 150.736 28.33 151.496 27.97C151.896 27.77 152.536 27.56 153.416 27.34C154.296 27.1 154.956 26.98 155.396 26.98C156.216 26.98 156.926 27.08 157.526 27.28C158.126 27.46 158.716 27.72 159.296 28.06C160.176 28.56 160.826 29.01 161.246 29.41C161.666 29.81 161.876 30.31 161.876 30.91C161.876 31.27 161.736 31.59 161.456 31.87C161.196 32.15 160.736 32.29 160.076 32.29C159.916 32.29 159.756 32.22 159.596 32.08C159.436 31.94 159.236 31.73 158.996 31.45C158.676 31.03 158.366 30.75 158.066 30.61C157.986 30.59 157.656 30.46 157.076 30.22C156.516 29.98 155.816 29.86 154.976 29.86C154.176 29.86 153.466 30.05 152.846 30.43C152.226 30.79 151.916 31.32 151.916 32.02C151.916 32.72 152.546 33.29 153.806 33.73C155.146 34.25 156.256 34.7 157.136 35.08C158.036 35.46 158.906 35.91 159.746 36.43C160.706 37.01 161.406 37.62 161.846 38.26C162.306 38.9 162.536 39.76 162.536 40.84ZM177.162 36.37C177.322 36.65 177.452 37.06 177.552 37.6C177.652 38.12 177.702 38.59 177.702 39.01C177.702 39.57 177.612 40.27 177.432 41.11C177.252 41.93 177.102 42.48 176.982 42.76C175.902 45 173.822 46.12 170.742 46.12C169.762 46.12 168.802 45.8 167.862 45.16C166.922 44.5 166.252 43.73 165.852 42.85L165.642 42.25C165.622 42.17 165.512 41.87 165.312 41.35C165.132 40.81 165.042 40.4 165.042 40.12C165.042 39.3 165.242 38.35 165.642 37.27C166.042 36.19 166.502 35.33 167.022 34.69C167.362 34.23 168.012 33.84 168.972 33.52C169.932 33.18 170.782 33.01 171.522 33.01C172.902 33.01 174.012 33.27 174.852 33.79C175.712 34.31 176.482 35.17 177.162 36.37ZM174.402 41.2C174.482 41.06 174.552 40.81 174.612 40.45C174.672 40.09 174.702 39.67 174.702 39.19C174.702 38.61 174.592 38.04 174.372 37.48C174.172 36.92 173.872 36.44 173.472 36.04C173.452 36 173.382 35.94 173.262 35.86C173.142 35.76 172.952 35.67 172.692 35.59C172.432 35.49 172.102 35.44 171.702 35.44C170.922 35.44 170.262 35.67 169.722 36.13C169.182 36.59 168.772 37.16 168.492 37.84C168.232 38.52 168.102 39.19 168.102 39.85C168.102 40.03 168.162 40.4 168.282 40.96C168.402 41.52 168.492 41.88 168.552 42.04C168.712 42.32 169.022 42.65 169.482 43.03C169.942 43.39 170.462 43.57 171.042 43.57C171.942 43.57 172.642 43.36 173.142 42.94C173.662 42.52 174.082 41.94 174.402 41.2ZM183.936 41.35C183.936 42.11 184.046 42.7 184.266 43.12C184.506 43.52 184.806 43.72 185.166 43.72C185.366 43.72 185.556 43.71 185.736 43.69C185.916 43.65 186.096 43.63 186.276 43.63C186.476 43.63 186.646 43.73 186.786 43.93C186.946 44.13 187.026 44.35 187.026 44.59C187.026 45.07 186.796 45.45 186.336 45.73C185.896 45.99 185.296 46.12 184.536 46.12C183.996 46.12 183.446 45.96 182.886 45.64C182.346 45.3 181.896 44.78 181.536 44.08C181.176 43.36 180.996 42.47 180.996 41.41C180.996 39.13 181.036 37.2 181.116 35.62C181.216 33.74 181.266 31.37 181.266 28.51C181.266 27.61 181.316 26.98 181.416 26.62C181.536 26.34 181.726 26.13 181.986 25.99C182.266 25.83 182.556 25.75 182.856 25.75C183.156 25.75 183.416 25.8 183.636 25.9C183.876 26 184.036 26.16 184.116 26.38C184.196 26.62 184.246 26.86 184.266 27.1C184.306 27.32 184.326 27.64 184.326 28.06C184.326 28.88 184.296 29.67 184.236 30.43C184.196 31.35 184.176 32.02 184.176 32.44C184.016 35.96 183.936 38.93 183.936 41.35ZM196.032 38.29C196.092 38.13 196.302 37.55 196.662 36.55C197.042 35.55 197.392 34.79 197.712 34.27C198.232 33.45 198.692 33.04 199.092 33.04C199.652 33.04 200.082 33.15 200.382 33.37C200.682 33.57 200.832 33.86 200.832 34.24C200.832 34.42 200.752 34.67 200.592 34.99C200.452 35.31 200.372 35.5 200.352 35.56C199.552 37.32 198.832 39.21 198.192 41.23L197.562 43.57C197.322 44.33 196.912 44.95 196.332 45.43C195.752 45.89 195.072 46.12 194.292 46.12C193.592 46.12 192.942 45.8 192.342 45.16C191.982 44.6 191.602 43.89 191.202 43.03C190.822 42.17 190.492 41.33 190.212 40.51L189.162 37.36C188.942 36.74 188.762 36.21 188.622 35.77C188.502 35.33 188.442 34.93 188.442 34.57C188.422 34.15 188.542 33.81 188.802 33.55C189.062 33.29 189.422 33.16 189.882 33.16C190.402 33.16 190.772 33.27 190.992 33.49C191.212 33.69 191.412 34.01 191.592 34.45C191.672 34.91 191.892 35.85 192.252 37.27L192.462 38.11C192.642 38.79 192.872 39.48 193.152 40.18C193.432 40.88 193.712 41.55 193.992 42.19C193.952 42.09 194.092 42.42 194.412 43.18C194.612 42.6 194.842 41.89 195.102 41.05L196.032 38.29ZM202.719 39.64C202.719 38.88 202.859 38.12 203.139 37.36C203.419 36.58 203.789 35.87 204.249 35.23C204.709 34.59 205.439 34.07 206.439 33.67C207.439 33.25 208.329 33.04 209.109 33.04C209.909 33.04 210.719 33.15 211.539 33.37C212.379 33.59 212.959 33.93 213.279 34.39C214.019 35.43 214.389 36.45 214.389 37.45C214.389 37.99 214.269 38.45 214.029 38.83C213.809 39.21 213.489 39.62 213.069 40.06C212.729 40.42 212.189 40.66 211.449 40.78C210.729 40.9 210.009 40.96 209.289 40.96C208.829 40.96 208.269 40.92 207.609 40.84C206.949 40.74 206.309 40.62 205.689 40.48C205.729 40.88 205.829 41.27 205.989 41.65C206.149 42.03 206.339 42.32 206.559 42.52C206.959 42.9 207.369 43.14 207.789 43.24C208.229 43.34 208.789 43.39 209.469 43.39C210.189 43.39 210.859 43.27 211.479 43.03C211.979 42.85 212.389 42.76 212.709 42.76C213.089 42.76 213.379 42.88 213.579 43.12C213.779 43.34 213.879 43.63 213.879 43.99C213.879 44.49 213.589 44.9 213.009 45.22C212.429 45.54 211.759 45.78 210.999 45.94C210.259 46.08 209.659 46.15 209.199 46.15C208.259 46.15 207.349 45.98 206.469 45.64C205.589 45.3 204.859 44.82 204.279 44.2C203.799 43.64 203.419 42.97 203.139 42.19C202.859 41.39 202.719 40.54 202.719 39.64ZM209.259 35.59C208.819 35.59 208.379 35.68 207.939 35.86C207.499 36.02 207.139 36.25 206.859 36.55C206.499 36.93 206.249 37.24 206.109 37.48C205.989 37.7 205.909 38.01 205.869 38.41C206.369 38.57 207.409 38.65 208.989 38.65C209.849 38.65 210.509 38.52 210.969 38.26C211.449 38 211.689 37.66 211.689 37.24C211.689 36.82 211.429 36.44 210.909 36.1C210.389 35.76 209.839 35.59 209.259 35.59ZM225.656 39.52C225.816 39.62 226.126 39.81 226.586 40.09C227.066 40.35 227.386 40.66 227.546 41.02C227.706 41.38 227.786 41.88 227.786 42.52C227.786 43.24 227.576 43.88 227.156 44.44C226.736 44.98 226.196 45.4 225.536 45.7C225.076 45.9 224.576 46.02 224.036 46.06C223.516 46.1 222.886 46.12 222.146 46.12C221.746 46.12 221.226 46.06 220.586 45.94C219.966 45.82 219.536 45.71 219.296 45.61C218.656 45.25 218.116 44.83 217.676 44.35C217.236 43.87 217.016 43.38 217.016 42.88C217.016 42.48 217.146 42.16 217.406 41.92C217.666 41.68 218.006 41.56 218.426 41.56C218.646 41.56 218.856 41.62 219.056 41.74C219.276 41.84 219.426 41.96 219.506 42.1C219.726 42.62 220.096 43.01 220.616 43.27C221.136 43.53 221.666 43.66 222.206 43.66C224.106 43.66 225.056 43.32 225.056 42.64C225.056 42.46 225.006 42.32 224.906 42.22C224.826 42.1 224.706 41.98 224.546 41.86C224.286 41.68 223.916 41.49 223.436 41.29C222.976 41.09 222.566 40.94 222.206 40.84C221.386 40.66 220.586 40.39 219.806 40.03C219.086 39.67 218.496 39.2 218.036 38.62C217.576 38.02 217.346 37.29 217.346 36.43C217.346 35.91 217.536 35.4 217.916 34.9C218.316 34.38 218.776 33.99 219.296 33.73C219.656 33.59 220.246 33.44 221.066 33.28C221.886 33.12 222.446 33.04 222.746 33.04C223.206 33.04 223.706 33.09 224.246 33.19C224.786 33.27 225.196 33.41 225.476 33.61C226.016 33.93 226.456 34.27 226.796 34.63C227.136 34.97 227.306 35.36 227.306 35.8C227.306 36.02 227.256 36.26 227.156 36.52C227.056 36.76 226.936 36.91 226.796 36.97C226.496 37.11 226.146 37.18 225.746 37.18C225.566 37.18 225.416 37.13 225.296 37.03C225.196 36.93 225.056 36.77 224.876 36.55C224.656 36.21 224.446 36.01 224.246 35.95C224.006 35.89 223.656 35.82 223.196 35.74C222.736 35.64 222.426 35.59 222.266 35.59C221.766 35.59 221.286 35.69 220.826 35.89C220.386 36.09 220.166 36.36 220.166 36.7C220.166 37.1 220.496 37.44 221.156 37.72C221.576 37.92 222.036 38.09 222.536 38.23C223.056 38.37 223.376 38.46 223.496 38.5C223.776 38.56 224.136 38.7 224.576 38.92C225.036 39.14 225.396 39.34 225.656 39.52Z" fill="#646464"/>
</svg>
