<svg width="196" height="54" viewBox="0 0 196 54" fill="none" xmlns="http://www.w3.org/2000/svg">
<g clip-path="url(#clip0_101_24)">
<rect width="196" height="54" rx="10" fill="#1E1E1E"/>
<path d="M71.9 35L73.54 20.14H77.82L79.97 28.08L80.69 31.43L81.29 28.08L83.28 20.14H87.4L89.22 35H86.17L85.44 26.67L85.2 22.46L84.23 26.74L81.83 35.11H79.35L76.79 26.74L75.77 22.46L75.49 26.67L74.83 35H71.9ZM94.5411 35.16C93.8344 35.16 93.2144 35.0167 92.6811 34.73C92.1478 34.4433 91.7311 34.0433 91.4311 33.53C91.1378 33.0167 90.9911 32.42 90.9911 31.74C90.9911 31.06 91.1744 30.4767 91.5411 29.99C91.9144 29.5033 92.4178 29.1233 93.0511 28.85C93.4844 28.67 93.9578 28.53 94.4711 28.43C94.9911 28.33 95.5078 28.26 96.0211 28.22C96.5411 28.18 97.0244 28.16 97.4711 28.16L97.9811 28.79L97.4711 29.77C97.2311 29.77 96.9611 29.7867 96.6611 29.82C96.3611 29.8533 96.0711 29.9033 95.7911 29.97C95.5178 30.03 95.2878 30.1 95.1011 30.18C94.8411 30.3 94.6078 30.46 94.4011 30.66C94.2011 30.86 94.1011 31.1667 94.1011 31.58C94.1011 32.12 94.2511 32.52 94.5511 32.78C94.8511 33.0333 95.2378 33.16 95.7111 33.16C95.9578 33.16 96.2011 33.1267 96.4411 33.06C96.6878 32.9933 96.9044 32.9167 97.0911 32.83C97.2778 32.7367 97.4044 32.65 97.4711 32.57L98.0011 33.2L97.6311 34.06C97.3311 34.3267 96.9178 34.5767 96.3911 34.81C95.8711 35.0433 95.2544 35.16 94.5411 35.16ZM100.521 35H97.6311V33.34H97.4711V27.34C97.4711 26.7733 97.3211 26.4033 97.0211 26.23C96.7211 26.05 96.2911 25.96 95.7311 25.96C95.3111 25.96 94.8711 25.9967 94.4111 26.07C93.9578 26.1433 93.5278 26.24 93.1211 26.36C92.7144 26.48 92.3744 26.61 92.1011 26.75L91.4411 24.83C91.6678 24.6967 92.0211 24.54 92.5011 24.36C92.9811 24.18 93.5311 24.0233 94.1511 23.89C94.7711 23.75 95.3944 23.68 96.0211 23.68C97.0478 23.68 97.8911 23.8 98.5511 24.04C99.2178 24.28 99.7111 24.6867 100.031 25.26C100.358 25.8333 100.521 26.6267 100.521 27.64V35ZM110.497 35V33.61L110.277 33.46V25.91L110.357 25.84L110.277 23.02V18.75H113.297V35H110.497ZM107.217 35.16C106.43 35.16 105.704 34.9667 105.037 34.58C104.377 34.1867 103.844 33.5967 103.437 32.81C103.03 32.0233 102.827 31.0267 102.827 29.82C102.827 28.5867 103.06 27.5133 103.527 26.6C103.994 25.68 104.647 24.97 105.487 24.47C106.327 23.97 107.314 23.72 108.447 23.72C109.134 23.72 109.697 23.7933 110.137 23.94C110.584 24.0867 110.87 24.21 110.997 24.31L110.287 26.24C110.12 26.1 109.884 26.0033 109.577 25.95C109.27 25.89 108.92 25.86 108.527 25.86C108.047 25.86 107.614 26 107.227 26.28C106.847 26.5533 106.544 26.97 106.317 27.53C106.097 28.0833 105.987 28.7767 105.987 29.61C105.974 30.7633 106.164 31.59 106.557 32.09C106.957 32.59 107.504 32.84 108.197 32.84C108.624 32.84 109.024 32.7667 109.397 32.62C109.777 32.4733 110.074 32.3233 110.287 32.17L110.657 33.69C110.504 33.8567 110.284 34.0567 109.997 34.29C109.71 34.5167 109.34 34.72 108.887 34.9C108.434 35.0733 107.877 35.16 107.217 35.16ZM121.077 35.16C119.364 35.16 118.051 34.65 117.137 33.63C116.224 32.61 115.767 31.2 115.767 29.4C115.767 28.32 115.974 27.3533 116.387 26.5C116.807 25.6467 117.414 24.9733 118.207 24.48C119.001 23.98 119.971 23.7267 121.117 23.72C121.697 23.7133 122.251 23.7867 122.777 23.94C123.304 24.0933 123.774 24.3433 124.187 24.69C124.601 25.03 124.931 25.4833 125.177 26.05C125.431 26.61 125.561 27.2967 125.567 28.11C125.567 28.5167 125.561 28.8933 125.547 29.24C125.534 29.5867 125.504 29.8833 125.457 30.13H117.407L117.607 28.48H122.727C122.761 27.94 122.731 27.4667 122.637 27.06C122.551 26.6467 122.377 26.3267 122.117 26.1C121.857 25.8667 121.491 25.75 121.017 25.75C120.557 25.75 120.154 25.8767 119.807 26.13C119.467 26.3833 119.204 26.82 119.017 27.44C118.837 28.0533 118.761 28.9 118.787 29.98C118.814 30.7067 118.954 31.29 119.207 31.73C119.467 32.1633 119.817 32.4767 120.257 32.67C120.704 32.8567 121.221 32.95 121.807 32.95C122.127 32.95 122.477 32.9233 122.857 32.87C123.237 32.8167 123.597 32.7467 123.937 32.66C124.277 32.5667 124.537 32.4733 124.717 32.38L125.227 34.04C124.981 34.24 124.641 34.4267 124.207 34.6C123.781 34.7667 123.294 34.9 122.747 35C122.207 35.1067 121.651 35.16 121.077 35.16ZM128.069 35V23.87H131.119V35H128.069ZM129.439 22.26C128.946 22.26 128.529 22.1067 128.189 21.8C127.849 21.4933 127.679 21.0933 127.679 20.6C127.679 20.2667 127.769 19.9633 127.949 19.69C128.136 19.41 128.376 19.1867 128.669 19.02C128.969 18.8533 129.289 18.77 129.629 18.77C130.176 18.77 130.603 18.9267 130.909 19.24C131.223 19.5467 131.379 19.9433 131.379 20.43C131.379 20.9367 131.186 21.37 130.799 21.73C130.419 22.0833 129.966 22.26 129.439 22.26ZM137.038 27.74L136.898 25.6C137.018 25.28 137.238 24.9767 137.558 24.69C137.878 24.3967 138.258 24.16 138.698 23.98C139.138 23.7933 139.602 23.7 140.088 23.7C140.288 23.7 140.472 23.71 140.638 23.73C140.812 23.75 140.938 23.7833 141.018 23.83V26.8C140.925 26.74 140.782 26.68 140.588 26.62C140.395 26.56 140.102 26.53 139.708 26.53C139.228 26.53 138.815 26.6 138.468 26.74C138.122 26.8733 137.828 27.0367 137.588 27.23C137.355 27.4167 137.172 27.5867 137.038 27.74ZM134.168 35V23.87H136.808L136.978 25.61L137.218 26.14V35H134.168ZM145.537 35.16C144.831 35.16 144.211 35.0167 143.677 34.73C143.144 34.4433 142.727 34.0433 142.427 33.53C142.134 33.0167 141.987 32.42 141.987 31.74C141.987 31.06 142.171 30.4767 142.537 29.99C142.911 29.5033 143.414 29.1233 144.047 28.85C144.481 28.67 144.954 28.53 145.467 28.43C145.987 28.33 146.504 28.26 147.017 28.22C147.537 28.18 148.021 28.16 148.467 28.16L148.977 28.79L148.467 29.77C148.227 29.77 147.957 29.7867 147.657 29.82C147.357 29.8533 147.067 29.9033 146.787 29.97C146.514 30.03 146.284 30.1 146.097 30.18C145.837 30.3 145.604 30.46 145.397 30.66C145.197 30.86 145.097 31.1667 145.097 31.58C145.097 32.12 145.247 32.52 145.547 32.78C145.847 33.0333 146.234 33.16 146.707 33.16C146.954 33.16 147.197 33.1267 147.437 33.06C147.684 32.9933 147.901 32.9167 148.087 32.83C148.274 32.7367 148.401 32.65 148.467 32.57L148.997 33.2L148.627 34.06C148.327 34.3267 147.914 34.5767 147.387 34.81C146.867 35.0433 146.251 35.16 145.537 35.16ZM151.517 35H148.627V33.34H148.467V27.34C148.467 26.7733 148.317 26.4033 148.017 26.23C147.717 26.05 147.287 25.96 146.727 25.96C146.307 25.96 145.867 25.9967 145.407 26.07C144.954 26.1433 144.524 26.24 144.117 26.36C143.711 26.48 143.371 26.61 143.097 26.75L142.437 24.83C142.664 24.6967 143.017 24.54 143.497 24.36C143.977 24.18 144.527 24.0233 145.147 23.89C145.767 23.75 146.391 23.68 147.017 23.68C148.044 23.68 148.887 23.8 149.547 24.04C150.214 24.28 150.707 24.6867 151.027 25.26C151.354 25.8333 151.517 26.6267 151.517 27.64V35Z" fill="white"/>
<path d="M41.6386 32.5562L41.2977 39.0279L41.2522 39.4148L31.7056 38.9048C31.1601 38.8697 30.6524 38.685 30.1827 38.3509C29.7129 38.0167 29.3568 37.6328 29.1144 37.199C28.9477 36.8824 28.8378 36.56 28.7848 36.2317C28.7318 35.9035 28.7621 35.5224 28.8757 35.0886C28.9894 34.6549 29.0803 34.3324 29.1485 34.1214C29.2167 33.9104 29.3796 33.5352 29.6372 32.9959C29.8948 32.4566 30.0387 32.1459 30.069 32.0638C31.251 32.2045 35.1075 32.3687 41.6386 32.5562ZM32.8421 22.2508L36.9335 28.9159L33.5922 27.298C32.6375 28.1421 31.7927 28.9892 31.0578 29.8392C30.3229 30.6892 29.7735 31.4219 29.4099 32.0375C29.0462 32.653 28.7469 33.2069 28.512 33.6993C28.2772 34.1918 28.137 34.5611 28.0915 34.8073L28.0006 35.1766L23.6819 28.8983C23.4243 28.5935 23.2879 28.2652 23.2728 27.9135C23.2576 27.5618 23.3031 27.2863 23.4091 27.087L23.591 26.7704C24.1213 26.0318 24.9851 24.9297 26.1822 23.4642L23 21.9518L32.8421 22.2508ZM60.8228 31.3428L56.5495 37.6562C56.3677 37.9962 56.0911 38.2688 55.7199 38.474C55.3486 38.6792 55.019 38.7993 54.7311 38.8345L54.322 38.9048C53.2461 38.9869 51.5868 39.0573 49.3441 39.1159L49.5259 42L44.298 35.5459L49.0941 29.1797L49.2532 32.2221C51.8292 32.4097 53.9734 32.439 55.6858 32.31C57.3981 32.1811 58.6861 31.9876 59.5499 31.7297L60.8228 31.3428ZM42.9797 15.0932C42.2675 15.8318 40.2597 18.3818 36.9562 22.7432L29.7508 19.4546L29.3189 19.2435L34.4332 12.9829C34.7363 12.6194 35.1909 12.3556 35.797 12.1915C36.4031 12.0274 37.0093 11.9687 37.6154 12.0156C37.9791 12.0391 38.3466 12.1094 38.7178 12.2267C39.0891 12.3439 39.4073 12.467 39.6725 12.596C39.9377 12.7249 40.2521 12.9184 40.6158 13.1763C40.9794 13.4342 41.2522 13.6365 41.434 13.783C41.6159 13.9296 41.8886 14.1611 42.2523 14.4777C42.616 14.7942 42.8585 14.9994 42.9797 15.0932ZM57.8679 20.4922L62.6866 26.8759C62.9594 27.3097 63.0541 27.7552 62.9707 28.2125C62.8874 28.6697 62.679 29.1035 62.3457 29.5138C62.1487 29.7483 61.8986 29.9652 61.5956 30.1645C61.2925 30.3638 61.0046 30.528 60.7318 30.6569C60.4591 30.7859 60.0916 30.9149 59.6294 31.0438C59.1673 31.1728 58.8111 31.2666 58.5611 31.3252C58.3111 31.3838 57.9209 31.4659 57.3905 31.5714C56.8602 31.6769 56.5116 31.7473 56.3449 31.7825C55.8297 30.9383 53.8219 28.3825 50.3215 24.1149L57.436 20.6856L57.8679 20.4922ZM54.6175 16.5177L57.8451 15.058L52.8445 21.6177L43.3206 21.2659L46.7529 19.7535C46.2377 18.7101 45.6694 17.737 45.0481 16.8342C44.4268 15.9315 43.8548 15.2075 43.332 14.6623C42.8092 14.1172 42.3205 13.6482 41.8659 13.2555C41.4113 12.8627 41.0552 12.5901 40.7976 12.4377L40.4112 12.2091L49.6169 12.2267C50.0866 12.1915 50.5261 12.253 50.9352 12.4113C51.3443 12.5696 51.6398 12.7367 51.8217 12.9125L52.0717 13.1763C52.6627 13.8915 53.5113 15.0053 54.6175 16.5177Z" fill="white"/>
</g>
<defs>
<clipPath id="clip0_101_24">
<rect width="196" height="54" rx="10" fill="white"/>
</clipPath>
</defs>
</svg>
