<svg width="41" height="41" viewBox="0 0 41 41" fill="none" xmlns="http://www.w3.org/2000/svg">
<path d="M34.1667 17.0833H6.83332C4.95416 17.0833 3.41666 18.6208 3.41666 20.5C3.41666 22.3792 4.95416 23.9167 6.83332 23.9167H34.1667C36.0458 23.9167 37.5833 22.3792 37.5833 20.5C37.5833 18.6208 36.0458 17.0833 34.1667 17.0833ZM6.83332 13.6667H27.3333C29.2125 13.6667 30.75 12.1292 30.75 10.25C30.75 8.37083 29.2125 6.83333 27.3333 6.83333H6.83332C4.95416 6.83333 3.41666 8.37083 3.41666 10.25C3.41666 12.1292 4.95416 13.6667 6.83332 13.6667ZM27.3333 27.3333H6.83332C4.95416 27.3333 3.41666 28.8708 3.41666 30.75C3.41666 32.6292 4.95416 34.1667 6.83332 34.1667H27.3333C29.2125 34.1667 30.75 32.6292 30.75 30.75C30.75 28.8708 29.2125 27.3333 27.3333 27.3333Z" fill="#22577A"/>
</svg>
