<svg width="48" height="48" viewBox="0 0 50 50" fill="none" xmlns="http://www.w3.org/2000/svg">
<path d="M41.6666 20.8333H8.33329C6.04163 20.8333 4.16663 22.7083 4.16663 25C4.16663 27.2917 6.04163 29.1667 8.33329 29.1667H41.6666C43.9583 29.1667 45.8333 27.2917 45.8333 25C45.8333 22.7083 43.9583 20.8333 41.6666 20.8333ZM8.33329 16.6667H33.3333C35.625 16.6667 37.5 14.7917 37.5 12.5C37.5 10.2083 35.625 8.33333 33.3333 8.33333H8.33329C6.04163 8.33333 4.16663 10.2083 4.16663 12.5C4.16663 14.7917 6.04163 16.6667 8.33329 16.6667ZM33.3333 33.3333H8.33329C6.04163 33.3333 4.16663 35.2083 4.16663 37.5C4.16663 39.7917 6.04163 41.6667 8.33329 41.6667H33.3333C35.625 41.6667 37.5 39.7917 37.5 37.5C37.5 35.2083 35.625 33.3333 33.3333 33.3333Z" fill="#135D46"/>
</svg>
