<svg width="204" height="62" viewBox="0 0 204 62" fill="none" xmlns="http://www.w3.org/2000/svg">
<g filter="url(#filter0_d_101_15)">
<rect x="4" width="196" height="54" rx="12" fill="#DDB31F" fill-opacity="0.75"/>
<path d="M94.9 35L96.54 20.14H100.82L102.97 28.08L103.69 31.43L104.29 28.08L106.28 20.14H110.4L112.22 35H109.17L108.44 26.67L108.2 22.46L107.23 26.74L104.83 35.11H102.35L99.79 26.74L98.77 22.46L98.49 26.67L97.83 35H94.9ZM119.331 35.16C117.618 35.16 116.304 34.65 115.391 33.63C114.478 32.61 114.021 31.2 114.021 29.4C114.021 28.32 114.228 27.3533 114.641 26.5C115.061 25.6467 115.668 24.9733 116.461 24.48C117.254 23.98 118.224 23.7267 119.371 23.72C119.951 23.7133 120.504 23.7867 121.031 23.94C121.558 24.0933 122.028 24.3433 122.441 24.69C122.854 25.03 123.184 25.4833 123.431 26.05C123.684 26.61 123.814 27.2967 123.821 28.11C123.821 28.5167 123.814 28.8933 123.801 29.24C123.788 29.5867 123.758 29.8833 123.711 30.13H115.661L115.861 28.48H120.981C121.014 27.94 120.984 27.4667 120.891 27.06C120.804 26.6467 120.631 26.3267 120.371 26.1C120.111 25.8667 119.744 25.75 119.271 25.75C118.811 25.75 118.408 25.8767 118.061 26.13C117.721 26.3833 117.458 26.82 117.271 27.44C117.091 28.0533 117.014 28.9 117.041 29.98C117.068 30.7067 117.208 31.29 117.461 31.73C117.721 32.1633 118.071 32.4767 118.511 32.67C118.958 32.8567 119.474 32.95 120.061 32.95C120.381 32.95 120.731 32.9233 121.111 32.87C121.491 32.8167 121.851 32.7467 122.191 32.66C122.531 32.5667 122.791 32.4733 122.971 32.38L123.481 34.04C123.234 34.24 122.894 34.4267 122.461 34.6C122.034 34.7667 121.548 34.9 121.001 35C120.461 35.1067 119.904 35.16 119.331 35.16ZM129.633 35.16C128.953 35.16 128.39 35.05 127.943 34.83C127.503 34.6033 127.173 34.2467 126.953 33.76C126.74 33.2733 126.633 32.63 126.633 31.83V25.95H125.283V24.32C125.776 24.18 126.17 24.0467 126.463 23.92C126.763 23.7933 126.98 23.5733 127.113 23.26C127.18 23.1067 127.25 22.9267 127.323 22.72C127.403 22.5133 127.486 22.29 127.573 22.05C127.66 21.81 127.75 21.5667 127.843 21.32H129.683V23.86H132.673V25.95H129.683V30.54C129.683 31.2467 129.72 31.7633 129.793 32.09C129.866 32.41 129.993 32.6167 130.173 32.71C130.353 32.7967 130.613 32.84 130.953 32.84C131.126 32.84 131.326 32.82 131.553 32.78C131.78 32.7333 131.996 32.6767 132.203 32.61C132.41 32.5433 132.57 32.4733 132.683 32.4L133.083 34.11C132.903 34.27 132.633 34.4333 132.273 34.6C131.913 34.76 131.503 34.8933 131.043 35C130.583 35.1067 130.113 35.16 129.633 35.16ZM138.01 35.16C137.303 35.16 136.683 35.0167 136.15 34.73C135.617 34.4433 135.2 34.0433 134.9 33.53C134.607 33.0167 134.46 32.42 134.46 31.74C134.46 31.06 134.643 30.4767 135.01 29.99C135.383 29.5033 135.887 29.1233 136.52 28.85C136.953 28.67 137.427 28.53 137.94 28.43C138.46 28.33 138.977 28.26 139.49 28.22C140.01 28.18 140.493 28.16 140.94 28.16L141.45 28.79L140.94 29.77C140.7 29.77 140.43 29.7867 140.13 29.82C139.83 29.8533 139.54 29.9033 139.26 29.97C138.987 30.03 138.757 30.1 138.57 30.18C138.31 30.3 138.077 30.46 137.87 30.66C137.67 30.86 137.57 31.1667 137.57 31.58C137.57 32.12 137.72 32.52 138.02 32.78C138.32 33.0333 138.707 33.16 139.18 33.16C139.427 33.16 139.67 33.1267 139.91 33.06C140.157 32.9933 140.373 32.9167 140.56 32.83C140.747 32.7367 140.873 32.65 140.94 32.57L141.47 33.2L141.1 34.06C140.8 34.3267 140.387 34.5767 139.86 34.81C139.34 35.0433 138.723 35.16 138.01 35.16ZM143.99 35H141.1V33.34H140.94V27.34C140.94 26.7733 140.79 26.4033 140.49 26.23C140.19 26.05 139.76 25.96 139.2 25.96C138.78 25.96 138.34 25.9967 137.88 26.07C137.427 26.1433 136.997 26.24 136.59 26.36C136.183 26.48 135.843 26.61 135.57 26.75L134.91 24.83C135.137 24.6967 135.49 24.54 135.97 24.36C136.45 24.18 137 24.0233 137.62 23.89C138.24 23.75 138.863 23.68 139.49 23.68C140.517 23.68 141.36 23.8 142.02 24.04C142.687 24.28 143.18 24.6867 143.5 25.26C143.827 25.8333 143.99 26.6267 143.99 27.64V35ZM146.966 35V18.75H150.026V35H146.966Z" fill="white"/>
<path d="M64.6386 32.5562L64.2977 39.0279L64.2522 39.4148L54.7056 38.9048C54.1601 38.8697 53.6524 38.685 53.1827 38.3509C52.7129 38.0167 52.3568 37.6328 52.1144 37.199C51.9477 36.8824 51.8378 36.56 51.7848 36.2317C51.7318 35.9035 51.7621 35.5224 51.8757 35.0886C51.9894 34.6549 52.0803 34.3324 52.1485 34.1214C52.2167 33.9104 52.3796 33.5352 52.6372 32.9959C52.8948 32.4566 53.0387 32.1459 53.069 32.0638C54.251 32.2045 58.1075 32.3687 64.6386 32.5562ZM55.8421 22.2508L59.9335 28.9159L56.5922 27.298C55.6375 28.1421 54.7927 28.9892 54.0578 29.8392C53.3229 30.6892 52.7735 31.4219 52.4099 32.0375C52.0462 32.653 51.7469 33.2069 51.512 33.6993C51.2772 34.1918 51.137 34.5611 51.0915 34.8073L51.0006 35.1766L46.6819 28.8983C46.4243 28.5935 46.2879 28.2652 46.2728 27.9135C46.2576 27.5618 46.3031 27.2863 46.4091 27.087L46.591 26.7704C47.1213 26.0318 47.9851 24.9297 49.1822 23.4642L46 21.9518L55.8421 22.2508ZM83.8228 31.3428L79.5495 37.6562C79.3677 37.9962 79.0911 38.2688 78.7199 38.474C78.3486 38.6792 78.019 38.7993 77.7311 38.8345L77.322 38.9048C76.2461 38.9869 74.5868 39.0573 72.3441 39.1159L72.5259 42L67.298 35.5459L72.0941 29.1797L72.2532 32.2221C74.8292 32.4097 76.9734 32.439 78.6858 32.31C80.3981 32.1811 81.6861 31.9876 82.5499 31.7297L83.8228 31.3428ZM65.9797 15.0932C65.2675 15.8318 63.2597 18.3818 59.9562 22.7432L52.7508 19.4546L52.3189 19.2435L57.4332 12.9829C57.7363 12.6194 58.1909 12.3556 58.797 12.1915C59.4031 12.0274 60.0093 11.9687 60.6154 12.0156C60.9791 12.0391 61.3466 12.1094 61.7178 12.2267C62.0891 12.3439 62.4073 12.467 62.6725 12.596C62.9377 12.7249 63.2521 12.9184 63.6158 13.1763C63.9794 13.4342 64.2522 13.6365 64.434 13.783C64.6159 13.9296 64.8886 14.1611 65.2523 14.4777C65.616 14.7942 65.8585 14.9994 65.9797 15.0932ZM80.8679 20.4922L85.6866 26.8759C85.9594 27.3097 86.0541 27.7552 85.9707 28.2125C85.8874 28.6697 85.679 29.1035 85.3457 29.5138C85.1487 29.7483 84.8986 29.9652 84.5956 30.1645C84.2925 30.3638 84.0046 30.528 83.7318 30.6569C83.4591 30.7859 83.0916 30.9149 82.6294 31.0438C82.1673 31.1728 81.8111 31.2666 81.5611 31.3252C81.3111 31.3838 80.9209 31.4659 80.3905 31.5714C79.8602 31.6769 79.5116 31.7473 79.3449 31.7825C78.8297 30.9383 76.8219 28.3825 73.3215 24.1149L80.436 20.6856L80.8679 20.4922ZM77.6175 16.5177L80.8451 15.058L75.8445 21.6177L66.3206 21.2659L69.7529 19.7535C69.2377 18.7101 68.6694 17.737 68.0481 16.8342C67.4268 15.9315 66.8548 15.2075 66.332 14.6623C65.8092 14.1172 65.3205 13.6482 64.8659 13.2555C64.4113 12.8627 64.0552 12.5901 63.7976 12.4377L63.4112 12.2091L72.6169 12.2267C73.0866 12.1915 73.5261 12.253 73.9352 12.4113C74.3443 12.5696 74.6398 12.7367 74.8217 12.9125L75.0717 13.1763C75.6627 13.8915 76.5113 15.0053 77.6175 16.5177Z" fill="white"/>
</g>
<defs>
<filter id="filter0_d_101_15" x="0" y="0" width="204" height="62" filterUnits="userSpaceOnUse" color-interpolation-filters="sRGB">
<feFlood flood-opacity="0" result="BackgroundImageFix"/>
<feColorMatrix in="SourceAlpha" type="matrix" values="0 0 0 0 0 0 0 0 0 0 0 0 0 0 0 0 0 0 127 0" result="hardAlpha"/>
<feOffset dy="4"/>
<feGaussianBlur stdDeviation="2"/>
<feComposite in2="hardAlpha" operator="out"/>
<feColorMatrix type="matrix" values="0 0 0 0 0 0 0 0 0 0 0 0 0 0 0 0 0 0 0.25 0"/>
<feBlend mode="normal" in2="BackgroundImageFix" result="effect1_dropShadow_101_15"/>
<feBlend mode="normal" in="SourceGraphic" in2="effect1_dropShadow_101_15" result="shape"/>
</filter>
</defs>
</svg>
