<svg width="70" height="70" viewBox="0 0 70 70" fill="none" xmlns="http://www.w3.org/2000/svg">
<g clip-path="url(#clip0_1_119)">
<path d="M35 6.5625C29.3756 6.5625 23.8775 8.23033 19.201 11.3551C14.5244 14.4798 10.8795 18.9212 8.72717 24.1174C6.57481 29.3137 6.01165 35.0315 7.10892 40.5479C8.20618 46.0642 10.9146 51.1313 14.8916 55.1083C18.8687 59.0854 23.9358 61.7938 29.4521 62.8911C34.9685 63.9883 40.6863 63.4252 45.8826 61.2728C51.0788 59.1205 55.5202 55.4755 58.6449 50.799C61.7697 46.1225 63.4375 40.6244 63.4375 35C63.423 27.4623 60.4223 20.2376 55.0924 14.9076C49.7624 9.57768 42.5377 6.57695 35 6.5625ZM45.9375 37.1875H37.1875V45.9375C37.1875 46.5177 36.957 47.0741 36.5468 47.4843C36.1366 47.8945 35.5802 48.125 35 48.125C34.4198 48.125 33.8634 47.8945 33.4532 47.4843C33.043 47.0741 32.8125 46.5177 32.8125 45.9375V37.1875H24.0625C23.4823 37.1875 22.9259 36.957 22.5157 36.5468C22.1055 36.1366 21.875 35.5802 21.875 35C21.875 34.4198 22.1055 33.8634 22.5157 33.4532C22.9259 33.043 23.4823 32.8125 24.0625 32.8125H32.8125V24.0625C32.8125 23.4823 33.043 22.9259 33.4532 22.5157C33.8634 22.1055 34.4198 21.875 35 21.875C35.5802 21.875 36.1366 22.1055 36.5468 22.5157C36.957 22.9259 37.1875 23.4823 37.1875 24.0625V32.8125H45.9375C46.5177 32.8125 47.0741 33.043 47.4843 33.4532C47.8945 33.8634 48.125 34.4198 48.125 35C48.125 35.5802 47.8945 36.1366 47.4843 36.5468C47.0741 36.957 46.5177 37.1875 45.9375 37.1875Z" fill="#135E46"/>
</g>
<defs>
<clipPath id="clip0_1_119">
<rect width="70" height="70" fill="white"/>
</clipPath>
</defs>
</svg>
