<svg width="60" height="55" viewBox="0 0 60 55" fill="none" xmlns="http://www.w3.org/2000/svg">
<rect width="60" height="55" rx="12" fill="#4E3333"/>
<path d="M29.0625 33.9792L28.7429 41.7535L28.7003 42.2182L19.7514 41.6056C19.2401 41.5633 18.7642 41.3415 18.3239 40.9401C17.8835 40.5387 17.5497 40.0775 17.3224 39.5564C17.1662 39.1761 17.0632 38.7888 17.0135 38.3945C16.9638 38.0001 16.9922 37.5424 17.0987 37.0213C17.2053 36.5002 17.2905 36.1129 17.3544 35.8594C17.4183 35.6059 17.571 35.1552 17.8125 34.5074C18.054 33.8595 18.1889 33.4863 18.2173 33.3877C19.3253 33.5567 22.9403 33.7539 29.0625 33.9792ZM20.8168 21.5996L24.652 29.6062L21.5199 27.6627C20.625 28.6767 19.8331 29.6942 19.1442 30.7153C18.4553 31.7364 17.9403 32.6166 17.5994 33.356C17.2585 34.0954 16.978 34.7609 16.7578 35.3524C16.5376 35.9439 16.4063 36.3876 16.3636 36.6833L16.2784 37.1269L12.2301 29.5851C11.9886 29.2189 11.8608 28.8246 11.8466 28.4021C11.8324 27.9795 11.875 27.6486 11.9744 27.4092L12.1449 27.0289C12.642 26.1416 13.4517 24.8177 14.5739 23.0573L11.5909 21.2405L20.8168 21.5996ZM47.0455 32.5216L43.0398 40.1057C42.8693 40.5141 42.6101 40.8415 42.2621 41.088C41.9141 41.3345 41.6051 41.4788 41.3352 41.5211L40.9517 41.6056C39.9432 41.7042 38.3878 41.7887 36.2855 41.8591L36.456 45.3237L31.5554 37.5706L36.0511 29.9231L36.2003 33.5778C38.6151 33.8032 40.625 33.8384 42.2301 33.6835C43.8352 33.5285 45.0426 33.2962 45.8523 32.9863L47.0455 32.5216ZM30.3196 13.0015C29.652 13.8887 27.7699 16.952 24.6733 22.1911L17.919 18.2406L17.5142 17.9871L22.3082 10.4664C22.5923 10.0298 23.0185 9.71291 23.5867 9.51574C24.1548 9.31857 24.723 9.24815 25.2912 9.30448C25.6321 9.33265 25.9766 9.41715 26.3246 9.55799C26.6726 9.69883 26.9709 9.84671 27.2195 10.0016C27.468 10.1566 27.7628 10.3889 28.1037 10.6988C28.4446 11.0086 28.7003 11.2516 28.8707 11.4276C29.0412 11.6037 29.2969 11.8818 29.6378 12.2621C29.9787 12.6423 30.206 12.8888 30.3196 13.0015ZM44.2756 19.487L48.7926 27.1556C49.0483 27.6767 49.1371 28.2119 49.059 28.7612C48.9808 29.3105 48.7855 29.8316 48.473 30.3245C48.2884 30.6062 48.054 30.8667 47.7699 31.1061C47.4858 31.3456 47.2159 31.5427 46.9602 31.6977C46.7045 31.8526 46.3601 32.0075 45.9268 32.1624C45.4936 32.3173 45.1598 32.43 44.9254 32.5004C44.6911 32.5709 44.3253 32.6694 43.8281 32.7962C43.331 32.9229 43.0043 33.0075 42.848 33.0497C42.3651 32.0357 40.483 28.9654 37.2017 23.8389L43.8707 19.7194L44.2756 19.487ZM41.2287 14.7126L44.2543 12.9592L39.5668 20.8391L30.6392 20.4166L33.8565 18.5998C33.3736 17.3463 32.8409 16.1774 32.2585 15.0929C31.6761 14.0085 31.1399 13.1388 30.6499 12.4839C30.1598 11.829 29.7017 11.2656 29.2756 10.7938C28.8494 10.322 28.5156 9.99459 28.2742 9.8115L27.9119 9.53687L36.5412 9.55799C36.9815 9.51574 37.3935 9.58968 37.777 9.77981C38.1605 9.96994 38.4375 10.1706 38.608 10.3819L38.8423 10.6988C39.3963 11.5579 40.1918 12.8958 41.2287 14.7126Z" fill="white"/>
</svg>
