<svg width="196" height="54" viewBox="0 0 196 54" fill="none" xmlns="http://www.w3.org/2000/svg">
<rect width="196" height="54" rx="12" fill="#2962A6" fill-opacity="0.75"/>
<path d="M91.67 35V20.14H92.94C93.5933 20.14 94.2433 20.1133 94.89 20.06C95.5367 20.0067 96.2133 19.98 96.92 19.98C98.0667 19.98 99.05 20.15 99.87 20.49C100.69 20.8233 101.32 21.3633 101.76 22.11C102.207 22.8567 102.43 23.84 102.43 25.06C102.43 26.76 101.92 28.0767 100.9 29.01C99.8867 29.9433 98.4167 30.41 96.49 30.41C96.07 30.41 95.7267 30.4067 95.46 30.4C95.2 30.3933 94.9833 30.39 94.81 30.39V35H91.67ZM94.81 28.05C95.0633 28.0833 95.3233 28.1067 95.59 28.12C95.8633 28.1333 96.1433 28.14 96.43 28.14C96.9633 28.14 97.45 28.05 97.89 27.87C98.3367 27.69 98.69 27.3767 98.95 26.93C99.2167 26.4833 99.35 25.8567 99.35 25.05C99.35 24.1033 99.1033 23.38 98.61 22.88C98.1167 22.38 97.3733 22.1467 96.38 22.18C96.1267 22.1867 95.86 22.2 95.58 22.22C95.3 22.24 95.0433 22.2733 94.81 22.32V28.05ZM107.076 35.16C106.37 35.16 105.75 35.0167 105.216 34.73C104.683 34.4433 104.266 34.0433 103.966 33.53C103.673 33.0167 103.526 32.42 103.526 31.74C103.526 31.06 103.71 30.4767 104.076 29.99C104.45 29.5033 104.953 29.1233 105.586 28.85C106.02 28.67 106.493 28.53 107.006 28.43C107.526 28.33 108.043 28.26 108.556 28.22C109.076 28.18 109.56 28.16 110.006 28.16L110.516 28.79L110.006 29.77C109.766 29.77 109.496 29.7867 109.196 29.82C108.896 29.8533 108.606 29.9033 108.326 29.97C108.053 30.03 107.823 30.1 107.636 30.18C107.376 30.3 107.143 30.46 106.936 30.66C106.736 30.86 106.636 31.1667 106.636 31.58C106.636 32.12 106.786 32.52 107.086 32.78C107.386 33.0333 107.773 33.16 108.246 33.16C108.493 33.16 108.736 33.1267 108.976 33.06C109.223 32.9933 109.44 32.9167 109.626 32.83C109.813 32.7367 109.94 32.65 110.006 32.57L110.536 33.2L110.166 34.06C109.866 34.3267 109.453 34.5767 108.926 34.81C108.406 35.0433 107.79 35.16 107.076 35.16ZM113.056 35H110.166V33.34H110.006V27.34C110.006 26.7733 109.856 26.4033 109.556 26.23C109.256 26.05 108.826 25.96 108.266 25.96C107.846 25.96 107.406 25.9967 106.946 26.07C106.493 26.1433 106.063 26.24 105.656 26.36C105.25 26.48 104.91 26.61 104.636 26.75L103.976 24.83C104.203 24.6967 104.556 24.54 105.036 24.36C105.516 24.18 106.066 24.0233 106.686 23.89C107.306 23.75 107.93 23.68 108.556 23.68C109.583 23.68 110.426 23.8 111.086 24.04C111.753 24.28 112.246 24.6867 112.566 25.26C112.893 25.8333 113.056 26.6267 113.056 27.64V35ZM116.082 39.94V23.86H118.932V25.22L119.132 25.46V33.78L119.102 34.56L119.132 36.36V39.94H116.082ZM120.932 35.16C120.259 35.16 119.706 35.0833 119.272 34.93C118.839 34.77 118.559 34.6433 118.432 34.55L119.132 32.61C119.299 32.77 119.529 32.8867 119.822 32.96C120.122 33.0267 120.462 33.06 120.842 33.06C121.336 33.06 121.772 32.9133 122.152 32.62C122.532 32.3267 122.832 31.9 123.052 31.34C123.279 30.7733 123.396 30.0833 123.402 29.27C123.409 28.0833 123.216 27.2433 122.822 26.75C122.429 26.2567 121.886 26.01 121.192 26.01C120.759 26.01 120.359 26.0867 119.992 26.24C119.632 26.3933 119.346 26.5533 119.132 26.72L118.762 25.17C118.916 25.0033 119.129 24.8067 119.402 24.58C119.682 24.3533 120.046 24.1533 120.492 23.98C120.939 23.8067 121.496 23.72 122.162 23.72C122.949 23.72 123.679 23.9133 124.352 24.3C125.026 24.68 125.566 25.2633 125.972 26.05C126.379 26.83 126.582 27.82 126.582 29.02C126.582 30.26 126.349 31.34 125.882 32.26C125.416 33.1733 124.756 33.8867 123.902 34.4C123.056 34.9067 122.066 35.16 120.932 35.16ZM133.671 35.16C131.958 35.16 130.644 34.65 129.731 33.63C128.818 32.61 128.361 31.2 128.361 29.4C128.361 28.32 128.568 27.3533 128.981 26.5C129.401 25.6467 130.008 24.9733 130.801 24.48C131.594 23.98 132.564 23.7267 133.711 23.72C134.291 23.7133 134.844 23.7867 135.371 23.94C135.898 24.0933 136.368 24.3433 136.781 24.69C137.194 25.03 137.524 25.4833 137.771 26.05C138.024 26.61 138.154 27.2967 138.161 28.11C138.161 28.5167 138.154 28.8933 138.141 29.24C138.128 29.5867 138.098 29.8833 138.051 30.13H130.001L130.201 28.48H135.321C135.354 27.94 135.324 27.4667 135.231 27.06C135.144 26.6467 134.971 26.3267 134.711 26.1C134.451 25.8667 134.084 25.75 133.611 25.75C133.151 25.75 132.748 25.8767 132.401 26.13C132.061 26.3833 131.798 26.82 131.611 27.44C131.431 28.0533 131.354 28.9 131.381 29.98C131.408 30.7067 131.548 31.29 131.801 31.73C132.061 32.1633 132.411 32.4767 132.851 32.67C133.298 32.8567 133.814 32.95 134.401 32.95C134.721 32.95 135.071 32.9233 135.451 32.87C135.831 32.8167 136.191 32.7467 136.531 32.66C136.871 32.5667 137.131 32.4733 137.311 32.38L137.821 34.04C137.574 34.24 137.234 34.4267 136.801 34.6C136.374 34.7667 135.888 34.9 135.341 35C134.801 35.1067 134.244 35.16 133.671 35.16ZM140.583 35V18.75H143.643V35H140.583Z" fill="white"/>
<path d="M60.6386 32.5562L60.2977 39.0279L60.2522 39.4148L50.7056 38.9048C50.1601 38.8697 49.6524 38.685 49.1827 38.3509C48.7129 38.0167 48.3568 37.6328 48.1144 37.199C47.9477 36.8824 47.8378 36.56 47.7848 36.2317C47.7318 35.9035 47.7621 35.5224 47.8757 35.0886C47.9894 34.6549 48.0803 34.3324 48.1485 34.1214C48.2167 33.9104 48.3796 33.5352 48.6372 32.9959C48.8948 32.4566 49.0387 32.1459 49.069 32.0638C50.251 32.2045 54.1075 32.3687 60.6386 32.5562ZM51.8421 22.2508L55.9335 28.9159L52.5922 27.298C51.6375 28.1421 50.7927 28.9892 50.0578 29.8392C49.3229 30.6892 48.7735 31.4219 48.4099 32.0375C48.0462 32.653 47.7469 33.2069 47.512 33.6993C47.2772 34.1918 47.137 34.5611 47.0915 34.8073L47.0006 35.1766L42.6819 28.8983C42.4243 28.5935 42.2879 28.2652 42.2728 27.9135C42.2576 27.5618 42.3031 27.2863 42.4091 27.087L42.591 26.7704C43.1213 26.0318 43.9851 24.9297 45.1822 23.4642L42 21.9518L51.8421 22.2508ZM79.8228 31.3428L75.5495 37.6562C75.3677 37.9962 75.0911 38.2688 74.7199 38.474C74.3486 38.6792 74.019 38.7993 73.7311 38.8345L73.322 38.9048C72.2461 38.9869 70.5868 39.0573 68.3441 39.1159L68.5259 42L63.298 35.5459L68.0941 29.1797L68.2532 32.2221C70.8292 32.4097 72.9734 32.439 74.6858 32.31C76.3981 32.1811 77.6861 31.9876 78.5499 31.7297L79.8228 31.3428ZM61.9797 15.0932C61.2675 15.8318 59.2597 18.3818 55.9562 22.7432L48.7508 19.4546L48.3189 19.2435L53.4332 12.9829C53.7363 12.6194 54.1909 12.3556 54.797 12.1915C55.4031 12.0274 56.0093 11.9687 56.6154 12.0156C56.9791 12.0391 57.3466 12.1094 57.7178 12.2267C58.0891 12.3439 58.4073 12.467 58.6725 12.596C58.9377 12.7249 59.2521 12.9184 59.6158 13.1763C59.9794 13.4342 60.2522 13.6365 60.434 13.783C60.6159 13.9296 60.8886 14.1611 61.2523 14.4777C61.616 14.7942 61.8585 14.9994 61.9797 15.0932ZM76.8679 20.4922L81.6866 26.8759C81.9594 27.3097 82.0541 27.7552 81.9707 28.2125C81.8874 28.6697 81.679 29.1035 81.3457 29.5138C81.1487 29.7483 80.8986 29.9652 80.5956 30.1645C80.2925 30.3638 80.0046 30.528 79.7318 30.6569C79.4591 30.7859 79.0916 30.9149 78.6294 31.0438C78.1673 31.1728 77.8111 31.2666 77.5611 31.3252C77.3111 31.3838 76.9209 31.4659 76.3905 31.5714C75.8602 31.6769 75.5116 31.7473 75.3449 31.7825C74.8297 30.9383 72.8219 28.3825 69.3215 24.1149L76.436 20.6856L76.8679 20.4922ZM73.6175 16.5177L76.8451 15.058L71.8445 21.6177L62.3206 21.2659L65.7529 19.7535C65.2377 18.7101 64.6694 17.737 64.0481 16.8342C63.4268 15.9315 62.8548 15.2075 62.332 14.6623C61.8092 14.1172 61.3205 13.6482 60.8659 13.2555C60.4113 12.8627 60.0552 12.5901 59.7976 12.4377L59.4112 12.2091L68.6169 12.2267C69.0866 12.1915 69.5261 12.253 69.9352 12.4113C70.3443 12.5696 70.6398 12.7367 70.8217 12.9125L71.0717 13.1763C71.6627 13.8915 72.5113 15.0053 73.6175 16.5177Z" fill="white"/>
</svg>
