<svg width="70" height="70" viewBox="0 0 70 70" fill="none" xmlns="http://www.w3.org/2000/svg">
<g clip-path="url(#clip0_1_90)">
<path d="M63.4101 57.9688C59.3284 50.9374 52.795 45.66 45.0625 43.1484C48.7689 40.9444 51.6491 37.5845 53.2608 33.5848C54.8724 29.5851 55.1263 25.1669 53.9835 21.0089C52.8406 16.8509 50.3642 13.1832 46.9346 10.5691C43.5051 7.95503 39.3122 6.53925 35 6.53925C30.6878 6.53925 26.4949 7.95503 23.0653 10.5691C19.6358 13.1832 17.1594 16.8509 16.0165 21.0089C14.8737 25.1669 15.1275 29.5851 16.7392 33.5848C18.3508 37.5845 21.2311 40.9444 24.9375 43.1484C17.2049 45.66 10.6715 50.9374 6.58983 57.9688C6.38943 58.2984 6.28345 58.6767 6.28345 59.0625C6.28345 59.4483 6.38943 59.8266 6.58983 60.1563C6.7768 60.4915 7.05076 60.77 7.38282 60.9625C7.71489 61.155 8.09275 61.2543 8.47655 61.25H61.5234C61.9072 61.2543 62.2851 61.155 62.6171 60.9625C62.9492 60.77 63.2232 60.4915 63.4101 60.1563C63.6105 59.8266 63.7165 59.4483 63.7165 59.0625C63.7165 58.6767 63.6105 58.2984 63.4101 57.9688Z" fill="#135E46"/>
</g>
<defs>
<clipPath id="clip0_1_90">
<rect width="70" height="70" fill="white"/>
</clipPath>
</defs>
</svg>
