<svg width="23" height="24" viewBox="0 0 23 24" fill="none" xmlns="http://www.w3.org/2000/svg">
<g clip-path="url(#clip0_3_21)">
<path d="M20.8348 19.875C19.4936 17.4642 17.347 15.6549 14.8063 14.7938C16.0241 14.0381 16.9704 12.8861 17.5 11.5148C18.0295 10.1435 18.113 8.62865 17.7374 7.20305C17.3619 5.77746 16.5482 4.51994 15.4214 3.62369C14.2945 2.72744 12.9169 2.24203 11.5 2.24203C10.0831 2.24203 8.70547 2.72744 7.57863 3.62369C6.45178 4.51994 5.6381 5.77746 5.26259 7.20305C4.88707 8.62865 4.97049 10.1435 5.50003 11.5148C6.02957 12.8861 6.97594 14.0381 8.19376 14.7938C5.65307 15.6549 3.50637 17.4642 2.16524 19.875C2.0994 19.988 2.06458 20.1177 2.06458 20.25C2.06458 20.3823 2.0994 20.512 2.16524 20.625C2.22668 20.7399 2.31669 20.8354 2.4258 20.9014C2.53491 20.9674 2.65906 21.0015 2.78517 21H20.2149C20.341 21.0015 20.4651 20.9674 20.5742 20.9014C20.6833 20.8354 20.7733 20.7399 20.8348 20.625C20.9006 20.512 20.9354 20.3823 20.9354 20.25C20.9354 20.1177 20.9006 19.988 20.8348 19.875Z" fill="#22577A"/>
</g>
<defs>
<clipPath id="clip0_3_21">
<rect width="23" height="24" fill="white"/>
</clipPath>
</defs>
</svg>
