<svg width="88" height="77" viewBox="0 0 88 77" fill="none" xmlns="http://www.w3.org/2000/svg">
<rect width="88" height="77" rx="12" fill="#940F0F"/>
<path d="M42.625 47.5709L42.1562 58.4549L42.0938 59.1055L28.9688 58.2478C28.2188 58.1887 27.5208 57.8781 26.875 57.3162C26.2292 56.7542 25.7396 56.1085 25.4062 55.379C25.1771 54.8466 25.026 54.3044 24.9531 53.7523C24.8802 53.2002 24.9219 52.5594 25.0781 51.8299C25.2344 51.1003 25.3594 50.5581 25.4531 50.2032C25.5469 49.8483 25.7708 49.2173 26.125 48.3103C26.4792 47.4033 26.6771 46.8808 26.7188 46.7428C28.3438 46.9794 33.6458 47.2555 42.625 47.5709ZM30.5312 30.2395L36.1562 41.4487L31.5625 38.7277C30.25 40.1474 29.0885 41.572 28.0781 43.0015C27.0677 44.431 26.3125 45.6633 25.8125 46.6984C25.3125 47.7336 24.901 48.6652 24.5781 49.4934C24.2552 50.3215 24.0625 50.9426 24 51.3566L23.875 51.9777L17.9375 41.4191C17.5833 40.9065 17.3958 40.3544 17.375 39.7629C17.3542 39.1714 17.4167 38.708 17.5625 38.3728L17.8125 37.8405C18.5417 36.5983 19.7292 34.7449 21.375 32.2802L17 29.7367L30.5312 30.2395ZM69 45.5302L63.125 56.1479C62.875 56.7197 62.4948 57.1782 61.9844 57.5232C61.474 57.8683 61.0208 58.0704 60.625 58.1295L60.0625 58.2478C58.5833 58.3859 56.3021 58.5042 53.2188 58.6027L53.4688 63.4532L46.2812 52.5988L52.875 41.8924L53.0938 47.009C56.6354 47.3245 59.5833 47.3738 61.9375 47.1569C64.2917 46.94 66.0625 46.6146 67.25 46.1809L69 45.5302ZM44.4688 18.2021C43.4896 19.4443 40.7292 23.7328 36.1875 31.0676L26.2812 25.5369L25.6875 25.182L32.7188 14.653C33.1354 14.0417 33.7604 13.5981 34.5938 13.322C35.4271 13.046 36.2604 12.9474 37.0938 13.0263C37.5938 13.0657 38.099 13.184 38.6094 13.3812C39.1198 13.5784 39.5573 13.7854 39.9219 14.0023C40.2865 14.2192 40.7188 14.5445 41.2188 14.9783C41.7188 15.4121 42.0938 15.7522 42.3438 15.9987C42.5938 16.2451 42.9688 16.6345 43.4688 17.1669C43.9688 17.6993 44.3021 18.0443 44.4688 18.2021ZM64.9375 27.2819L71.5625 38.0179C71.9375 38.7475 72.0677 39.4967 71.9531 40.2657C71.8385 41.0347 71.5521 41.7642 71.0938 42.4543C70.8229 42.8486 70.4792 43.2134 70.0625 43.5486C69.6458 43.8838 69.25 44.1598 68.875 44.3767C68.5 44.5936 67.9948 44.8105 67.3594 45.0274C66.724 45.2443 66.2344 45.402 65.8906 45.5006C65.5469 45.5992 65.0104 45.7372 64.2812 45.9147C63.5521 46.0921 63.0729 46.2104 62.8438 46.2696C62.1354 44.8499 59.375 40.5516 54.5625 33.3745L64.3438 27.6072L64.9375 27.2819ZM60.4688 20.5977L64.9062 18.1429L58.0312 29.1747L44.9375 28.5832L49.6562 26.0397C48.9479 24.2848 48.1667 22.6483 47.3125 21.1301C46.4583 19.6119 45.6719 18.3943 44.9531 17.4775C44.2344 16.5606 43.5625 15.7719 42.9375 15.1114C42.3125 14.4509 41.8229 13.9924 41.4688 13.7361L40.9375 13.3516L53.5938 13.3812C54.2396 13.322 54.8438 13.4256 55.4062 13.6917C55.9688 13.9579 56.375 14.2389 56.625 14.5347L56.9688 14.9783C57.7812 16.1811 58.9479 18.0542 60.4688 20.5977Z" fill="white"/>
</svg>
