<svg width="196" height="54" viewBox="0 0 196 54" fill="none" xmlns="http://www.w3.org/2000/svg">
<rect width="196" height="54" rx="12" fill="#940F0F" fill-opacity="0.75"/>
<path d="M82.67 35V20.14H83.94C84.5933 20.14 85.2433 20.1133 85.89 20.06C86.5367 20.0067 87.2133 19.98 87.92 19.98C89.0667 19.98 90.05 20.15 90.87 20.49C91.69 20.8233 92.32 21.3633 92.76 22.11C93.2067 22.8567 93.43 23.84 93.43 25.06C93.43 26.76 92.92 28.0767 91.9 29.01C90.8867 29.9433 89.4167 30.41 87.49 30.41C87.07 30.41 86.7267 30.4067 86.46 30.4C86.2 30.3933 85.9833 30.39 85.81 30.39V35H82.67ZM85.81 28.05C86.0633 28.0833 86.3233 28.1067 86.59 28.12C86.8633 28.1333 87.1433 28.14 87.43 28.14C87.9633 28.14 88.45 28.05 88.89 27.87C89.3367 27.69 89.69 27.3767 89.95 26.93C90.2167 26.4833 90.35 25.8567 90.35 25.05C90.35 24.1033 90.1033 23.38 89.61 22.88C89.1167 22.38 88.3733 22.1467 87.38 22.18C87.1267 22.1867 86.86 22.2 86.58 22.22C86.3 22.24 86.0433 22.2733 85.81 22.32V28.05ZM95.5869 35V18.75H98.6469V35H95.5869ZM104.6 35.16C103.893 35.16 103.273 35.0167 102.74 34.73C102.206 34.4433 101.79 34.0433 101.49 33.53C101.196 33.0167 101.05 32.42 101.05 31.74C101.05 31.06 101.233 30.4767 101.6 29.99C101.973 29.5033 102.476 29.1233 103.11 28.85C103.543 28.67 104.016 28.53 104.53 28.43C105.05 28.33 105.566 28.26 106.08 28.22C106.6 28.18 107.083 28.16 107.53 28.16L108.04 28.79L107.53 29.77C107.29 29.77 107.02 29.7867 106.72 29.82C106.42 29.8533 106.13 29.9033 105.85 29.97C105.576 30.03 105.346 30.1 105.16 30.18C104.9 30.3 104.666 30.46 104.46 30.66C104.26 30.86 104.16 31.1667 104.16 31.58C104.16 32.12 104.31 32.52 104.61 32.78C104.91 33.0333 105.296 33.16 105.77 33.16C106.016 33.16 106.26 33.1267 106.5 33.06C106.746 32.9933 106.963 32.9167 107.15 32.83C107.336 32.7367 107.463 32.65 107.53 32.57L108.06 33.2L107.69 34.06C107.39 34.3267 106.976 34.5767 106.45 34.81C105.93 35.0433 105.313 35.16 104.6 35.16ZM110.58 35H107.69V33.34H107.53V27.34C107.53 26.7733 107.38 26.4033 107.08 26.23C106.78 26.05 106.35 25.96 105.79 25.96C105.37 25.96 104.93 25.9967 104.47 26.07C104.016 26.1433 103.586 26.24 103.18 26.36C102.773 26.48 102.433 26.61 102.16 26.75L101.5 24.83C101.726 24.6967 102.08 24.54 102.56 24.36C103.04 24.18 103.59 24.0233 104.21 23.89C104.83 23.75 105.453 23.68 106.08 23.68C107.106 23.68 107.95 23.8 108.61 24.04C109.276 24.28 109.77 24.6867 110.09 25.26C110.416 25.8333 110.58 26.6267 110.58 27.64V35ZM105.38 22.31L103.99 21.07C104.33 20.7233 104.693 20.32 105.08 19.86C105.466 19.4 105.846 18.9167 106.22 18.41C106.6 17.9033 106.946 17.4067 107.26 16.92L109.25 18.5C109.13 18.7467 108.946 19.0233 108.7 19.33C108.46 19.6367 108.183 19.95 107.87 20.27C107.563 20.5833 107.246 20.8833 106.92 21.17C106.6 21.45 106.303 21.6933 106.03 21.9C105.763 22.1 105.546 22.2367 105.38 22.31ZM112.956 34.29L113.296 32.14C113.402 32.2267 113.619 32.34 113.946 32.48C114.272 32.62 114.662 32.75 115.116 32.87C115.569 32.9833 116.036 33.04 116.516 33.04C117.122 33.0467 117.569 32.9667 117.856 32.8C118.142 32.6267 118.286 32.37 118.286 32.03C118.286 31.7967 118.189 31.5933 117.996 31.42C117.809 31.2467 117.552 31.0867 117.226 30.94C116.899 30.7867 116.536 30.63 116.136 30.47C115.416 30.1833 114.819 29.87 114.346 29.53C113.879 29.19 113.529 28.8033 113.296 28.37C113.069 27.93 112.959 27.4167 112.966 26.83C112.972 26.1367 113.172 25.56 113.566 25.1C113.966 24.64 114.496 24.2967 115.156 24.07C115.822 23.8367 116.559 23.72 117.366 23.72C118.186 23.72 118.882 23.7967 119.456 23.95C120.036 24.0967 120.432 24.2333 120.646 24.36L120.316 26.55C120.189 26.4433 119.989 26.33 119.716 26.21C119.442 26.09 119.132 25.9933 118.786 25.92C118.446 25.84 118.099 25.8 117.746 25.8C117.099 25.8 116.626 25.88 116.326 26.04C116.032 26.1933 115.886 26.4167 115.886 26.71C115.879 27.09 116.026 27.3733 116.326 27.56C116.632 27.74 117.056 27.9433 117.596 28.17C118.396 28.4967 119.066 28.8233 119.606 29.15C120.152 29.47 120.562 29.84 120.836 30.26C121.116 30.6733 121.256 31.18 121.256 31.78C121.256 32.8867 120.859 33.7267 120.066 34.3C119.272 34.8733 118.202 35.16 116.856 35.16C116.289 35.16 115.742 35.1133 115.216 35.02C114.696 34.9333 114.236 34.8233 113.836 34.69C113.442 34.5567 113.149 34.4233 112.956 34.29ZM126.946 35.16C126.266 35.16 125.702 35.05 125.256 34.83C124.816 34.6033 124.486 34.2467 124.266 33.76C124.052 33.2733 123.946 32.63 123.946 31.83V25.95H122.596V24.32C123.089 24.18 123.482 24.0467 123.776 23.92C124.076 23.7933 124.292 23.5733 124.426 23.26C124.492 23.1067 124.562 22.9267 124.636 22.72C124.716 22.5133 124.799 22.29 124.886 22.05C124.972 21.81 125.062 21.5667 125.156 21.32H126.996V23.86H129.986V25.95H126.996V30.54C126.996 31.2467 127.032 31.7633 127.106 32.09C127.179 32.41 127.306 32.6167 127.486 32.71C127.666 32.7967 127.926 32.84 128.266 32.84C128.439 32.84 128.639 32.82 128.866 32.78C129.092 32.7333 129.309 32.6767 129.516 32.61C129.722 32.5433 129.882 32.4733 129.996 32.4L130.396 34.11C130.216 34.27 129.946 34.4333 129.586 34.6C129.226 34.76 128.816 34.8933 128.356 35C127.896 35.1067 127.426 35.16 126.946 35.16ZM132.522 35V23.87H135.572V35H132.522ZM133.892 22.26C133.399 22.26 132.982 22.1067 132.642 21.8C132.302 21.4933 132.132 21.0933 132.132 20.6C132.132 20.2667 132.222 19.9633 132.402 19.69C132.589 19.41 132.829 19.1867 133.122 19.02C133.422 18.8533 133.742 18.77 134.082 18.77C134.629 18.77 135.056 18.9267 135.362 19.24C135.676 19.5467 135.832 19.9433 135.832 20.43C135.832 20.9367 135.639 21.37 135.252 21.73C134.872 22.0833 134.419 22.26 133.892 22.26ZM137.921 29.55C137.921 28.4567 138.121 27.47 138.521 26.59C138.921 25.71 139.528 25.0133 140.341 24.5C141.161 23.98 142.201 23.72 143.461 23.72C144.188 23.72 144.815 23.78 145.341 23.9C145.875 24.02 146.231 24.1433 146.411 24.27L146.031 26.6C145.785 26.4467 145.475 26.3233 145.101 26.23C144.735 26.1367 144.278 26.09 143.731 26.09C143.298 26.09 142.871 26.19 142.451 26.39C142.038 26.59 141.691 26.92 141.411 27.38C141.138 27.84 140.991 28.4567 140.971 29.23C140.951 30.0633 141.061 30.7467 141.301 31.28C141.548 31.8067 141.881 32.1967 142.301 32.45C142.728 32.6967 143.201 32.82 143.721 32.82C144.228 32.82 144.698 32.7667 145.131 32.66C145.565 32.5533 145.901 32.44 146.141 32.32L146.591 34.19C146.271 34.51 145.788 34.7533 145.141 34.92C144.501 35.08 143.825 35.16 143.111 35.16C141.958 35.16 140.998 34.9167 140.231 34.43C139.465 33.9367 138.888 33.2667 138.501 32.42C138.115 31.5733 137.921 30.6167 137.921 29.55ZM153.173 35.16C152.199 35.16 151.373 35.0033 150.693 34.69C150.013 34.37 149.463 33.9333 149.043 33.38C148.629 32.8267 148.329 32.1933 148.143 31.48C147.956 30.76 147.866 30 147.873 29.2C147.893 28.0133 148.139 27.0133 148.613 26.2C149.093 25.3867 149.743 24.77 150.563 24.35C151.389 23.93 152.326 23.72 153.373 23.72C154.679 23.72 155.723 23.9933 156.503 24.54C157.283 25.0867 157.843 25.8133 158.183 26.72C158.523 27.62 158.683 28.6 158.663 29.66C158.649 30.8533 158.406 31.86 157.933 32.68C157.459 33.4933 156.813 34.11 155.993 34.53C155.173 34.95 154.233 35.16 153.173 35.16ZM153.253 33.03C154.046 33.0367 154.623 32.74 154.983 32.14C155.343 31.54 155.523 30.67 155.523 29.53C155.523 28.8567 155.449 28.2433 155.303 27.69C155.156 27.1367 154.919 26.6933 154.593 26.36C154.273 26.0267 153.846 25.8567 153.313 25.85C152.513 25.8433 151.933 26.1367 151.573 26.73C151.213 27.3167 151.033 28.1667 151.033 29.28C151.033 29.96 151.106 30.5867 151.253 31.16C151.399 31.7267 151.633 32.18 151.953 32.52C152.279 32.86 152.713 33.03 153.253 33.03Z" fill="white"/>
</svg>
