<svg width="38" height="30" viewBox="0 0 38 30" fill="none" xmlns="http://www.w3.org/2000/svg">
<rect width="38" height="30" rx="12" fill="black"/>
<path d="M18.4063 18.5341L18.2038 22.7746L18.1768 23.0281L12.5092 22.694C12.1854 22.6709 11.884 22.5499 11.6051 22.331C11.3262 22.1121 11.1148 21.8605 10.9709 21.5762C10.8719 21.3688 10.8067 21.1576 10.7752 20.9425C10.7437 20.7274 10.7617 20.4777 10.8292 20.1935C10.8967 19.9092 10.9506 19.698 10.9911 19.5597C11.0316 19.4214 11.1283 19.1756 11.2813 18.8222C11.4342 18.4688 11.5197 18.2653 11.5376 18.2115C12.2393 18.3037 14.5289 18.4112 18.4063 18.5341ZM13.184 11.7816L15.6129 16.1489L13.6293 15.0887C13.0625 15.6418 12.561 16.1969 12.1246 16.7538C11.6883 17.3108 11.3622 17.7909 11.1463 18.1942C10.9304 18.5975 10.7527 18.9605 10.6133 19.2831C10.4738 19.6058 10.3906 19.8478 10.3636 20.0091L10.3097 20.2511L7.74574 16.1373C7.59281 15.9376 7.51184 15.7225 7.50284 15.492C7.49385 15.2616 7.52084 15.0811 7.58381 14.9505L7.69176 14.743C8.00663 14.2591 8.51942 13.537 9.23012 12.5767L7.34091 11.5857L13.184 11.7816ZM29.7955 17.739L27.2585 21.8758C27.1506 22.0986 26.9864 22.2772 26.766 22.4117C26.5456 22.5461 26.3499 22.6248 26.179 22.6479L25.9361 22.694C25.2974 22.7477 24.3123 22.7938 22.9808 22.8322L23.0888 24.722L19.9851 20.4931L22.8324 16.3217L22.9268 18.3152C24.4562 18.4381 25.7292 18.4573 26.7457 18.3728C27.7623 18.2883 28.527 18.1616 29.0398 17.9926L29.7955 17.739ZM19.2024 7.09172C18.7796 7.57569 17.5876 9.24654 15.6264 12.1043L11.3487 9.94944L11.0923 9.81117L14.1286 5.70895C14.3085 5.47081 14.5784 5.29796 14.9382 5.19041C15.2981 5.08287 15.6579 5.04446 16.0178 5.07518C16.2337 5.09055 16.4518 5.13664 16.6722 5.21346C16.8926 5.29028 17.0816 5.37094 17.239 5.45545C17.3964 5.53995 17.5831 5.6667 17.799 5.83571C18.0149 6.00471 18.1768 6.13723 18.2848 6.23325C18.3928 6.32928 18.5547 6.481 18.7706 6.68841C18.9865 6.89583 19.1304 7.03027 19.2024 7.09172ZM28.0412 10.6293L30.902 14.8122C31.0639 15.0964 31.1201 15.3883 31.0707 15.6879C31.0212 15.9875 30.8975 16.2718 30.6996 16.5406C30.5826 16.6943 30.4342 16.8364 30.2543 16.967C30.0743 17.0976 29.9034 17.2051 29.7415 17.2896C29.5795 17.3741 29.3614 17.4586 29.087 17.5432C28.8126 17.6277 28.6012 17.6891 28.4528 17.7275C28.3043 17.7659 28.0727 17.8197 27.7578 17.8888C27.4429 17.958 27.236 18.0041 27.1371 18.0271C26.8312 17.474 25.6392 15.7993 23.5611 13.0031L27.7848 10.7561L28.0412 10.6293ZM26.1115 8.02509L28.0277 7.06868L25.059 11.3668L19.4048 11.1363L21.4425 10.1453C21.1366 9.46163 20.7992 8.82402 20.4304 8.23251C20.0616 7.64099 19.7219 7.16662 19.4116 6.80941C19.1012 6.45219 18.8111 6.14491 18.5412 5.88756C18.2713 5.63021 18.0599 5.4516 17.907 5.35174L17.6776 5.20194L23.1428 5.21346C23.4216 5.19041 23.6825 5.23075 23.9254 5.33445C24.1683 5.43816 24.3438 5.54763 24.4517 5.66286L24.6001 5.83571C24.951 6.30431 25.4548 7.03411 26.1115 8.02509Z" fill="white"/>
</svg>
