<svg width="60" height="55" viewBox="0 0 60 55" fill="none" xmlns="http://www.w3.org/2000/svg">
<rect width="60" height="55" rx="12" fill="white"/>
<path d="M28.4737 31.6949L28.1541 39.4696L28.1114 39.9344L19.1615 39.3217C18.6501 39.2794 18.1742 39.0576 17.7338 38.6562C17.2934 38.2548 16.9595 37.7935 16.7322 37.2724C16.576 36.8921 16.473 36.5048 16.4232 36.1104C16.3735 35.716 16.4019 35.2583 16.5085 34.7372C16.615 34.216 16.7003 33.8287 16.7642 33.5752C16.8281 33.3217 16.9808 32.871 17.2223 32.2231C17.4638 31.5752 17.5988 31.2019 17.6272 31.1033C18.7353 31.2724 22.3508 31.4695 28.4737 31.6949ZM20.227 19.3146L24.0627 27.3216L20.9302 25.378C20.0352 26.3921 19.2432 27.4097 18.5542 28.4308C17.8652 29.4519 17.3502 30.3322 17.0092 31.0717C16.6683 31.8111 16.3877 32.4766 16.1675 33.0681C15.9473 33.6597 15.8159 34.1034 15.7733 34.3991L15.6881 34.8428L11.6393 27.3005C11.3978 26.9343 11.2699 26.54 11.2557 26.1174C11.2415 25.6949 11.2841 25.3639 11.3836 25.1245L11.554 24.7442C12.0513 23.8569 12.861 22.5329 13.9833 20.7723L11 18.9554L20.227 19.3146ZM46.4588 30.2372L42.4527 37.8217C42.2822 38.2301 42.0229 38.5576 41.6749 38.8041C41.3268 39.0506 41.0178 39.1949 40.7479 39.2372L40.3643 39.3217C39.3557 39.4203 37.8001 39.5048 35.6976 39.5752L35.8681 43.04L30.9669 35.2865L35.4632 27.6386L35.6124 31.2935C38.0274 31.5188 40.0376 31.5541 41.6429 31.3991C43.2482 31.2442 44.4557 31.0118 45.2655 30.7019L46.4588 30.2372ZM29.731 10.716C29.0633 11.6033 27.1809 14.6667 24.084 19.9061L17.3289 15.9554L16.924 15.7019L21.7186 8.18075C22.0028 7.74413 22.4289 7.42723 22.9972 7.23005C23.5654 7.03286 24.1337 6.96244 24.7019 7.01878C25.0429 7.04695 25.3874 7.13146 25.7354 7.2723C26.0835 7.41315 26.3818 7.56103 26.6304 7.71596C26.8791 7.87089 27.1738 8.10329 27.5148 8.41315C27.8557 8.72301 28.1114 8.96597 28.2819 9.14202C28.4524 9.31808 28.7081 9.59625 29.0491 9.97653C29.39 10.3568 29.6173 10.6033 29.731 10.716ZM43.6886 17.2019L48.2062 24.8709C48.4619 25.3921 48.5507 25.9273 48.4726 26.4766C48.3944 27.0259 48.1991 27.547 47.8866 28.04C47.7019 28.3217 47.4675 28.5822 47.1834 28.8217C46.8992 29.0611 46.6293 29.2583 46.3736 29.4132C46.1179 29.5681 45.7734 29.7231 45.3401 29.878C44.9068 30.0329 44.573 30.1456 44.3385 30.216C44.1041 30.2864 43.7383 30.385 43.2411 30.5118C42.7439 30.6386 42.4172 30.7231 42.2609 30.7653C41.7779 29.7512 39.8955 26.6808 36.6139 21.554L43.2837 17.4343L43.6886 17.2019ZM40.6414 12.4272L43.6673 10.6737L38.9792 18.554L30.0506 18.1315L33.2683 16.3146C32.7853 15.0611 32.2526 13.892 31.6701 12.8075C31.0877 11.723 30.5514 10.8533 30.0613 10.1984C29.5711 9.54343 29.113 8.98005 28.6868 8.50822C28.2606 8.03639 27.9268 7.70892 27.6853 7.52582L27.323 7.25117L35.9533 7.2723C36.3937 7.23005 36.8057 7.30399 37.1892 7.49413C37.5728 7.68427 37.8498 7.88498 38.0203 8.09625L38.2547 8.41315C38.8088 9.27231 39.6043 10.6103 40.6414 12.4272Z" fill="#595454"/>
</svg>
