<svg width="8" height="8" viewBox="0 0 8 8" fill="none" xmlns="http://www.w3.org/2000/svg">
<g clip-path="url(#clip0_19_820)">
<path d="M4 0C2.93913 0 1.92172 0.421427 1.17157 1.17157C0.421427 1.92172 0 2.93913 0 4C0 5.06087 0.421427 6.07828 1.17157 6.82843C1.92172 7.57857 2.93913 8 4 8C5.06087 8 6.07828 7.57857 6.82843 6.82843C7.57857 6.07828 8 5.06087 8 4C8 2.93913 7.57857 1.92172 6.82843 1.17157C6.07828 0.421427 5.06087 0 4 0ZM3.177 6.677L2.8235 6.3235L5.1465 4L2.823 1.677L3.1765 1.3235L5.8535 4L3.177 6.677Z" fill="#DFF3E7"/>
</g>
<defs>
<clipPath id="clip0_19_820">
<rect width="8" height="8" fill="white"/>
</clipPath>
</defs>
</svg>
