<svg width="38" height="35" viewBox="0 0 38 35" fill="none" xmlns="http://www.w3.org/2000/svg">
<path d="M19 14.2188C17.0359 14.2188 15.4375 15.6909 15.4375 17.5C15.4375 19.3091 17.0359 20.7812 19 20.7812C20.9641 20.7812 22.5625 19.3091 22.5625 17.5C22.5625 15.6909 20.9641 14.2188 19 14.2188ZM7.125 14.2188C5.16087 14.2188 3.5625 15.6909 3.5625 17.5C3.5625 19.3091 5.16087 20.7812 7.125 20.7812C9.08913 20.7812 10.6875 19.3091 10.6875 17.5C10.6875 15.6909 9.08913 14.2188 7.125 14.2188ZM30.875 14.2188C28.9109 14.2188 27.3125 15.6909 27.3125 17.5C27.3125 19.3091 28.9109 20.7812 30.875 20.7812C32.8391 20.7812 34.4375 19.3091 34.4375 17.5C34.4375 15.6909 32.8391 14.2188 30.875 14.2188Z" fill="#22577A"/>
</svg>
