<svg width="242" height="50" viewBox="0 0 242 50" fill="none" xmlns="http://www.w3.org/2000/svg">
<rect width="50" height="50" rx="25" fill="#135E46" fill-opacity="0.5"/>
<path d="M14.4875 34L16.4 15.425H20.525L23.8 25.875L24.7625 29.85L25.625 25.875L28.7375 15.425H32.6875L34.9125 34H31.9875L30.8875 22.7375L30.5375 17.6125L29.2625 22.7375L25.6 34.175H23.8375L19.9875 22.7375L18.6375 17.6125L18.275 22.7375L17.3 34H14.4875Z" fill="black"/>
<path d="M61.19 20L62.72 5.14H66.02L68.64 13.5L69.41 16.68L70.1 13.5L72.59 5.14H75.75L77.53 20H75.19L74.31 10.99L74.03 6.89L73.01 10.99L70.08 20.14H68.67L65.59 10.99L64.51 6.89L64.22 10.99L63.44 20H61.19ZM80.5109 20V8.88H82.8109V20H80.5109ZM81.5309 6.91C81.1443 6.91 80.8043 6.78667 80.5109 6.54C80.2243 6.29333 80.0809 5.95667 80.0809 5.53C80.0809 5.23667 80.1609 4.97333 80.3209 4.74C80.4876 4.5 80.6976 4.31 80.9509 4.17C81.2043 4.02333 81.4676 3.95 81.7409 3.95C82.2143 3.95 82.5709 4.08333 82.8109 4.35C83.0509 4.61667 83.1709 4.94333 83.1709 5.33C83.1709 5.79 83.0043 6.17 82.6709 6.47C82.3443 6.76333 81.9643 6.91 81.5309 6.91ZM88.3094 11.82L88.1694 10.3C88.2694 10.0933 88.4794 9.86667 88.7994 9.62C89.1194 9.36667 89.496 9.15 89.9294 8.97C90.3694 8.79 90.816 8.7 91.2694 8.7C91.5227 8.7 91.7394 8.71 91.9194 8.73C92.106 8.75 92.2427 8.78667 92.3294 8.84V11C92.2294 10.9467 92.076 10.89 91.8694 10.83C91.6694 10.77 91.3427 10.74 90.8894 10.74C90.476 10.74 90.1027 10.8 89.7694 10.92C89.4427 11.0333 89.156 11.1733 88.9094 11.34C88.6627 11.5067 88.4627 11.6667 88.3094 11.82ZM86.1294 20V8.88H88.0894L88.2494 10.3L88.4294 11.14V20H86.1294ZM96.6452 20.16C95.9785 20.16 95.3852 20.03 94.8652 19.77C94.3518 19.5033 93.9452 19.13 93.6452 18.65C93.3518 18.1633 93.2052 17.59 93.2052 16.93C93.2052 16.2167 93.3952 15.6133 93.7752 15.12C94.1618 14.62 94.6785 14.23 95.3252 13.95C95.7518 13.7767 96.2152 13.64 96.7152 13.54C97.2152 13.4333 97.7152 13.36 98.2152 13.32C98.7152 13.2733 99.1785 13.25 99.6052 13.25L100.085 13.86L99.6052 14.67C99.3452 14.67 99.0318 14.69 98.6652 14.73C98.3052 14.7633 97.9485 14.82 97.5952 14.9C97.2418 14.9733 96.9418 15.07 96.6952 15.19C96.3552 15.3433 96.0718 15.54 95.8452 15.78C95.6185 16.02 95.5052 16.3533 95.5052 16.78C95.5052 17.34 95.6585 17.7633 95.9652 18.05C96.2785 18.3367 96.7418 18.48 97.3552 18.48C97.6685 18.48 97.9852 18.4333 98.3052 18.34C98.6252 18.2467 98.9018 18.14 99.1352 18.02C99.3752 17.9 99.5318 17.7967 99.6052 17.71L100.065 18.2L99.7352 19.06C99.4418 19.3267 99.0185 19.5767 98.4652 19.81C97.9118 20.0433 97.3052 20.16 96.6452 20.16ZM101.915 20H99.7352V18.34H99.6052V12.2C99.6052 11.5467 99.4318 11.1167 99.0852 10.91C98.7452 10.6967 98.2585 10.59 97.6252 10.59C97.2052 10.59 96.7718 10.6333 96.3252 10.72C95.8785 10.8 95.4685 10.9033 95.0952 11.03C94.7218 11.15 94.4352 11.2733 94.2352 11.4L93.6952 9.74C93.8485 9.64667 94.1418 9.51667 94.5752 9.35C95.0152 9.18333 95.5252 9.03333 96.1052 8.9C96.6918 8.76 97.2718 8.69 97.8452 8.69C98.6785 8.69 99.3985 8.78667 100.005 8.98C100.618 9.17333 101.088 9.53333 101.415 10.06C101.748 10.58 101.915 11.3367 101.915 12.33V20ZM105.177 20V8.88H107.247L107.257 10.06C107.53 9.87333 107.874 9.67667 108.287 9.47C108.707 9.26333 109.157 9.08667 109.637 8.94C110.124 8.79333 110.607 8.71333 111.087 8.7C112.28 8.66667 113.137 8.97667 113.657 9.63C114.177 10.2767 114.437 11.4167 114.437 13.05V20H112.117V13.17C112.117 12.2367 111.99 11.5667 111.737 11.16C111.49 10.7533 110.95 10.5733 110.117 10.62C109.884 10.6267 109.614 10.67 109.307 10.75C109.007 10.8233 108.697 10.9333 108.377 11.08C108.064 11.22 107.764 11.4 107.477 11.62V20H105.177ZM124.514 20V18.52L124.394 18.46V10.58L124.474 10.52L124.394 8.32V3.74H126.694V20H124.514ZM121.404 20.16C120.624 20.16 119.898 19.9667 119.224 19.58C118.558 19.1933 118.018 18.6067 117.604 17.82C117.198 17.0333 116.994 16.0367 116.994 14.83C116.994 13.6233 117.228 12.5633 117.694 11.65C118.161 10.73 118.811 10.0133 119.644 9.5C120.484 8.98 121.468 8.72 122.594 8.72C123.281 8.72 123.858 8.80333 124.324 8.97C124.791 9.13 125.088 9.26667 125.214 9.38L124.394 10.85C124.194 10.6767 123.928 10.5567 123.594 10.49C123.268 10.4233 122.878 10.39 122.424 10.39C121.858 10.39 121.344 10.5467 120.884 10.86C120.431 11.1733 120.068 11.64 119.794 12.26C119.521 12.88 119.381 13.6467 119.374 14.56C119.354 15.8667 119.581 16.8233 120.054 17.43C120.528 18.0367 121.191 18.34 122.044 18.34C122.564 18.34 123.028 18.2433 123.434 18.05C123.848 17.8567 124.168 17.67 124.394 17.49L124.774 18.63C124.614 18.7967 124.401 19 124.134 19.24C123.868 19.48 123.514 19.6933 123.074 19.88C122.634 20.0667 122.078 20.16 121.404 20.16ZM132.68 20.16C132.014 20.16 131.42 20.03 130.9 19.77C130.387 19.5033 129.98 19.13 129.68 18.65C129.387 18.1633 129.24 17.59 129.24 16.93C129.24 16.2167 129.43 15.6133 129.81 15.12C130.197 14.62 130.714 14.23 131.36 13.95C131.787 13.7767 132.25 13.64 132.75 13.54C133.25 13.4333 133.75 13.36 134.25 13.32C134.75 13.2733 135.214 13.25 135.64 13.25L136.12 13.86L135.64 14.67C135.38 14.67 135.067 14.69 134.7 14.73C134.34 14.7633 133.984 14.82 133.63 14.9C133.277 14.9733 132.977 15.07 132.73 15.19C132.39 15.3433 132.107 15.54 131.88 15.78C131.654 16.02 131.54 16.3533 131.54 16.78C131.54 17.34 131.694 17.7633 132 18.05C132.314 18.3367 132.777 18.48 133.39 18.48C133.704 18.48 134.02 18.4333 134.34 18.34C134.66 18.2467 134.937 18.14 135.17 18.02C135.41 17.9 135.567 17.7967 135.64 17.71L136.1 18.2L135.77 19.06C135.477 19.3267 135.054 19.5767 134.5 19.81C133.947 20.0433 133.34 20.16 132.68 20.16ZM137.95 20H135.77V18.34H135.64V12.2C135.64 11.5467 135.467 11.1167 135.12 10.91C134.78 10.6967 134.294 10.59 133.66 10.59C133.24 10.59 132.807 10.6333 132.36 10.72C131.914 10.8 131.504 10.9033 131.13 11.03C130.757 11.15 130.47 11.2733 130.27 11.4L129.73 9.74C129.884 9.64667 130.177 9.51667 130.61 9.35C131.05 9.18333 131.56 9.03333 132.14 8.9C132.727 8.76 133.307 8.69 133.88 8.69C134.714 8.69 135.434 8.78667 136.04 8.98C136.654 9.17333 137.124 9.53333 137.45 10.06C137.784 10.58 137.95 11.3367 137.95 12.33V20ZM144.846 20V5.14H153.486V6.94H147.206V11.46H151.866V13.24H147.206V18.16H154.186V20H144.846ZM162.952 20V18.52L162.832 18.46V10.58L162.912 10.52L162.832 8.32V3.74H165.132V20H162.952ZM159.842 20.16C159.062 20.16 158.335 19.9667 157.662 19.58C156.995 19.1933 156.455 18.6067 156.042 17.82C155.635 17.0333 155.432 16.0367 155.432 14.83C155.432 13.6233 155.665 12.5633 156.132 11.65C156.598 10.73 157.248 10.0133 158.082 9.5C158.922 8.98 159.905 8.72 161.032 8.72C161.718 8.72 162.295 8.80333 162.762 8.97C163.228 9.13 163.525 9.26667 163.652 9.38L162.832 10.85C162.632 10.6767 162.365 10.5567 162.032 10.49C161.705 10.4233 161.315 10.39 160.862 10.39C160.295 10.39 159.782 10.5467 159.322 10.86C158.868 11.1733 158.505 11.64 158.232 12.26C157.958 12.88 157.818 13.6467 157.812 14.56C157.792 15.8667 158.018 16.8233 158.492 17.43C158.965 18.0367 159.628 18.34 160.482 18.34C161.002 18.34 161.465 18.2433 161.872 18.05C162.285 17.8567 162.605 17.67 162.832 17.49L163.212 18.63C163.052 18.7967 162.838 19 162.572 19.24C162.305 19.48 161.952 19.6933 161.512 19.88C161.072 20.0667 160.515 20.16 159.842 20.16ZM171.598 20.16C170.871 20.16 170.284 20.0467 169.838 19.82C169.391 19.5933 169.051 19.27 168.818 18.85C168.584 18.4233 168.424 17.9167 168.338 17.33C168.258 16.7433 168.218 16.0933 168.218 15.38V8.86H170.518V15.36C170.518 16.24 170.584 16.8867 170.718 17.3C170.858 17.7133 171.071 17.98 171.358 18.1C171.651 18.22 172.031 18.28 172.498 18.28C172.771 18.28 173.061 18.24 173.368 18.16C173.681 18.0733 173.974 17.9733 174.248 17.86C174.521 17.74 174.738 17.6267 174.898 17.52V8.86H177.198V20.16H176.138C175.831 20.16 175.588 20.1133 175.408 20.02C175.228 19.9333 175.138 19.7067 175.138 19.34V18.56L175.178 19C174.878 19.2 174.524 19.39 174.118 19.57C173.718 19.7433 173.298 19.8867 172.858 20C172.418 20.1067 171.998 20.16 171.598 20.16ZM183.286 20.16C182.619 20.16 182.026 20.03 181.506 19.77C180.992 19.5033 180.586 19.13 180.286 18.65C179.992 18.1633 179.846 17.59 179.846 16.93C179.846 16.2167 180.036 15.6133 180.416 15.12C180.802 14.62 181.319 14.23 181.966 13.95C182.392 13.7767 182.856 13.64 183.356 13.54C183.856 13.4333 184.356 13.36 184.856 13.32C185.356 13.2733 185.819 13.25 186.246 13.25L186.726 13.86L186.246 14.67C185.986 14.67 185.672 14.69 185.306 14.73C184.946 14.7633 184.589 14.82 184.236 14.9C183.882 14.9733 183.582 15.07 183.336 15.19C182.996 15.3433 182.712 15.54 182.486 15.78C182.259 16.02 182.146 16.3533 182.146 16.78C182.146 17.34 182.299 17.7633 182.606 18.05C182.919 18.3367 183.382 18.48 183.996 18.48C184.309 18.48 184.626 18.4333 184.946 18.34C185.266 18.2467 185.542 18.14 185.776 18.02C186.016 17.9 186.172 17.7967 186.246 17.71L186.706 18.2L186.376 19.06C186.082 19.3267 185.659 19.5767 185.106 19.81C184.552 20.0433 183.946 20.16 183.286 20.16ZM188.556 20H186.376V18.34H186.246V12.2C186.246 11.5467 186.072 11.1167 185.726 10.91C185.386 10.6967 184.899 10.59 184.266 10.59C183.846 10.59 183.412 10.6333 182.966 10.72C182.519 10.8 182.109 10.9033 181.736 11.03C181.362 11.15 181.076 11.2733 180.876 11.4L180.336 9.74C180.489 9.64667 180.782 9.51667 181.216 9.35C181.656 9.18333 182.166 9.03333 182.746 8.9C183.332 8.76 183.912 8.69 184.486 8.69C185.319 8.69 186.039 8.78667 186.646 8.98C187.259 9.17333 187.729 9.53333 188.056 10.06C188.389 10.58 188.556 11.3367 188.556 12.33V20ZM193.798 11.82L193.658 10.3C193.758 10.0933 193.968 9.86667 194.288 9.62C194.608 9.36667 194.984 9.15 195.418 8.97C195.858 8.79 196.304 8.7 196.758 8.7C197.011 8.7 197.228 8.71 197.408 8.73C197.594 8.75 197.731 8.78667 197.818 8.84V11C197.718 10.9467 197.564 10.89 197.358 10.83C197.158 10.77 196.831 10.74 196.378 10.74C195.964 10.74 195.591 10.8 195.258 10.92C194.931 11.0333 194.644 11.1733 194.398 11.34C194.151 11.5067 193.951 11.6667 193.798 11.82ZM191.618 20V8.88H193.578L193.738 10.3L193.918 11.14V20H191.618ZM206.213 20V18.52L206.093 18.46V10.58L206.173 10.52L206.093 8.32V3.74H208.393V20H206.213ZM203.103 20.16C202.323 20.16 201.597 19.9667 200.923 19.58C200.257 19.1933 199.717 18.6067 199.303 17.82C198.897 17.0333 198.693 16.0367 198.693 14.83C198.693 13.6233 198.927 12.5633 199.393 11.65C199.86 10.73 200.51 10.0133 201.343 9.5C202.183 8.98 203.167 8.72 204.293 8.72C204.98 8.72 205.557 8.80333 206.023 8.97C206.49 9.13 206.787 9.26667 206.913 9.38L206.093 10.85C205.893 10.6767 205.627 10.5567 205.293 10.49C204.967 10.4233 204.577 10.39 204.123 10.39C203.557 10.39 203.043 10.5467 202.583 10.86C202.13 11.1733 201.767 11.64 201.493 12.26C201.22 12.88 201.08 13.6467 201.073 14.56C201.053 15.8667 201.28 16.8233 201.753 17.43C202.227 18.0367 202.89 18.34 203.743 18.34C204.263 18.34 204.727 18.2433 205.133 18.05C205.547 17.8567 205.867 17.67 206.093 17.49L206.473 18.63C206.313 18.7967 206.1 19 205.833 19.24C205.567 19.48 205.213 19.6933 204.773 19.88C204.333 20.0667 203.777 20.16 203.103 20.16ZM214.38 20.16C213.713 20.16 213.12 20.03 212.6 19.77C212.086 19.5033 211.68 19.13 211.38 18.65C211.086 18.1633 210.94 17.59 210.94 16.93C210.94 16.2167 211.13 15.6133 211.51 15.12C211.896 14.62 212.413 14.23 213.06 13.95C213.486 13.7767 213.95 13.64 214.45 13.54C214.95 13.4333 215.45 13.36 215.95 13.32C216.45 13.2733 216.913 13.25 217.34 13.25L217.82 13.86L217.34 14.67C217.08 14.67 216.766 14.69 216.4 14.73C216.04 14.7633 215.683 14.82 215.33 14.9C214.976 14.9733 214.676 15.07 214.43 15.19C214.09 15.3433 213.806 15.54 213.58 15.78C213.353 16.02 213.24 16.3533 213.24 16.78C213.24 17.34 213.393 17.7633 213.7 18.05C214.013 18.3367 214.476 18.48 215.09 18.48C215.403 18.48 215.72 18.4333 216.04 18.34C216.36 18.2467 216.636 18.14 216.87 18.02C217.11 17.9 217.266 17.7967 217.34 17.71L217.8 18.2L217.47 19.06C217.176 19.3267 216.753 19.5767 216.2 19.81C215.646 20.0433 215.04 20.16 214.38 20.16ZM219.65 20H217.47V18.34H217.34V12.2C217.34 11.5467 217.166 11.1167 216.82 10.91C216.48 10.6967 215.993 10.59 215.36 10.59C214.94 10.59 214.506 10.6333 214.06 10.72C213.613 10.8 213.203 10.9033 212.83 11.03C212.456 11.15 212.17 11.2733 211.97 11.4L211.43 9.74C211.583 9.64667 211.876 9.51667 212.31 9.35C212.75 9.18333 213.26 9.03333 213.84 8.9C214.426 8.76 215.006 8.69 215.58 8.69C216.413 8.69 217.133 8.78667 217.74 8.98C218.353 9.17333 218.823 9.53333 219.15 10.06C219.483 10.58 219.65 11.3367 219.65 12.33V20Z" fill="black"/>
<path d="M61.2 46L60.9375 45.115C61.4025 44.805 61.8775 44.4475 62.3625 44.0425C62.8475 43.6375 63.31 43.2025 63.75 42.7375C64.19 42.2725 64.585 41.79 64.935 41.29C65.285 40.785 65.56 40.2775 65.76 39.7675C65.965 39.2575 66.0675 38.7575 66.0675 38.2675C66.0675 37.5975 65.9 37.085 65.565 36.73C65.235 36.375 64.7725 36.1975 64.1775 36.1975C63.6675 36.1975 63.1925 36.3025 62.7525 36.5125C62.3175 36.7175 61.9675 36.96 61.7025 37.24L60.975 36.1975C61.17 35.9925 61.43 35.78 61.755 35.56C62.085 35.335 62.4775 35.1475 62.9325 34.9975C63.3875 34.8425 63.8975 34.765 64.4625 34.765C65.2575 34.765 65.9075 34.9175 66.4125 35.2225C66.9225 35.5275 67.2975 35.9375 67.5375 36.4525C67.7775 36.9675 67.8975 37.5425 67.8975 38.1775C67.8975 38.9275 67.715 39.6875 67.35 40.4575C66.99 41.2275 66.49 41.9675 65.85 42.6775C65.215 43.3825 64.48 44.025 63.645 44.605L68.325 44.5375V46H61.2ZM74.3203 46.12C73.5853 46.12 72.9578 45.96 72.4378 45.64C71.9228 45.32 71.5053 44.8875 71.1853 44.3425C70.8653 43.7925 70.6328 43.1675 70.4878 42.4675C70.3478 41.7625 70.2828 41.0275 70.2928 40.2625C70.3078 39.1275 70.5003 38.145 70.8703 37.315C71.2403 36.48 71.7378 35.835 72.3628 35.38C72.9928 34.925 73.7053 34.6975 74.5003 34.6975C75.2503 34.6975 75.8778 34.845 76.3828 35.14C76.8928 35.435 77.3003 35.8425 77.6053 36.3625C77.9103 36.8775 78.1278 37.475 78.2578 38.155C78.3878 38.83 78.4503 39.5525 78.4453 40.3225C78.4353 41.4725 78.2578 42.4825 77.9128 43.3525C77.5678 44.2225 77.0878 44.9025 76.4728 45.3925C75.8578 45.8775 75.1403 46.12 74.3203 46.12ZM74.3728 44.545C75.1228 44.56 75.6853 44.2175 76.0603 43.5175C76.4353 42.8175 76.6228 41.7825 76.6228 40.4125C76.6228 39.6125 76.5453 38.9025 76.3903 38.2825C76.2353 37.6625 75.9928 37.175 75.6628 36.82C75.3378 36.46 74.9178 36.28 74.4028 36.28C73.6628 36.28 73.0978 36.62 72.7078 37.3C72.3228 37.98 72.1303 38.9475 72.1303 40.2025C72.1303 40.9775 72.2103 41.6925 72.3703 42.3475C72.5303 43.0025 72.7753 43.53 73.1053 43.93C73.4353 44.325 73.8578 44.53 74.3728 44.545ZM80.6824 46L80.4199 45.115C80.8849 44.805 81.3599 44.4475 81.8449 44.0425C82.3299 43.6375 82.7924 43.2025 83.2324 42.7375C83.6724 42.2725 84.0674 41.79 84.4174 41.29C84.7674 40.785 85.0424 40.2775 85.2424 39.7675C85.4474 39.2575 85.5499 38.7575 85.5499 38.2675C85.5499 37.5975 85.3824 37.085 85.0474 36.73C84.7174 36.375 84.2549 36.1975 83.6599 36.1975C83.1499 36.1975 82.6749 36.3025 82.2349 36.5125C81.7999 36.7175 81.4499 36.96 81.1849 37.24L80.4574 36.1975C80.6524 35.9925 80.9124 35.78 81.2374 35.56C81.5674 35.335 81.9599 35.1475 82.4149 34.9975C82.8699 34.8425 83.3799 34.765 83.9449 34.765C84.7399 34.765 85.3899 34.9175 85.8949 35.2225C86.4049 35.5275 86.7799 35.9375 87.0199 36.4525C87.2599 36.9675 87.3799 37.5425 87.3799 38.1775C87.3799 38.9275 87.1974 39.6875 86.8324 40.4575C86.4724 41.2275 85.9724 41.9675 85.3324 42.6775C84.6974 43.3825 83.9624 44.025 83.1274 44.605L87.8074 44.5375V46H80.6824ZM91.4102 46V36.79C91.1252 36.865 90.8477 36.935 90.5777 37C90.3127 37.065 90.0402 37.125 89.7602 37.18L89.5652 36.145C89.8052 36.075 90.0652 35.98 90.3452 35.86C90.6302 35.74 90.9077 35.61 91.1777 35.47C91.4527 35.33 91.6977 35.1925 91.9127 35.0575C92.1277 34.9175 92.2902 34.8 92.4002 34.705L93.1952 34.84V46H91.4102ZM96.5367 45.97L96.5217 44.7925C96.7267 44.8275 96.9342 44.8575 97.1442 44.8825C97.3592 44.9075 97.5617 44.92 97.7517 44.92C98.4567 44.92 99.0767 44.8325 99.6117 44.6575C100.152 44.4775 100.572 44.23 100.872 43.915C101.172 43.595 101.322 43.23 101.322 42.82C101.322 42.405 101.237 42.0425 101.067 41.7325C100.902 41.4175 100.634 41.18 100.264 41.02C99.8942 40.86 99.4092 40.8 98.8092 40.84L98.0817 41.02L97.7442 39.85C97.9992 39.8 98.2467 39.7375 98.4867 39.6625C98.7267 39.5875 98.9517 39.505 99.1617 39.415C99.6667 39.205 100.062 38.9375 100.347 38.6125C100.637 38.2825 100.784 37.92 100.789 37.525C100.799 37.005 100.639 36.635 100.309 36.415C99.9842 36.195 99.5817 36.085 99.1017 36.085C98.5717 36.085 98.1217 36.1675 97.7517 36.3325C97.3867 36.4975 97.0742 36.6725 96.8142 36.8575L96.1767 35.8525C96.3617 35.6975 96.6117 35.5325 96.9267 35.3575C97.2467 35.1825 97.6092 35.0325 98.0142 34.9075C98.4192 34.7825 98.8367 34.72 99.2667 34.72C99.8767 34.72 100.427 34.82 100.917 35.02C101.407 35.215 101.794 35.505 102.079 35.89C102.369 36.27 102.514 36.74 102.514 37.3C102.514 37.775 102.399 38.2075 102.169 38.5975C101.939 38.9825 101.634 39.315 101.254 39.595C100.874 39.87 100.462 40.0825 100.017 40.2325V40.015C100.692 40.005 101.259 40.13 101.719 40.39C102.179 40.65 102.527 40.9875 102.762 41.4025C102.997 41.8125 103.114 42.25 103.114 42.715C103.114 43.315 102.912 43.8775 102.507 44.4025C102.107 44.9225 101.534 45.345 100.789 45.67C100.049 45.99 99.1642 46.15 98.1342 46.15C97.8442 46.15 97.5642 46.13 97.2942 46.09C97.0292 46.055 96.7767 46.015 96.5367 45.97ZM104.96 45.97L104.945 44.7925C105.15 44.8275 105.357 44.8575 105.567 44.8825C105.782 44.9075 105.985 44.92 106.175 44.92C106.88 44.92 107.5 44.8325 108.035 44.6575C108.575 44.4775 108.995 44.23 109.295 43.915C109.595 43.595 109.745 43.23 109.745 42.82C109.745 42.405 109.66 42.0425 109.49 41.7325C109.325 41.4175 109.057 41.18 108.687 41.02C108.317 40.86 107.832 40.8 107.232 40.84L106.505 41.02L106.167 39.85C106.422 39.8 106.67 39.7375 106.91 39.6625C107.15 39.5875 107.375 39.505 107.585 39.415C108.09 39.205 108.485 38.9375 108.77 38.6125C109.06 38.2825 109.207 37.92 109.212 37.525C109.222 37.005 109.062 36.635 108.732 36.415C108.407 36.195 108.005 36.085 107.525 36.085C106.995 36.085 106.545 36.1675 106.175 36.3325C105.81 36.4975 105.497 36.6725 105.237 36.8575L104.6 35.8525C104.785 35.6975 105.035 35.5325 105.35 35.3575C105.67 35.1825 106.032 35.0325 106.437 34.9075C106.842 34.7825 107.26 34.72 107.69 34.72C108.3 34.72 108.85 34.82 109.34 35.02C109.83 35.215 110.217 35.505 110.502 35.89C110.792 36.27 110.937 36.74 110.937 37.3C110.937 37.775 110.822 38.2075 110.592 38.5975C110.362 38.9825 110.057 39.315 109.677 39.595C109.297 39.87 108.885 40.0825 108.44 40.2325V40.015C109.115 40.005 109.682 40.13 110.142 40.39C110.602 40.65 110.95 40.9875 111.185 41.4025C111.42 41.8125 111.537 42.25 111.537 42.715C111.537 43.315 111.335 43.8775 110.93 44.4025C110.53 44.9225 109.957 45.345 109.212 45.67C108.472 45.99 107.587 46.15 106.557 46.15C106.267 46.15 105.987 46.13 105.717 46.09C105.452 46.055 105.2 46.015 104.96 45.97ZM113.382 45.97L113.367 44.7925C113.572 44.8275 113.78 44.8575 113.99 44.8825C114.205 44.9075 114.407 44.92 114.597 44.92C115.302 44.92 115.922 44.8325 116.457 44.6575C116.997 44.4775 117.417 44.23 117.717 43.915C118.017 43.595 118.167 43.23 118.167 42.82C118.167 42.405 118.082 42.0425 117.912 41.7325C117.747 41.4175 117.48 41.18 117.11 41.02C116.74 40.86 116.255 40.8 115.655 40.84L114.927 41.02L114.59 39.85C114.845 39.8 115.092 39.7375 115.332 39.6625C115.572 39.5875 115.797 39.505 116.007 39.415C116.512 39.205 116.907 38.9375 117.192 38.6125C117.482 38.2825 117.63 37.92 117.635 37.525C117.645 37.005 117.485 36.635 117.155 36.415C116.83 36.195 116.427 36.085 115.947 36.085C115.417 36.085 114.967 36.1675 114.597 36.3325C114.232 36.4975 113.92 36.6725 113.66 36.8575L113.022 35.8525C113.207 35.6975 113.457 35.5325 113.772 35.3575C114.092 35.1825 114.455 35.0325 114.86 34.9075C115.265 34.7825 115.682 34.72 116.112 34.72C116.722 34.72 117.272 34.82 117.762 35.02C118.252 35.215 118.64 35.505 118.925 35.89C119.215 36.27 119.36 36.74 119.36 37.3C119.36 37.775 119.245 38.2075 119.015 38.5975C118.785 38.9825 118.48 39.315 118.1 39.595C117.72 39.87 117.307 40.0825 116.862 40.2325V40.015C117.537 40.005 118.105 40.13 118.565 40.39C119.025 40.65 119.372 40.9875 119.607 41.4025C119.842 41.8125 119.96 42.25 119.96 42.715C119.96 43.315 119.757 43.8775 119.352 44.4025C118.952 44.9225 118.38 45.345 117.635 45.67C116.895 45.99 116.01 46.15 114.98 46.15C114.69 46.15 114.41 46.13 114.14 46.09C113.875 46.055 113.622 46.015 113.382 45.97ZM123.245 46C123.5 45.46 123.748 44.92 123.988 44.38C124.233 43.835 124.47 43.29 124.7 42.745C124.93 42.2 125.155 41.655 125.375 41.11C125.595 40.565 125.81 40.0225 126.02 39.4825C126.23 38.9425 126.438 38.4075 126.643 37.8775C126.848 37.3425 127.048 36.815 127.243 36.295L121.76 36.28L121.768 34.8475H128.78L129.163 35.3575L125.218 46H123.245ZM131.103 43.81L130.683 43.0075C130.888 42.5925 131.083 42.185 131.268 41.785C131.453 41.38 131.631 40.9825 131.801 40.5925C131.976 40.1975 132.146 39.8075 132.311 39.4225C132.476 39.0325 132.641 38.645 132.806 38.26C132.971 37.87 133.138 37.48 133.308 37.09C133.483 36.7 133.661 36.305 133.841 35.905C134.026 35.5 134.218 35.09 134.418 34.675H134.981L136.121 35.3425C135.931 35.7025 135.753 36.0525 135.588 36.3925C135.423 36.7275 135.266 37.06 135.116 37.39C134.966 37.72 134.818 38.0475 134.673 38.3725C134.528 38.6975 134.378 39.025 134.223 39.355C134.073 39.68 133.916 40.0125 133.751 40.3525C133.586 40.6925 133.408 41.0425 133.218 41.4025L132.588 42.4825H139.338V43.81H131.103ZM135.918 46V42.3775L136.083 38.7775H137.643V46H135.918ZM142.523 46C142.778 45.46 143.025 44.92 143.265 44.38C143.51 43.835 143.748 43.29 143.978 42.745C144.208 42.2 144.433 41.655 144.653 41.11C144.873 40.565 145.088 40.0225 145.298 39.4825C145.508 38.9425 145.715 38.4075 145.92 37.8775C146.125 37.3425 146.325 36.815 146.52 36.295L141.038 36.28L141.045 34.8475H148.058L148.44 35.3575L144.495 46H142.523ZM155.93 49.48C155.05 49.48 154.225 49.345 153.455 49.075C152.69 48.81 152.017 48.405 151.437 47.86C150.862 47.315 150.412 46.63 150.087 45.805C149.762 44.975 149.6 44 149.6 42.88C149.6 41.645 149.795 40.5275 150.185 39.5275C150.575 38.5225 151.117 37.66 151.812 36.94C152.512 36.22 153.327 35.6675 154.257 35.2825C155.187 34.8975 156.19 34.705 157.265 34.705C158.365 34.705 159.335 34.9075 160.175 35.3125C161.015 35.7125 161.672 36.3025 162.147 37.0825C162.622 37.8625 162.86 38.815 162.86 39.94C162.86 40.91 162.74 41.7725 162.5 42.5275C162.265 43.2825 161.945 43.92 161.54 44.44C161.14 44.96 160.69 45.355 160.19 45.625C159.69 45.895 159.18 46.03 158.66 46.03C158.285 46.03 158.005 45.9125 157.82 45.6775C157.64 45.4425 157.535 45.105 157.505 44.665C157.485 44.43 157.492 44.115 157.527 43.72C157.567 43.32 157.685 42.78 157.88 42.1C157.89 42.1 157.922 42.1 157.977 42.1C158.037 42.1 158.095 42.1 158.15 42.1C158.21 42.1 158.245 42.1 158.255 42.1C158.1 42.555 157.91 43.015 157.685 43.48C157.46 43.94 157.202 44.3625 156.912 44.7475C156.622 45.1325 156.302 45.4425 155.952 45.6775C155.602 45.9125 155.225 46.03 154.82 46.03C154.49 46.03 154.16 45.915 153.83 45.685C153.505 45.45 153.237 45.095 153.027 44.62C152.817 44.145 152.72 43.54 152.735 42.805C152.745 42.3 152.832 41.78 152.997 41.245C153.167 40.705 153.417 40.205 153.747 39.745C154.082 39.285 154.507 38.9125 155.022 38.6275C155.537 38.3425 156.15 38.2 156.86 38.2C157.175 38.2 157.485 38.23 157.79 38.29C158.1 38.35 158.36 38.455 158.57 38.605L159.845 38.365C159.78 38.63 159.705 38.945 159.62 39.31C159.535 39.675 159.447 40.0625 159.357 40.4725C159.272 40.8775 159.19 41.2825 159.11 41.6875C159.035 42.0925 158.97 42.47 158.915 42.82C158.82 43.48 158.777 43.9775 158.787 44.3125C158.802 44.6475 158.895 44.815 159.065 44.815C159.335 44.815 159.612 44.6975 159.897 44.4625C160.187 44.2275 160.455 43.9025 160.7 43.4875C160.945 43.0675 161.142 42.5775 161.292 42.0175C161.447 41.4525 161.525 40.845 161.525 40.195C161.525 39.31 161.407 38.5825 161.172 38.0125C160.937 37.4425 160.612 36.9975 160.197 36.6775C159.782 36.3575 159.302 36.135 158.757 36.01C158.212 35.88 157.63 35.815 157.01 35.815C156.185 35.815 155.405 35.98 154.67 36.31C153.94 36.64 153.295 37.1125 152.735 37.7275C152.175 38.3375 151.735 39.0675 151.415 39.9175C151.095 40.7675 150.935 41.71 150.935 42.745C150.935 43.785 151.077 44.665 151.362 45.385C151.647 46.105 152.032 46.6825 152.517 47.1175C153.007 47.5575 153.56 47.875 154.175 48.07C154.79 48.27 155.425 48.37 156.08 48.37C156.59 48.37 157.042 48.3325 157.437 48.2575C157.832 48.1875 158.17 48.1 158.45 47.995C158.735 47.895 158.965 47.8 159.14 47.71L159.425 48.7C159.105 48.9 158.627 49.08 157.992 49.24C157.362 49.4 156.675 49.48 155.93 49.48ZM155.18 44.68C155.385 44.68 155.605 44.57 155.84 44.35C156.075 44.125 156.307 43.8325 156.537 43.4725C156.772 43.1075 156.99 42.7125 157.19 42.2875C157.395 41.8575 157.567 41.43 157.707 41.005C157.847 40.58 157.94 40.2 157.985 39.865C157.865 39.675 157.677 39.5425 157.422 39.4675C157.172 39.3925 156.935 39.355 156.71 39.355C156.315 39.355 155.962 39.45 155.652 39.64C155.347 39.825 155.087 40.075 154.872 40.39C154.662 40.7 154.497 41.0425 154.377 41.4175C154.262 41.7925 154.2 42.165 154.19 42.535C154.17 43.17 154.237 43.6875 154.392 44.0875C154.552 44.4825 154.815 44.68 155.18 44.68ZM165.559 46V37.66H167.284V46H165.559ZM166.324 36.1825C166.034 36.1825 165.779 36.09 165.559 35.905C165.344 35.72 165.236 35.4675 165.236 35.1475C165.236 34.9275 165.296 34.73 165.416 34.555C165.541 34.375 165.699 34.2325 165.889 34.1275C166.079 34.0175 166.276 33.9625 166.481 33.9625C166.836 33.9625 167.104 34.0625 167.284 34.2625C167.464 34.4625 167.554 34.7075 167.554 34.9975C167.554 35.3425 167.429 35.6275 167.179 35.8525C166.934 36.0725 166.649 36.1825 166.324 36.1825ZM170.433 46V38.9275H169.195V37.96L170.433 37.645V36.91C170.433 36.29 170.525 35.7725 170.71 35.3575C170.895 34.9425 171.138 34.6125 171.438 34.3675C171.743 34.1225 172.073 33.9475 172.428 33.8425C172.788 33.7375 173.138 33.685 173.478 33.685C173.723 33.685 173.95 33.705 174.16 33.745C174.37 33.78 174.515 33.81 174.595 33.835V35.17C174.45 35.125 174.288 35.09 174.108 35.065C173.928 35.04 173.678 35.0275 173.358 35.0275C173.013 35.0275 172.728 35.16 172.503 35.425C172.283 35.685 172.173 36.08 172.173 36.61V37.645H174.205V38.9275H172.173V46H170.433ZM177.909 46.12C177.409 46.12 176.964 46.0225 176.574 45.8275C176.189 45.6275 175.884 45.3475 175.659 44.9875C175.439 44.6225 175.329 44.1925 175.329 43.6975C175.329 43.1625 175.471 42.71 175.756 42.34C176.046 41.965 176.434 41.6725 176.919 41.4625C177.239 41.3325 177.586 41.23 177.961 41.155C178.336 41.075 178.711 41.02 179.086 40.99C179.461 40.955 179.809 40.9375 180.129 40.9375L180.489 41.395L180.129 42.0025C179.934 42.0025 179.699 42.0175 179.424 42.0475C179.154 42.0725 178.886 42.115 178.621 42.175C178.356 42.23 178.131 42.3025 177.946 42.3925C177.691 42.5075 177.479 42.655 177.309 42.835C177.139 43.015 177.054 43.265 177.054 43.585C177.054 44.005 177.169 44.3225 177.399 44.5375C177.634 44.7525 177.981 44.86 178.441 44.86C178.676 44.86 178.914 44.825 179.154 44.755C179.394 44.685 179.601 44.605 179.776 44.515C179.956 44.425 180.074 44.3475 180.129 44.2825L180.474 44.65L180.226 45.295C180.006 45.495 179.689 45.6825 179.274 45.8575C178.859 46.0325 178.404 46.12 177.909 46.12ZM181.861 46H180.226V44.755H180.129V40.15C180.129 39.66 179.999 39.3375 179.739 39.1825C179.484 39.0225 179.119 38.9425 178.644 38.9425C178.329 38.9425 178.004 38.975 177.669 39.04C177.334 39.1 177.026 39.1775 176.746 39.2725C176.466 39.3625 176.251 39.455 176.101 39.55L175.696 38.305C175.811 38.235 176.031 38.1375 176.356 38.0125C176.686 37.8875 177.069 37.775 177.504 37.675C177.944 37.57 178.379 37.5175 178.809 37.5175C179.434 37.5175 179.974 37.59 180.429 37.735C180.889 37.88 181.241 38.15 181.486 38.545C181.736 38.935 181.861 39.5025 181.861 40.2475V46ZM184.308 46V37.66H185.86L185.868 38.545C186.073 38.405 186.328 38.2575 186.633 38.1025C186.943 37.9475 187.278 37.815 187.638 37.705C187.998 37.595 188.358 37.535 188.718 37.525C189.318 37.505 189.8 37.5975 190.165 37.8025C190.53 38.0075 190.795 38.35 190.96 38.83C191.13 39.31 191.215 39.9575 191.215 40.7725V46H189.49V40.8775C189.49 40.4225 189.45 40.0525 189.37 39.7675C189.295 39.4775 189.153 39.2675 188.943 39.1375C188.733 39.0075 188.423 38.9525 188.013 38.9725C187.753 38.9775 187.438 39.0425 187.068 39.1675C186.703 39.2875 186.358 39.47 186.033 39.715V46H184.308ZM191.125 39.7225L190.758 38.6275C190.953 38.4625 191.21 38.2975 191.53 38.1325C191.855 37.9675 192.21 37.8275 192.595 37.7125C192.985 37.5925 193.378 37.53 193.773 37.525C194.368 37.515 194.853 37.61 195.228 37.81C195.603 38.01 195.878 38.35 196.053 38.83C196.233 39.305 196.323 39.95 196.323 40.765V46H194.59V40.8775C194.59 40.4225 194.553 40.0525 194.478 39.7675C194.408 39.4775 194.268 39.2675 194.058 39.1375C193.853 39.0075 193.543 38.9525 193.128 38.9725C192.838 38.9775 192.508 39.05 192.138 39.19C191.768 39.325 191.43 39.5025 191.125 39.7225ZM199.724 46.165C199.424 46.165 199.164 46.055 198.944 45.835C198.724 45.61 198.609 45.3325 198.599 45.0025C198.594 44.7575 198.649 44.535 198.764 44.335C198.884 44.135 199.039 43.975 199.229 43.855C199.419 43.735 199.619 43.675 199.829 43.675C200.194 43.675 200.471 43.79 200.661 44.02C200.851 44.25 200.949 44.52 200.954 44.83C200.964 45.08 200.911 45.3075 200.796 45.5125C200.681 45.7125 200.529 45.8725 200.339 45.9925C200.149 46.1075 199.944 46.165 199.724 46.165ZM206.209 46.12C205.009 46.12 204.084 45.74 203.434 44.98C202.784 44.22 202.459 43.165 202.459 41.815C202.459 41.005 202.601 40.28 202.886 39.64C203.176 39 203.601 38.4925 204.161 38.1175C204.726 37.7425 205.419 37.55 206.239 37.54C206.659 37.53 207.054 37.59 207.424 37.72C207.794 37.85 208.121 38.0475 208.406 38.3125C208.691 38.5725 208.916 38.9025 209.081 39.3025C209.251 39.7025 209.344 40.17 209.359 40.705C209.359 41.02 209.356 41.3025 209.351 41.5525C209.346 41.7975 209.324 42.015 209.284 42.205H203.464L203.614 41.11H207.739C207.764 40.71 207.739 40.3325 207.664 39.9775C207.594 39.6175 207.439 39.3275 207.199 39.1075C206.964 38.8825 206.614 38.77 206.149 38.77C205.759 38.77 205.409 38.88 205.099 39.1C204.789 39.315 204.549 39.68 204.379 40.195C204.209 40.71 204.139 41.415 204.169 42.31C204.199 42.94 204.326 43.4375 204.551 43.8025C204.776 44.1675 205.071 44.4275 205.436 44.5825C205.801 44.7375 206.209 44.815 206.659 44.815C206.849 44.815 207.081 44.795 207.356 44.755C207.631 44.71 207.896 44.655 208.151 44.59C208.411 44.52 208.609 44.445 208.744 44.365L209.074 45.355C208.889 45.505 208.636 45.6375 208.316 45.7525C208.001 45.8675 207.659 45.9575 207.289 46.0225C206.919 46.0875 206.559 46.12 206.209 46.12ZM216.418 46V44.89L216.328 44.845V38.935L216.388 38.89L216.328 37.24V33.805H218.053V46H216.418ZM214.085 46.12C213.5 46.12 212.955 45.975 212.45 45.685C211.95 45.395 211.545 44.955 211.235 44.365C210.93 43.775 210.778 43.0275 210.778 42.1225C210.778 41.2175 210.953 40.4225 211.303 39.7375C211.653 39.0475 212.14 38.51 212.765 38.125C213.395 37.735 214.133 37.54 214.978 37.54C215.493 37.54 215.925 37.6025 216.275 37.7275C216.625 37.8475 216.848 37.95 216.943 38.035L216.328 39.1375C216.178 39.0075 215.978 38.9175 215.728 38.8675C215.483 38.8175 215.19 38.7925 214.85 38.7925C214.425 38.7925 214.04 38.91 213.695 39.145C213.355 39.38 213.083 39.73 212.878 40.195C212.673 40.66 212.568 41.235 212.563 41.92C212.548 42.9 212.718 43.6175 213.073 44.0725C213.428 44.5275 213.925 44.755 214.565 44.755C214.955 44.755 215.303 44.6825 215.608 44.5375C215.918 44.3925 216.158 44.2525 216.328 44.1175L216.613 44.9725C216.493 45.0975 216.333 45.25 216.133 45.43C215.933 45.61 215.668 45.77 215.338 45.91C215.008 46.05 214.59 46.12 214.085 46.12ZM222.902 46.12C222.357 46.12 221.917 46.035 221.582 45.865C221.247 45.695 220.992 45.4525 220.817 45.1375C220.642 44.8175 220.522 44.4375 220.457 43.9975C220.397 43.5575 220.367 43.07 220.367 42.535V37.645H222.092V42.52C222.092 43.18 222.142 43.665 222.242 43.975C222.347 44.285 222.507 44.485 222.722 44.575C222.942 44.665 223.227 44.71 223.577 44.71C223.782 44.71 224 44.68 224.23 44.62C224.465 44.555 224.685 44.48 224.89 44.395C225.095 44.305 225.257 44.22 225.377 44.14V37.645H227.102V46.12H226.307C226.077 46.12 225.895 46.085 225.76 46.015C225.625 45.95 225.557 45.78 225.557 45.505V44.92L225.587 45.25C225.362 45.4 225.097 45.5425 224.792 45.6775C224.492 45.8075 224.177 45.915 223.847 46C223.517 46.08 223.202 46.12 222.902 46.12ZM230.573 46.165C230.273 46.165 230.013 46.055 229.793 45.835C229.573 45.61 229.458 45.3325 229.448 45.0025C229.443 44.7575 229.498 44.535 229.613 44.335C229.733 44.135 229.888 43.975 230.078 43.855C230.268 43.735 230.468 43.675 230.678 43.675C231.043 43.675 231.321 43.79 231.511 44.02C231.701 44.25 231.798 44.52 231.803 44.83C231.813 45.08 231.761 45.3075 231.646 45.5125C231.531 45.7125 231.378 45.8725 231.188 45.9925C230.998 46.1075 230.793 46.165 230.573 46.165ZM235.041 46.165C234.741 46.165 234.481 46.055 234.261 45.835C234.041 45.61 233.926 45.3325 233.916 45.0025C233.911 44.7575 233.966 44.535 234.081 44.335C234.201 44.135 234.356 43.975 234.546 43.855C234.736 43.735 234.936 43.675 235.146 43.675C235.511 43.675 235.789 43.79 235.979 44.02C236.169 44.25 236.266 44.52 236.271 44.83C236.281 45.08 236.229 45.3075 236.114 45.5125C235.999 45.7125 235.846 45.8725 235.656 45.9925C235.466 46.1075 235.261 46.165 235.041 46.165ZM239.509 46.165C239.209 46.165 238.949 46.055 238.729 45.835C238.509 45.61 238.394 45.3325 238.384 45.0025C238.379 44.7575 238.434 44.535 238.549 44.335C238.669 44.135 238.824 43.975 239.014 43.855C239.204 43.735 239.404 43.675 239.614 43.675C239.979 43.675 240.256 43.79 240.446 44.02C240.636 44.25 240.734 44.52 240.739 44.83C240.749 45.08 240.696 45.3075 240.581 45.5125C240.466 45.7125 240.314 45.8725 240.124 45.9925C239.934 46.1075 239.729 46.165 239.509 46.165Z" fill="black" fill-opacity="0.7"/>
</svg>
