<svg width="196" height="54" viewBox="0 0 196 54" fill="none" xmlns="http://www.w3.org/2000/svg">
<g clip-path="url(#clip0_101_27)">
<rect width="196" height="54" rx="10" fill="#3F8640"/>
<path d="M86.47 37.07L81 22.14H84.33L87.14 30.57L87.86 33.26L88.58 30.57L91.24 22.14H94.55L89.16 37.07H86.47ZM96.1747 37V25.87H99.2247V37H96.1747ZM97.5447 24.26C97.0514 24.26 96.6347 24.1067 96.2947 23.8C95.9547 23.4933 95.7847 23.0933 95.7847 22.6C95.7847 22.2667 95.8747 21.9633 96.0547 21.69C96.2414 21.41 96.4814 21.1867 96.7747 21.02C97.0747 20.8533 97.3947 20.77 97.7347 20.77C98.2814 20.77 98.708 20.9267 99.0147 21.24C99.328 21.5467 99.4847 21.9433 99.4847 22.43C99.4847 22.9367 99.2914 23.37 98.9047 23.73C98.5247 24.0833 98.0714 24.26 97.5447 24.26ZM109.384 37V35.61L109.164 35.46V27.91L109.244 27.84L109.164 25.02V20.75H112.184V37H109.384ZM106.104 37.16C105.317 37.16 104.59 36.9667 103.924 36.58C103.264 36.1867 102.73 35.5967 102.324 34.81C101.917 34.0233 101.714 33.0267 101.714 31.82C101.714 30.5867 101.947 29.5133 102.414 28.6C102.88 27.68 103.534 26.97 104.374 26.47C105.214 25.97 106.2 25.72 107.334 25.72C108.02 25.72 108.584 25.7933 109.024 25.94C109.47 26.0867 109.757 26.21 109.884 26.31L109.174 28.24C109.007 28.1 108.77 28.0033 108.464 27.95C108.157 27.89 107.807 27.86 107.414 27.86C106.934 27.86 106.5 28 106.114 28.28C105.734 28.5533 105.43 28.97 105.204 29.53C104.984 30.0833 104.874 30.7767 104.874 31.61C104.86 32.7633 105.05 33.59 105.444 34.09C105.844 34.59 106.39 34.84 107.084 34.84C107.51 34.84 107.91 34.7667 108.284 34.62C108.664 34.4733 108.96 34.3233 109.174 34.17L109.544 35.69C109.39 35.8567 109.17 36.0567 108.884 36.29C108.597 36.5167 108.227 36.72 107.774 36.9C107.32 37.0733 106.764 37.16 106.104 37.16ZM118.054 29.74L117.914 27.6C118.034 27.28 118.254 26.9767 118.574 26.69C118.894 26.3967 119.274 26.16 119.714 25.98C120.154 25.7933 120.617 25.7 121.104 25.7C121.304 25.7 121.487 25.71 121.654 25.73C121.827 25.75 121.954 25.7833 122.034 25.83V28.8C121.941 28.74 121.797 28.68 121.604 28.62C121.411 28.56 121.117 28.53 120.724 28.53C120.244 28.53 119.831 28.6 119.484 28.74C119.137 28.8733 118.844 29.0367 118.604 29.23C118.371 29.4167 118.187 29.5867 118.054 29.74ZM115.184 37V25.87H117.824L117.994 27.61L118.234 28.14V37H115.184ZM128.368 37.16C127.395 37.16 126.568 37.0033 125.888 36.69C125.208 36.37 124.658 35.9333 124.238 35.38C123.825 34.8267 123.525 34.1933 123.338 33.48C123.151 32.76 123.061 32 123.068 31.2C123.088 30.0133 123.335 29.0133 123.808 28.2C124.288 27.3867 124.938 26.77 125.758 26.35C126.585 25.93 127.521 25.72 128.568 25.72C129.875 25.72 130.918 25.9933 131.698 26.54C132.478 27.0867 133.038 27.8133 133.378 28.72C133.718 29.62 133.878 30.6 133.858 31.66C133.845 32.8533 133.601 33.86 133.128 34.68C132.655 35.4933 132.008 36.11 131.188 36.53C130.368 36.95 129.428 37.16 128.368 37.16ZM128.448 35.03C129.241 35.0367 129.818 34.74 130.178 34.14C130.538 33.54 130.718 32.67 130.718 31.53C130.718 30.8567 130.645 30.2433 130.498 29.69C130.351 29.1367 130.115 28.6933 129.788 28.36C129.468 28.0267 129.041 27.8567 128.508 27.85C127.708 27.8433 127.128 28.1367 126.768 28.73C126.408 29.3167 126.228 30.1667 126.228 31.28C126.228 31.96 126.301 32.5867 126.448 33.16C126.595 33.7267 126.828 34.18 127.148 34.52C127.475 34.86 127.908 35.03 128.448 35.03Z" fill="white"/>
<path d="M47.6386 32.5562L47.2977 39.0279L47.2522 39.4148L37.7056 38.9048C37.1601 38.8697 36.6524 38.685 36.1827 38.3509C35.7129 38.0167 35.3568 37.6328 35.1144 37.199C34.9477 36.8824 34.8378 36.56 34.7848 36.2317C34.7318 35.9035 34.7621 35.5224 34.8757 35.0886C34.9894 34.6549 35.0803 34.3324 35.1485 34.1214C35.2167 33.9104 35.3796 33.5352 35.6372 32.9959C35.8948 32.4566 36.0387 32.1459 36.069 32.0638C37.251 32.2045 41.1075 32.3687 47.6386 32.5562ZM38.8421 22.2508L42.9335 28.9159L39.5922 27.298C38.6375 28.1421 37.7927 28.9892 37.0578 29.8392C36.3229 30.6892 35.7735 31.4219 35.4099 32.0375C35.0462 32.653 34.7469 33.2069 34.512 33.6993C34.2772 34.1918 34.137 34.5611 34.0915 34.8073L34.0006 35.1766L29.6819 28.8983C29.4243 28.5935 29.2879 28.2652 29.2728 27.9135C29.2576 27.5618 29.3031 27.2863 29.4091 27.087L29.591 26.7704C30.1213 26.0318 30.9851 24.9297 32.1822 23.4642L29 21.9518L38.8421 22.2508ZM66.8228 31.3428L62.5495 37.6562C62.3677 37.9962 62.0911 38.2688 61.7199 38.474C61.3486 38.6792 61.019 38.7993 60.7311 38.8345L60.322 38.9048C59.2461 38.9869 57.5868 39.0573 55.3441 39.1159L55.5259 42L50.298 35.5459L55.0941 29.1797L55.2532 32.2221C57.8292 32.4097 59.9734 32.439 61.6858 32.31C63.3981 32.1811 64.6861 31.9876 65.5499 31.7297L66.8228 31.3428ZM48.9797 15.0932C48.2675 15.8318 46.2597 18.3818 42.9562 22.7432L35.7508 19.4546L35.3189 19.2435L40.4332 12.9829C40.7363 12.6194 41.1909 12.3556 41.797 12.1915C42.4031 12.0274 43.0093 11.9687 43.6154 12.0156C43.9791 12.0391 44.3466 12.1094 44.7178 12.2267C45.0891 12.3439 45.4073 12.467 45.6725 12.596C45.9377 12.7249 46.2521 12.9184 46.6158 13.1763C46.9794 13.4342 47.2522 13.6365 47.434 13.783C47.6159 13.9296 47.8886 14.1611 48.2523 14.4777C48.616 14.7942 48.8585 14.9994 48.9797 15.0932ZM63.8679 20.4922L68.6866 26.8759C68.9594 27.3097 69.0541 27.7552 68.9707 28.2125C68.8874 28.6697 68.679 29.1035 68.3457 29.5138C68.1487 29.7483 67.8986 29.9652 67.5956 30.1645C67.2925 30.3638 67.0046 30.528 66.7318 30.6569C66.4591 30.7859 66.0916 30.9149 65.6294 31.0438C65.1673 31.1728 64.8111 31.2666 64.5611 31.3252C64.3111 31.3838 63.9209 31.4659 63.3905 31.5714C62.8602 31.6769 62.5116 31.7473 62.3449 31.7825C61.8297 30.9383 59.8219 28.3825 56.3215 24.1149L63.436 20.6856L63.8679 20.4922ZM60.6175 16.5177L63.8451 15.058L58.8445 21.6177L49.3206 21.2659L52.7529 19.7535C52.2377 18.7101 51.6694 17.737 51.0481 16.8342C50.4268 15.9315 49.8548 15.2075 49.332 14.6623C48.8092 14.1172 48.3205 13.6482 47.8659 13.2555C47.4113 12.8627 47.0552 12.5901 46.7976 12.4377L46.4112 12.2091L55.6169 12.2267C56.0866 12.1915 56.5261 12.253 56.9352 12.4113C57.3443 12.5696 57.6398 12.7367 57.8217 12.9125L58.0717 13.1763C58.6627 13.8915 59.5113 15.0053 60.6175 16.5177Z" fill="white"/>
</g>
<defs>
<clipPath id="clip0_101_27">
<rect width="196" height="54" rx="10" fill="white"/>
</clipPath>
</defs>
</svg>
