<svg width="394" height="581" viewBox="0 0 394 581" fill="none" xmlns="http://www.w3.org/2000/svg">
<path d="M335.789 367.594C337.279 367.911 338.515 368.535 339.497 369.467C340.479 370.399 340.969 371.481 340.969 372.712C340.969 373.451 340.788 374.172 340.424 374.876C339.842 376.001 338.97 376.846 337.806 377.408C336.661 377.971 335.334 378.253 333.825 378.253C332.88 378.253 332.035 378.085 331.29 377.751C330.544 377.4 329.808 376.933 329.081 376.353C328.808 376.107 328.563 375.755 328.345 375.298C328.145 374.84 328.045 374.462 328.045 374.163C328.045 373.776 328.154 373.469 328.372 373.24C328.608 372.994 328.917 372.871 329.299 372.871C329.681 372.871 329.981 372.959 330.199 373.134C330.417 373.31 330.681 373.592 330.99 373.979C331.281 374.348 331.544 374.647 331.78 374.876C332.017 375.087 332.335 375.271 332.735 375.43C333.135 375.588 333.635 375.667 334.234 375.667C335.452 375.667 336.407 375.377 337.097 374.796C337.788 374.216 338.134 373.398 338.134 372.343C338.134 371.938 337.906 371.534 337.452 371.129C336.997 370.707 336.57 370.408 336.17 370.232C335.934 370.109 335.498 369.986 334.862 369.863C334.007 369.652 333.362 369.45 332.926 369.256C332.508 369.045 332.299 368.72 332.299 368.28C332.299 367.981 332.435 367.691 332.708 367.409C332.98 367.11 333.389 366.741 333.935 366.301C334.48 365.862 334.889 365.501 335.162 365.22C335.434 364.921 335.571 364.622 335.571 364.323C335.225 364.235 334.707 364.191 334.016 364.191C333.707 364.191 333.244 364.208 332.626 364.244C332.08 364.279 331.662 364.296 331.371 364.296C330.717 364.296 330.154 364.191 329.681 363.98C329.226 363.769 328.999 363.496 328.999 363.162C328.999 362.793 329.036 362.502 329.108 362.291C329.181 362.063 329.317 361.922 329.517 361.869C329.645 361.816 329.872 361.79 330.199 361.79C331.09 361.79 331.862 361.816 332.517 361.869C333.244 361.904 333.798 361.922 334.18 361.922L336.443 361.896C338.297 361.896 339.224 362.326 339.224 363.188C339.224 363.839 338.879 364.578 338.188 365.404C337.516 366.213 336.716 366.943 335.789 367.594ZM352.856 371.156C353.492 372.193 354.128 373.117 354.764 373.926C355.419 374.717 356.273 375.693 357.328 376.854C357.455 376.977 357.518 377.118 357.518 377.276C357.518 377.523 357.373 377.734 357.082 377.91C356.809 378.085 356.473 378.173 356.073 378.173C355.51 378.173 354.901 377.945 354.246 377.487C353.665 377.083 353.147 376.547 352.692 375.878C352.238 375.21 351.711 374.339 351.111 373.266C350.638 372.44 350.356 371.956 350.265 371.815C349.557 372.097 348.448 372.273 346.939 372.343C346.939 372.941 346.993 373.75 347.103 374.77C347.212 375.825 347.266 376.59 347.266 377.065C347.266 377.382 347.103 377.646 346.775 377.857C346.466 378.068 346.112 378.173 345.712 378.173C345.239 378.173 344.876 377.989 344.621 377.619C344.367 377.127 344.203 376.538 344.13 375.852C344.058 375.166 344.021 374.348 344.021 373.398C344.021 372.396 344.085 371.261 344.212 369.995C344.321 368.588 344.376 367.55 344.376 366.882C344.376 366.337 344.321 365.607 344.212 364.692C344.194 364.534 344.167 364.261 344.13 363.874C344.094 363.487 344.076 363.135 344.076 362.819C344.076 362.573 344.167 362.362 344.349 362.186C344.549 361.992 344.758 361.86 344.976 361.79C346.448 361.561 347.884 361.447 349.284 361.447C351.665 361.447 353.637 361.878 355.201 362.74C356.764 363.602 357.546 364.912 357.546 366.671C357.546 367.216 357.418 367.744 357.164 368.254C356.928 368.746 356.6 369.159 356.182 369.494C355.073 370.32 353.965 370.874 352.856 371.156ZM354.683 366.592C354.683 365.747 354.219 365.061 353.292 364.534C352.365 363.989 351.047 363.716 349.338 363.716C348.575 363.716 347.821 363.804 347.075 363.98L347.103 365.325C347.103 366.099 347.075 366.855 347.021 367.594C346.966 368.333 346.939 369.124 346.939 369.969C347.248 369.898 347.575 369.854 347.921 369.837C348.266 369.801 348.493 369.775 348.602 369.757C349.402 369.687 350.02 369.599 350.456 369.494C351.274 369.247 351.947 369.028 352.474 368.834C353.019 368.623 353.519 368.333 353.974 367.963C354.446 367.576 354.683 367.119 354.683 366.592ZM367.593 372.211C367.739 372.299 368.021 372.466 368.439 372.712C368.875 372.941 369.166 373.214 369.311 373.53C369.457 373.847 369.529 374.286 369.529 374.849C369.529 375.482 369.338 376.045 368.957 376.538C368.575 377.013 368.084 377.382 367.484 377.646C367.048 377.839 366.512 377.989 365.876 378.094C365.258 378.2 364.767 378.253 364.403 378.253C364.04 378.253 363.567 378.2 362.985 378.094C362.422 377.989 362.031 377.892 361.813 377.804C361.249 377.487 360.759 377.101 360.34 376.643C359.941 376.186 359.741 375.72 359.741 375.245C359.741 374.893 359.859 374.621 360.095 374.427C360.331 374.216 360.64 374.111 361.022 374.111C361.204 374.111 361.395 374.181 361.595 374.322C361.795 374.445 361.931 374.577 362.004 374.717C362.204 375.175 362.54 375.518 363.013 375.746C363.485 375.975 363.967 376.089 364.458 376.089C365.094 376.089 365.685 375.992 366.23 375.799C366.775 375.588 367.048 375.307 367.048 374.955C367.048 374.796 367.003 374.673 366.912 374.585C366.839 374.48 366.73 374.374 366.585 374.269C366.33 374.093 365.948 373.952 365.439 373.847C364.93 373.724 364.603 373.644 364.458 373.609C363.712 373.451 362.985 373.214 362.276 372.897C361.567 372.563 361.004 372.167 360.586 371.71C360.168 371.252 359.959 370.663 359.959 369.942C359.959 369.467 360.141 368.975 360.504 368.465C360.868 367.937 361.277 367.568 361.731 367.357C362.058 367.234 362.604 367.102 363.367 366.961C364.149 366.82 364.676 366.75 364.949 366.75C365.367 366.75 365.821 366.794 366.312 366.882C366.803 366.952 367.175 367.075 367.43 367.251C367.921 367.533 368.321 367.832 368.63 368.148C368.939 368.447 369.093 368.79 369.093 369.177C369.093 369.371 369.048 369.582 368.957 369.81C368.866 370.021 368.757 370.153 368.63 370.206C368.357 370.329 368.039 370.391 367.675 370.391C367.512 370.391 367.375 370.347 367.266 370.259C367.175 370.171 367.048 370.03 366.884 369.837C366.685 369.538 366.494 369.362 366.312 369.309C366.094 369.256 365.776 369.195 365.358 369.124C364.939 369.036 364.658 368.992 364.512 368.992C364.094 368.992 363.658 369.107 363.203 369.335C362.767 369.564 362.549 369.828 362.549 370.127C362.549 370.285 362.613 370.408 362.74 370.496C362.885 370.584 363.031 370.663 363.176 370.734C363.34 370.804 363.449 370.848 363.503 370.866C363.885 371.041 364.303 371.191 364.758 371.314C365.23 371.437 365.521 371.516 365.63 371.551C366.612 371.78 367.266 372 367.593 372.211Z" fill="#BEDECB"/>
<path d="M304.121 44.5356L152.352 16.4947C103.046 7.38491 55.4437 38.6738 46.0286 86.3804L17.0478 233.227C7.63268 280.934 39.9704 326.992 89.2761 336.102L241.045 364.143C290.351 373.253 337.953 341.964 347.368 294.257L376.349 147.411C385.764 99.7041 353.427 53.6454 304.121 44.5356Z" fill="#4D8B4D"/>
<path d="M254.486 35.5992L136.332 36.1488C86.1362 36.3823 45.6399 75.9437 45.8812 124.512L46.5366 256.422C46.7779 304.99 87.6654 344.173 137.861 343.939L256.015 343.39C306.211 343.156 346.708 303.595 346.466 255.027L345.811 123.117C345.57 74.5487 304.682 35.3658 254.486 35.5992Z" fill="#BEDECB"/>
<path fill-rule="evenodd" clip-rule="evenodd" d="M120.786 243.54C131.44 260.047 205.92 296.532 253.199 249.576C281.179 221.785 301.338 162.733 268.777 94.5571C154.436 114.532 125.425 154.575 120.786 243.54Z" fill="#7AC143"/>
<path fill-rule="evenodd" clip-rule="evenodd" d="M257.844 146.663C257.844 146.663 181.146 233.968 81.957 252.688L86.0477 260.304C86.0477 260.304 191.071 251.108 257.844 146.663Z" fill="#3F8640"/>
<path fill-rule="evenodd" clip-rule="evenodd" d="M165.869 184.918C165.817 185.014 145.689 224.77 143.007 237.751L154.286 234.086C156.821 221.857 165.817 185.012 165.869 184.918Z" fill="#3F8640"/>
<path fill-rule="evenodd" clip-rule="evenodd" d="M204.881 173.038C204.831 173.102 186.446 201.127 183.315 210.51L191.978 208.5C194.929 199.66 204.831 173.102 204.881 173.038Z" fill="#3F8640"/>
<path fill-rule="evenodd" clip-rule="evenodd" d="M234.506 211.853C234.375 211.858 183.687 215.139 169.013 218.958L178.232 225.32C192.057 221.72 234.379 211.858 234.506 211.853Z" fill="#3F8640"/>
<path fill-rule="evenodd" clip-rule="evenodd" d="M228.676 161.392C228.653 161.442 219.811 182.024 218.89 188.659L224.466 186.55C225.335 180.3 228.653 161.442 228.676 161.392Z" fill="#3F8640"/>
<path fill-rule="evenodd" clip-rule="evenodd" d="M257.27 184.611C257.188 184.617 222.548 186.856 212.522 189.463L218.821 193.812C228.271 191.355 257.192 184.614 257.27 184.611Z" fill="#3F8640"/>
<path d="M103.359 424.123C100.232 421.942 97.542 420.359 95.2879 419.374C93.0339 418.319 90.4164 417.791 87.4353 417.791C81.473 417.791 76.3468 419.268 72.0569 422.223C68.7849 424.545 66.3491 427.57 64.7494 431.299C63.1498 435.027 62.35 439.213 62.35 443.857C62.35 448.289 63.4043 452.194 65.5129 455.57C67.6215 458.877 70.3482 461.41 73.6929 463.169C77.0376 464.927 80.5277 465.807 84.1633 465.807C87.7988 465.807 90.9252 465.279 93.5428 464.224C96.2331 463.098 98.3781 461.656 99.9778 459.897C102.45 456.872 103.686 452.862 103.686 447.867C103.686 447.163 103.104 446.671 101.941 446.389C100.778 446.108 99.1052 445.967 96.9239 445.967L89.0713 446.073C86.9627 446.073 85.2903 445.686 84.0542 444.912C82.8181 444.138 82.2001 443.153 82.2001 441.957C82.2001 440.269 82.7818 439.038 83.9452 438.264C85.1085 437.419 86.6718 436.997 88.635 436.997C90.9616 436.997 94.0882 437.138 98.0146 437.419C101.941 437.701 104.777 437.841 106.522 437.841C109.067 437.841 111.103 438.615 112.63 440.163C114.229 441.711 115.029 443.962 115.029 446.917C115.029 449.661 114.411 452.862 113.175 456.52C111.939 460.179 110.194 463.45 107.94 466.334C105.758 469.149 102.523 471.294 98.2327 472.772C94.0155 474.179 89.3258 474.882 84.1633 474.882C79.8733 474.882 75.7288 474.214 71.7297 472.877C67.7306 471.541 64.3859 469.676 61.6956 467.284C58.3508 464.259 55.6969 460.671 53.7337 456.52C51.8432 452.299 50.8979 448.113 50.8979 443.962C50.8979 437.912 52.3522 432.037 55.2606 426.339C58.2418 420.57 62.2409 416.102 67.258 412.937C69.4393 411.53 72.4932 410.369 76.4195 409.454C80.346 408.54 83.9451 408.082 87.2171 408.082C92.3067 408.082 96.7785 408.856 100.632 410.404C104.486 411.881 107.431 414.027 109.467 416.841C110.339 418.108 110.775 419.233 110.775 420.218C110.775 421.344 110.266 422.399 109.248 423.384C108.23 424.369 107.213 424.861 106.195 424.861C105.758 424.861 105.249 424.791 104.668 424.65C104.086 424.51 103.65 424.334 103.359 424.123ZM142.67 470.661C142.67 471.857 142.197 472.912 141.252 473.827C140.307 474.742 139.144 475.199 137.762 475.199C135.581 475.199 133.981 474.812 132.963 474.038C131.945 473.194 131.436 471.681 131.436 469.5C131.436 466.897 131.364 463.485 131.218 459.264C131.073 455.746 131 452.792 131 450.4C131 449.274 131.073 447.796 131.218 445.967C131.364 444.279 131.436 443.012 131.436 442.168C131.218 440.832 130.673 439.741 129.8 438.897C128.928 437.982 127.801 437.525 126.419 437.525C125.765 437.525 125.219 437.243 124.783 436.681C124.347 436.048 124.129 435.414 124.129 434.781C124.129 433.163 124.783 431.932 126.092 431.088C127.473 430.243 129.109 429.821 131 429.821C134.926 429.821 137.653 432.073 139.18 436.575C141.07 434.465 143.215 432.776 145.615 431.51C148.087 430.173 150.45 429.505 152.704 429.505C155.395 429.505 157.83 430.208 160.012 431.615C162.266 433.022 163.393 434.922 163.393 437.314C163.393 438.651 162.775 440.022 161.539 441.43C160.375 442.837 159.176 443.54 157.939 443.54C157.285 443.54 156.703 443.399 156.194 443.118C155.758 442.766 155.213 442.274 154.558 441.641C153.831 440.937 153.213 440.445 152.704 440.163C152.195 439.811 151.614 439.636 150.959 439.636C149.796 439.636 148.705 439.811 147.687 440.163C146.669 440.515 145.978 440.937 145.615 441.43C144.452 443.188 143.579 444.771 142.997 446.178C142.488 447.585 142.234 449.098 142.234 450.716C142.234 451.912 142.197 452.862 142.125 453.565L142.016 459.581C142.016 460.495 142.052 461.515 142.125 462.641C142.197 463.767 142.27 464.611 142.343 465.174C142.561 467.073 142.67 468.902 142.67 470.661ZM169.005 452.51C169.005 449.837 169.514 447.163 170.532 444.49C171.55 441.746 172.895 439.249 174.568 436.997C176.24 434.746 178.894 432.917 182.529 431.51C186.165 430.032 189.401 429.294 192.236 429.294C195.145 429.294 198.09 429.681 201.071 430.454C204.125 431.228 206.233 432.424 207.397 434.042C210.087 437.701 211.432 441.289 211.432 444.806C211.432 446.706 210.996 448.324 210.123 449.661C209.323 450.998 208.16 452.44 206.633 453.988C205.397 455.254 203.434 456.098 200.744 456.52C198.126 456.942 195.508 457.153 192.891 457.153C191.218 457.153 189.182 457.013 186.783 456.731C184.384 456.38 182.057 455.957 179.803 455.465C179.948 456.872 180.312 458.244 180.893 459.581C181.475 460.917 182.166 461.937 182.966 462.641C184.42 463.978 185.91 464.822 187.437 465.174C189.037 465.525 191.073 465.701 193.545 465.701C196.163 465.701 198.599 465.279 200.853 464.435C202.67 463.802 204.161 463.485 205.324 463.485C206.706 463.485 207.76 463.907 208.487 464.752C209.214 465.525 209.578 466.546 209.578 467.812C209.578 469.571 208.524 471.013 206.415 472.139C204.306 473.264 201.871 474.108 199.108 474.671C196.417 475.164 194.236 475.41 192.564 475.41C189.146 475.41 185.838 474.812 182.638 473.616C179.439 472.42 176.785 470.732 174.677 468.551C172.932 466.581 171.55 464.224 170.532 461.48C169.514 458.666 169.005 455.676 169.005 452.51ZM192.782 438.264C191.182 438.264 189.582 438.58 187.983 439.213C186.383 439.776 185.074 440.585 184.056 441.641C182.748 442.977 181.839 444.068 181.33 444.912C180.893 445.686 180.603 446.776 180.457 448.183C182.275 448.746 186.056 449.028 191.8 449.028C194.927 449.028 197.326 448.57 198.998 447.656C200.744 446.741 201.616 445.545 201.616 444.068C201.616 442.59 200.671 441.254 198.78 440.058C196.89 438.862 194.89 438.264 192.782 438.264ZM220.765 450.716C220.765 446.425 221.746 442.872 223.709 440.058C225.673 437.173 228.399 434.465 231.889 431.932C232.907 431.228 234.616 430.63 237.015 430.138C239.415 429.575 241.524 429.294 243.341 429.294C245.523 429.294 247.813 429.751 250.213 430.666C252.685 431.51 254.684 432.495 256.211 433.62C258.902 435.52 260.756 437.736 261.774 440.269C262.792 442.731 263.301 445.686 263.301 449.133C263.301 450.611 262.428 452.053 260.683 453.46C259.011 454.797 257.193 455.465 255.23 455.465L251.085 455.359C248.976 455.359 245.959 455.43 242.033 455.57L239.742 455.676C238.143 455.817 236.943 455.887 236.143 455.887C234.98 455.887 233.38 455.746 231.344 455.465C231.635 458.772 232.907 461.375 235.161 463.274C237.415 465.103 239.851 466.018 242.469 466.018C247.05 466.018 250.249 465.138 252.067 463.38C253.594 462.324 254.612 461.656 255.121 461.375C255.63 461.093 256.429 460.952 257.52 460.952C258.683 460.952 259.701 461.48 260.574 462.535C261.446 463.591 261.883 464.646 261.883 465.701C261.883 466.897 261.119 468.128 259.592 469.395C258.138 470.591 256.139 471.857 253.594 473.194C252.212 473.757 250.322 474.249 247.922 474.671C245.523 475.093 243.523 475.304 241.924 475.304C239.379 475.304 236.543 474.601 233.416 473.194C230.29 471.716 227.963 470.098 226.436 468.34C224.909 466.581 223.564 464.083 222.401 460.847C221.31 457.611 220.765 454.234 220.765 450.716ZM242.469 447.867C247.631 447.867 251.412 447.691 253.812 447.339C253.666 445.299 253.012 443.646 251.849 442.379C250.685 441.043 249.086 439.917 247.05 439.002C246.395 438.721 245.814 438.51 245.305 438.369C244.796 438.228 244.214 438.158 243.56 438.158C240.215 438.158 237.379 439.038 235.052 440.796C232.798 442.555 231.453 444.806 231.017 447.55C234.652 447.761 238.47 447.867 242.469 447.867ZM272.747 437.736C272.165 437.314 271.692 436.892 271.329 436.47C270.965 435.977 270.783 435.133 270.783 433.937C270.783 432.6 271.256 431.58 272.201 430.877C273.219 430.103 274.383 429.716 275.691 429.716C278.236 429.716 280.418 430.349 282.235 431.615C284.126 432.882 285.507 434.64 286.38 436.892C287.98 434.007 290.016 432.037 292.488 430.982C294.96 429.856 298.377 429.294 302.74 429.294C304.485 429.294 306.266 429.821 308.084 430.877C309.975 431.862 311.683 433.093 313.21 434.57C314.446 436.118 315.501 438.053 316.373 440.374C317.246 442.626 317.682 444.666 317.682 446.495C317.682 447.55 317.609 449.274 317.464 451.666C317.319 454.199 317.246 456.204 317.246 457.681C317.246 462.606 318.227 465.631 320.191 466.757C320.482 466.897 321.027 467.073 321.827 467.284C322.626 467.495 323.208 467.706 323.572 467.917C324.008 468.128 324.226 468.445 324.226 468.867C324.299 470.556 323.644 471.963 322.263 473.088C320.954 474.144 319.354 474.671 317.464 474.671C314.628 474.671 312.411 473.933 310.811 472.455C309.211 470.978 308.084 468.726 307.43 465.701C307.066 464.576 306.885 462.922 306.885 460.741C306.885 459.545 306.957 457.611 307.103 454.937C307.321 452.827 307.43 450.575 307.43 448.183C307.43 445.721 306.703 443.575 305.249 441.746C303.794 439.847 301.795 438.897 299.25 438.897C297.723 438.897 296.123 439.354 294.451 440.269C292.779 441.113 291.615 442.168 290.961 443.435C289.87 445.616 289.143 447.832 288.779 450.083C287.907 454.445 287.471 458.631 287.471 462.641C287.471 463.626 287.543 465.525 287.689 468.34C287.689 468.551 287.689 469.078 287.689 469.922C287.689 470.696 287.58 471.435 287.362 472.139C287.216 472.842 286.925 473.475 286.489 474.038C286.198 474.32 285.653 474.601 284.853 474.882C284.053 475.164 283.362 475.304 282.781 475.304C281.763 475.304 280.49 474.882 278.963 474.038C277.437 473.194 276.528 472.244 276.237 471.189L276.128 469.711C276.128 469.149 276.2 468.304 276.346 467.179C277.218 462.254 277.655 457.962 277.655 454.304C277.655 452.686 277.618 451.455 277.546 450.611L277.437 445.756C277.437 444.279 277 442.872 276.128 441.535C275.255 440.128 274.128 438.862 272.747 437.736Z" fill="#BEDECB"/>
<g filter="url(#filter0_d_4_2)">
<mask id="path-12-inside-1_4_2" fill="white">
<path d="M102.268 552.517C102.268 555.823 101.468 558.673 99.8687 561.065C98.3418 563.386 95.7969 565.532 92.2341 567.502C89.8348 568.909 87.0354 569.964 83.8361 570.668C80.6368 571.371 77.4012 571.723 74.1292 571.723C70.7845 571.723 66.6399 570.668 61.6956 568.557C58.1327 566.869 55.297 564.864 53.1884 562.542C51.1525 560.22 50.1345 557.688 50.1345 554.944C50.1345 553.044 50.5708 551.673 51.4433 550.828C52.3159 549.914 53.7337 549.456 55.6969 549.456C56.7149 549.456 57.7692 549.879 58.8599 550.723C59.9505 551.497 60.6049 552.271 60.8231 553.044C61.841 555.929 63.6224 558.145 66.1673 559.693C68.7122 561.17 71.8751 561.909 75.6561 561.909C80.0188 561.909 83.6543 561.135 86.5628 559.587C89.5439 558.04 91.0343 555.964 91.0343 553.361C91.0343 550.828 89.4349 548.577 86.2356 546.607C83.0363 544.637 79.7643 543.265 76.4196 542.492C71.6207 541.225 67.3671 539.713 63.6588 537.954C59.8051 536.125 56.933 533.873 55.0425 531.2C53.152 528.526 52.2068 525.712 52.2068 522.758C52.2068 520.014 53.1884 517.235 55.1516 514.421C57.1148 511.536 59.4415 509.461 62.1319 508.194C63.5861 507.491 66.0583 506.752 69.5484 505.978C73.1112 505.134 75.6925 504.712 77.2921 504.712C79.4007 504.712 81.7275 504.958 84.2724 505.451C86.8173 505.943 88.8895 506.647 90.4892 507.561C93.6883 509.32 96.0514 510.903 97.5783 512.31C99.1053 513.717 99.8687 515.476 99.8687 517.587C99.8687 518.853 99.3598 519.979 98.3418 520.964C97.3966 521.948 95.7242 522.441 93.3247 522.441C92.743 522.441 92.1614 522.195 91.5797 521.702C90.998 521.21 90.2711 520.471 89.3985 519.486C88.2351 518.009 87.1081 517.024 86.0175 516.531C84.9268 516.18 83.3271 515.793 81.2185 515.37C79.1826 514.948 77.3648 514.737 75.7652 514.737C74.0201 514.737 72.2023 515.089 70.3119 515.793C68.4214 516.496 66.8217 517.516 65.5129 518.853C64.2768 520.119 63.6588 521.597 63.6588 523.285C63.6588 524.692 64.3132 525.923 65.622 526.979C67.0035 527.964 68.6395 528.773 70.53 529.406C72.7113 530.25 75.0744 530.989 77.6193 531.622C80.964 532.607 83.6907 533.522 85.7993 534.366C87.9806 535.14 90.0893 536.125 92.125 537.321C95.6878 539.361 98.2691 541.471 99.8687 543.652C101.468 545.763 102.268 548.718 102.268 552.517ZM155.659 537.743C156.241 538.728 156.713 540.17 157.077 542.069C157.44 543.899 157.622 545.552 157.622 547.029C157.622 549.773 157.004 553.678 155.768 558.743C150.751 567.608 143.335 572.04 133.519 572.04C129.883 572.04 126.175 570.879 122.394 568.557C118.613 566.236 115.995 563.562 114.541 560.537C112.578 554.487 111.596 550.652 111.596 549.034C111.596 546.22 112.214 543.23 113.45 540.064C114.759 536.898 116.395 534.155 118.358 531.833C119.594 530.215 121.812 528.843 125.011 527.717C128.211 526.521 131.119 525.923 133.737 525.923C138.826 525.923 143.153 526.873 146.716 528.773C150.278 530.602 153.26 533.592 155.659 537.743ZM146.17 554.733C146.534 553.818 146.716 551.462 146.716 547.662C146.716 545.622 146.316 543.617 145.516 541.647C144.789 539.677 143.698 537.989 142.244 536.582C142.098 536.441 141.699 536.23 141.044 535.949C140.39 535.597 139.481 535.28 138.317 534.999C137.227 534.647 135.954 534.471 134.5 534.471C130.428 534.471 127.447 536.054 125.557 539.22C123.666 542.386 122.721 545.974 122.721 549.984C122.721 550.688 122.903 552.024 123.266 553.994C123.703 555.964 124.066 557.195 124.357 557.688C124.575 558.18 125.12 558.884 125.993 559.798C126.938 560.643 128.065 561.416 129.374 562.12C130.756 562.753 132.173 563.07 133.628 563.07C136.9 563.07 139.517 562.331 141.48 560.854C143.444 559.306 145.007 557.266 146.17 554.733ZM180.495 555.261C180.495 557.934 180.895 560.009 181.695 561.487C182.568 562.894 183.658 563.597 184.967 563.597C185.694 563.597 186.385 563.562 187.039 563.492C187.694 563.351 188.348 563.281 189.003 563.281C189.73 563.281 190.348 563.633 190.857 564.336C191.438 565.04 191.729 565.814 191.729 566.658C191.729 568.346 190.893 569.683 189.221 570.668C187.621 571.582 185.44 572.04 182.677 572.04C180.713 572.04 178.714 571.477 176.678 570.351C174.715 569.155 173.079 567.326 171.77 564.864C170.461 562.331 169.807 559.2 169.807 555.472C169.807 547.451 169.952 540.662 170.243 535.104C170.607 528.491 170.788 520.154 170.788 510.094C170.788 506.928 170.97 504.712 171.334 503.446C171.77 502.461 172.461 501.722 173.406 501.23C174.424 500.667 175.478 500.385 176.569 500.385C177.66 500.385 178.605 500.561 179.405 500.913C180.277 501.265 180.859 501.828 181.15 502.601C181.441 503.446 181.622 504.29 181.695 505.134C181.841 505.908 181.913 507.034 181.913 508.511C181.913 511.396 181.804 514.174 181.586 516.848C181.441 520.084 181.368 522.441 181.368 523.918C180.786 536.3 180.495 546.748 180.495 555.261ZM224.472 544.497C224.69 543.934 225.454 541.894 226.762 538.376C228.144 534.858 229.416 532.185 230.58 530.356C232.47 527.471 234.143 526.029 235.597 526.029C237.633 526.029 239.196 526.416 240.287 527.19C241.377 527.893 241.923 528.913 241.923 530.25C241.923 530.883 241.632 531.763 241.05 532.888C240.541 534.014 240.25 534.682 240.178 534.893C237.269 541.084 234.651 547.733 232.325 554.838L230.034 563.07C229.162 565.743 227.671 567.924 225.563 569.613C223.454 571.231 220.982 572.04 218.146 572.04C215.601 572.04 213.238 570.914 211.057 568.663C209.748 566.693 208.366 564.195 206.912 561.17C205.531 558.145 204.331 555.19 203.313 552.306L199.496 541.225C198.696 539.044 198.041 537.18 197.532 535.632C197.096 534.084 196.878 532.677 196.878 531.411C196.805 529.934 197.242 528.738 198.187 527.823C199.132 526.908 200.441 526.451 202.113 526.451C204.004 526.451 205.349 526.838 206.149 527.612C206.949 528.315 207.676 529.441 208.33 530.989C208.621 532.607 209.421 535.914 210.73 540.909L211.493 543.863C212.147 546.255 212.984 548.683 214.002 551.145C215.02 553.607 216.037 555.964 217.055 558.215C216.91 557.864 217.419 559.024 218.582 561.698C219.309 559.658 220.146 557.16 221.091 554.205L224.472 544.497ZM248.563 547.451C248.563 543.16 249.545 539.607 251.508 536.793C253.471 533.908 256.198 531.2 259.688 528.667C260.706 527.964 262.414 527.366 264.814 526.873C267.213 526.31 269.322 526.029 271.14 526.029C273.321 526.029 275.611 526.486 278.011 527.401C280.483 528.245 282.483 529.23 284.01 530.356C286.7 532.255 288.554 534.471 289.572 537.004C290.59 539.466 291.099 542.421 291.099 545.868C291.099 547.346 290.226 548.788 288.481 550.195C286.809 551.532 284.991 552.2 283.028 552.2L278.883 552.095C276.775 552.095 273.757 552.165 269.831 552.306L267.541 552.411C265.941 552.552 264.741 552.622 263.941 552.622C262.778 552.622 261.178 552.482 259.142 552.2C259.433 555.507 260.706 558.11 262.96 560.009C265.214 561.839 267.65 562.753 270.267 562.753C274.848 562.753 278.047 561.874 279.865 560.115C281.392 559.06 282.41 558.391 282.919 558.11C283.428 557.828 284.228 557.688 285.318 557.688C286.482 557.688 287.5 558.215 288.372 559.271C289.245 560.326 289.681 561.381 289.681 562.437C289.681 563.633 288.918 564.864 287.391 566.13C285.936 567.326 283.937 568.592 281.392 569.929C280.01 570.492 278.12 570.984 275.721 571.407C273.321 571.829 271.322 572.04 269.722 572.04C267.177 572.04 264.341 571.336 261.215 569.929C258.088 568.452 255.761 566.834 254.234 565.075C252.707 563.316 251.362 560.818 250.199 557.582C249.108 554.346 248.563 550.969 248.563 547.451ZM270.267 544.602C275.43 544.602 279.211 544.426 281.61 544.074C281.465 542.034 280.81 540.381 279.647 539.115C278.484 537.778 276.884 536.652 274.848 535.738C274.194 535.456 273.612 535.245 273.103 535.104C272.594 534.964 272.012 534.893 271.358 534.893C268.013 534.893 265.177 535.773 262.851 537.532C260.597 539.29 259.251 541.542 258.815 544.286C262.451 544.497 266.268 544.602 270.267 544.602ZM332.393 547.451C335.302 549.07 337.338 550.688 338.501 552.306C339.665 553.854 340.246 555.894 340.246 558.426C340.246 560.959 339.483 563.21 337.956 565.18C336.429 567.08 334.466 568.557 332.066 569.613C330.321 570.387 328.14 570.984 325.522 571.407C322.977 571.829 320.978 572.04 319.524 572.04C316.979 572.04 314.216 571.582 311.234 570.668C308.253 569.753 305.708 568.452 303.6 566.763C301.564 565.075 300.546 563.105 300.546 560.854C300.546 559.447 301.019 558.356 301.964 557.582C302.909 556.738 304.145 556.316 305.672 556.316C306.908 556.316 308.217 557.16 309.598 558.849C310.98 560.326 312.58 561.452 314.397 562.226C316.288 562.999 318.142 563.386 319.96 563.386C326.867 563.386 330.321 561.874 330.321 558.849C330.321 558.215 330.103 557.617 329.667 557.055C329.23 556.421 328.831 555.999 328.467 555.788C327.813 555.296 326.904 554.874 325.74 554.522C324.577 554.17 323.414 553.889 322.25 553.678C321.087 553.396 320.214 553.185 319.633 553.044C319.051 552.904 317.815 552.658 315.924 552.306C314.107 551.954 312.361 551.356 310.689 550.512C307.926 549.245 305.672 547.698 303.927 545.868C302.255 544.039 301.418 541.682 301.418 538.798C301.418 537.18 301.818 535.562 302.618 533.944C303.491 532.255 304.654 530.989 306.108 530.145C308.29 528.808 310.689 527.788 313.307 527.084C315.924 526.381 318.36 526.029 320.614 526.029C322.432 526.029 324.468 526.205 326.722 526.557C329.049 526.908 330.721 527.401 331.739 528.034C333.629 529.019 335.011 530.039 335.884 531.094C336.756 532.15 337.192 533.486 337.192 535.104C337.192 535.878 337.011 536.652 336.647 537.426C336.283 538.13 335.847 538.622 335.338 538.904C334.175 539.326 333.157 539.537 332.284 539.537C331.63 539.537 331.085 539.431 330.648 539.22C330.212 538.939 329.812 538.657 329.449 538.376C329.158 538.094 328.976 537.919 328.903 537.848C327.958 536.863 326.904 536.089 325.74 535.527C324.577 534.964 322.868 534.682 320.614 534.682C319.16 534.682 317.742 534.893 316.361 535.316C315.052 535.667 314.034 536.125 313.307 536.687C312.725 537.11 312.325 537.496 312.107 537.848C311.889 538.13 311.78 538.517 311.78 539.009C311.78 540.979 313.816 542.421 317.888 543.336C322.032 544.25 324.213 544.743 324.432 544.813C324.868 544.954 326.068 545.306 328.031 545.868C330.067 546.431 331.521 546.959 332.393 547.451Z"/>
</mask>
<path d="M102.268 552.517C102.268 555.823 101.468 558.673 99.8687 561.065C98.3418 563.386 95.7969 565.532 92.2341 567.502C89.8348 568.909 87.0354 569.964 83.8361 570.668C80.6368 571.371 77.4012 571.723 74.1292 571.723C70.7845 571.723 66.6399 570.668 61.6956 568.557C58.1327 566.869 55.297 564.864 53.1884 562.542C51.1525 560.22 50.1345 557.688 50.1345 554.944C50.1345 553.044 50.5708 551.673 51.4433 550.828C52.3159 549.914 53.7337 549.456 55.6969 549.456C56.7149 549.456 57.7692 549.879 58.8599 550.723C59.9505 551.497 60.6049 552.271 60.8231 553.044C61.841 555.929 63.6224 558.145 66.1673 559.693C68.7122 561.17 71.8751 561.909 75.6561 561.909C80.0188 561.909 83.6543 561.135 86.5628 559.587C89.5439 558.04 91.0343 555.964 91.0343 553.361C91.0343 550.828 89.4349 548.577 86.2356 546.607C83.0363 544.637 79.7643 543.265 76.4196 542.492C71.6207 541.225 67.3671 539.713 63.6588 537.954C59.8051 536.125 56.933 533.873 55.0425 531.2C53.152 528.526 52.2068 525.712 52.2068 522.758C52.2068 520.014 53.1884 517.235 55.1516 514.421C57.1148 511.536 59.4415 509.461 62.1319 508.194C63.5861 507.491 66.0583 506.752 69.5484 505.978C73.1112 505.134 75.6925 504.712 77.2921 504.712C79.4007 504.712 81.7275 504.958 84.2724 505.451C86.8173 505.943 88.8895 506.647 90.4892 507.561C93.6883 509.32 96.0514 510.903 97.5783 512.31C99.1053 513.717 99.8687 515.476 99.8687 517.587C99.8687 518.853 99.3598 519.979 98.3418 520.964C97.3966 521.948 95.7242 522.441 93.3247 522.441C92.743 522.441 92.1614 522.195 91.5797 521.702C90.998 521.21 90.2711 520.471 89.3985 519.486C88.2351 518.009 87.1081 517.024 86.0175 516.531C84.9268 516.18 83.3271 515.793 81.2185 515.37C79.1826 514.948 77.3648 514.737 75.7652 514.737C74.0201 514.737 72.2023 515.089 70.3119 515.793C68.4214 516.496 66.8217 517.516 65.5129 518.853C64.2768 520.119 63.6588 521.597 63.6588 523.285C63.6588 524.692 64.3132 525.923 65.622 526.979C67.0035 527.964 68.6395 528.773 70.53 529.406C72.7113 530.25 75.0744 530.989 77.6193 531.622C80.964 532.607 83.6907 533.522 85.7993 534.366C87.9806 535.14 90.0893 536.125 92.125 537.321C95.6878 539.361 98.2691 541.471 99.8687 543.652C101.468 545.763 102.268 548.718 102.268 552.517ZM155.659 537.743C156.241 538.728 156.713 540.17 157.077 542.069C157.44 543.899 157.622 545.552 157.622 547.029C157.622 549.773 157.004 553.678 155.768 558.743C150.751 567.608 143.335 572.04 133.519 572.04C129.883 572.04 126.175 570.879 122.394 568.557C118.613 566.236 115.995 563.562 114.541 560.537C112.578 554.487 111.596 550.652 111.596 549.034C111.596 546.22 112.214 543.23 113.45 540.064C114.759 536.898 116.395 534.155 118.358 531.833C119.594 530.215 121.812 528.843 125.011 527.717C128.211 526.521 131.119 525.923 133.737 525.923C138.826 525.923 143.153 526.873 146.716 528.773C150.278 530.602 153.26 533.592 155.659 537.743ZM146.17 554.733C146.534 553.818 146.716 551.462 146.716 547.662C146.716 545.622 146.316 543.617 145.516 541.647C144.789 539.677 143.698 537.989 142.244 536.582C142.098 536.441 141.699 536.23 141.044 535.949C140.39 535.597 139.481 535.28 138.317 534.999C137.227 534.647 135.954 534.471 134.5 534.471C130.428 534.471 127.447 536.054 125.557 539.22C123.666 542.386 122.721 545.974 122.721 549.984C122.721 550.688 122.903 552.024 123.266 553.994C123.703 555.964 124.066 557.195 124.357 557.688C124.575 558.18 125.12 558.884 125.993 559.798C126.938 560.643 128.065 561.416 129.374 562.12C130.756 562.753 132.173 563.07 133.628 563.07C136.9 563.07 139.517 562.331 141.48 560.854C143.444 559.306 145.007 557.266 146.17 554.733ZM180.495 555.261C180.495 557.934 180.895 560.009 181.695 561.487C182.568 562.894 183.658 563.597 184.967 563.597C185.694 563.597 186.385 563.562 187.039 563.492C187.694 563.351 188.348 563.281 189.003 563.281C189.73 563.281 190.348 563.633 190.857 564.336C191.438 565.04 191.729 565.814 191.729 566.658C191.729 568.346 190.893 569.683 189.221 570.668C187.621 571.582 185.44 572.04 182.677 572.04C180.713 572.04 178.714 571.477 176.678 570.351C174.715 569.155 173.079 567.326 171.77 564.864C170.461 562.331 169.807 559.2 169.807 555.472C169.807 547.451 169.952 540.662 170.243 535.104C170.607 528.491 170.788 520.154 170.788 510.094C170.788 506.928 170.97 504.712 171.334 503.446C171.77 502.461 172.461 501.722 173.406 501.23C174.424 500.667 175.478 500.385 176.569 500.385C177.66 500.385 178.605 500.561 179.405 500.913C180.277 501.265 180.859 501.828 181.15 502.601C181.441 503.446 181.622 504.29 181.695 505.134C181.841 505.908 181.913 507.034 181.913 508.511C181.913 511.396 181.804 514.174 181.586 516.848C181.441 520.084 181.368 522.441 181.368 523.918C180.786 536.3 180.495 546.748 180.495 555.261ZM224.472 544.497C224.69 543.934 225.454 541.894 226.762 538.376C228.144 534.858 229.416 532.185 230.58 530.356C232.47 527.471 234.143 526.029 235.597 526.029C237.633 526.029 239.196 526.416 240.287 527.19C241.377 527.893 241.923 528.913 241.923 530.25C241.923 530.883 241.632 531.763 241.05 532.888C240.541 534.014 240.25 534.682 240.178 534.893C237.269 541.084 234.651 547.733 232.325 554.838L230.034 563.07C229.162 565.743 227.671 567.924 225.563 569.613C223.454 571.231 220.982 572.04 218.146 572.04C215.601 572.04 213.238 570.914 211.057 568.663C209.748 566.693 208.366 564.195 206.912 561.17C205.531 558.145 204.331 555.19 203.313 552.306L199.496 541.225C198.696 539.044 198.041 537.18 197.532 535.632C197.096 534.084 196.878 532.677 196.878 531.411C196.805 529.934 197.242 528.738 198.187 527.823C199.132 526.908 200.441 526.451 202.113 526.451C204.004 526.451 205.349 526.838 206.149 527.612C206.949 528.315 207.676 529.441 208.33 530.989C208.621 532.607 209.421 535.914 210.73 540.909L211.493 543.863C212.147 546.255 212.984 548.683 214.002 551.145C215.02 553.607 216.037 555.964 217.055 558.215C216.91 557.864 217.419 559.024 218.582 561.698C219.309 559.658 220.146 557.16 221.091 554.205L224.472 544.497ZM248.563 547.451C248.563 543.16 249.545 539.607 251.508 536.793C253.471 533.908 256.198 531.2 259.688 528.667C260.706 527.964 262.414 527.366 264.814 526.873C267.213 526.31 269.322 526.029 271.14 526.029C273.321 526.029 275.611 526.486 278.011 527.401C280.483 528.245 282.483 529.23 284.01 530.356C286.7 532.255 288.554 534.471 289.572 537.004C290.59 539.466 291.099 542.421 291.099 545.868C291.099 547.346 290.226 548.788 288.481 550.195C286.809 551.532 284.991 552.2 283.028 552.2L278.883 552.095C276.775 552.095 273.757 552.165 269.831 552.306L267.541 552.411C265.941 552.552 264.741 552.622 263.941 552.622C262.778 552.622 261.178 552.482 259.142 552.2C259.433 555.507 260.706 558.11 262.96 560.009C265.214 561.839 267.65 562.753 270.267 562.753C274.848 562.753 278.047 561.874 279.865 560.115C281.392 559.06 282.41 558.391 282.919 558.11C283.428 557.828 284.228 557.688 285.318 557.688C286.482 557.688 287.5 558.215 288.372 559.271C289.245 560.326 289.681 561.381 289.681 562.437C289.681 563.633 288.918 564.864 287.391 566.13C285.936 567.326 283.937 568.592 281.392 569.929C280.01 570.492 278.12 570.984 275.721 571.407C273.321 571.829 271.322 572.04 269.722 572.04C267.177 572.04 264.341 571.336 261.215 569.929C258.088 568.452 255.761 566.834 254.234 565.075C252.707 563.316 251.362 560.818 250.199 557.582C249.108 554.346 248.563 550.969 248.563 547.451ZM270.267 544.602C275.43 544.602 279.211 544.426 281.61 544.074C281.465 542.034 280.81 540.381 279.647 539.115C278.484 537.778 276.884 536.652 274.848 535.738C274.194 535.456 273.612 535.245 273.103 535.104C272.594 534.964 272.012 534.893 271.358 534.893C268.013 534.893 265.177 535.773 262.851 537.532C260.597 539.29 259.251 541.542 258.815 544.286C262.451 544.497 266.268 544.602 270.267 544.602ZM332.393 547.451C335.302 549.07 337.338 550.688 338.501 552.306C339.665 553.854 340.246 555.894 340.246 558.426C340.246 560.959 339.483 563.21 337.956 565.18C336.429 567.08 334.466 568.557 332.066 569.613C330.321 570.387 328.14 570.984 325.522 571.407C322.977 571.829 320.978 572.04 319.524 572.04C316.979 572.04 314.216 571.582 311.234 570.668C308.253 569.753 305.708 568.452 303.6 566.763C301.564 565.075 300.546 563.105 300.546 560.854C300.546 559.447 301.019 558.356 301.964 557.582C302.909 556.738 304.145 556.316 305.672 556.316C306.908 556.316 308.217 557.16 309.598 558.849C310.98 560.326 312.58 561.452 314.397 562.226C316.288 562.999 318.142 563.386 319.96 563.386C326.867 563.386 330.321 561.874 330.321 558.849C330.321 558.215 330.103 557.617 329.667 557.055C329.23 556.421 328.831 555.999 328.467 555.788C327.813 555.296 326.904 554.874 325.74 554.522C324.577 554.17 323.414 553.889 322.25 553.678C321.087 553.396 320.214 553.185 319.633 553.044C319.051 552.904 317.815 552.658 315.924 552.306C314.107 551.954 312.361 551.356 310.689 550.512C307.926 549.245 305.672 547.698 303.927 545.868C302.255 544.039 301.418 541.682 301.418 538.798C301.418 537.18 301.818 535.562 302.618 533.944C303.491 532.255 304.654 530.989 306.108 530.145C308.29 528.808 310.689 527.788 313.307 527.084C315.924 526.381 318.36 526.029 320.614 526.029C322.432 526.029 324.468 526.205 326.722 526.557C329.049 526.908 330.721 527.401 331.739 528.034C333.629 529.019 335.011 530.039 335.884 531.094C336.756 532.15 337.192 533.486 337.192 535.104C337.192 535.878 337.011 536.652 336.647 537.426C336.283 538.13 335.847 538.622 335.338 538.904C334.175 539.326 333.157 539.537 332.284 539.537C331.63 539.537 331.085 539.431 330.648 539.22C330.212 538.939 329.812 538.657 329.449 538.376C329.158 538.094 328.976 537.919 328.903 537.848C327.958 536.863 326.904 536.089 325.74 535.527C324.577 534.964 322.868 534.682 320.614 534.682C319.16 534.682 317.742 534.893 316.361 535.316C315.052 535.667 314.034 536.125 313.307 536.687C312.725 537.11 312.325 537.496 312.107 537.848C311.889 538.13 311.78 538.517 311.78 539.009C311.78 540.979 313.816 542.421 317.888 543.336C322.032 544.25 324.213 544.743 324.432 544.813C324.868 544.954 326.068 545.306 328.031 545.868C330.067 546.431 331.521 546.959 332.393 547.451Z" fill="#BEDECB"/>
<path d="M102.268 552.517C102.268 555.823 101.468 558.673 99.8687 561.065C98.3418 563.386 95.7969 565.532 92.2341 567.502C89.8348 568.909 87.0354 569.964 83.8361 570.668C80.6368 571.371 77.4012 571.723 74.1292 571.723C70.7845 571.723 66.6399 570.668 61.6956 568.557C58.1327 566.869 55.297 564.864 53.1884 562.542C51.1525 560.22 50.1345 557.688 50.1345 554.944C50.1345 553.044 50.5708 551.673 51.4433 550.828C52.3159 549.914 53.7337 549.456 55.6969 549.456C56.7149 549.456 57.7692 549.879 58.8599 550.723C59.9505 551.497 60.6049 552.271 60.8231 553.044C61.841 555.929 63.6224 558.145 66.1673 559.693C68.7122 561.17 71.8751 561.909 75.6561 561.909C80.0188 561.909 83.6543 561.135 86.5628 559.587C89.5439 558.04 91.0343 555.964 91.0343 553.361C91.0343 550.828 89.4349 548.577 86.2356 546.607C83.0363 544.637 79.7643 543.265 76.4196 542.492C71.6207 541.225 67.3671 539.713 63.6588 537.954C59.8051 536.125 56.933 533.873 55.0425 531.2C53.152 528.526 52.2068 525.712 52.2068 522.758C52.2068 520.014 53.1884 517.235 55.1516 514.421C57.1148 511.536 59.4415 509.461 62.1319 508.194C63.5861 507.491 66.0583 506.752 69.5484 505.978C73.1112 505.134 75.6925 504.712 77.2921 504.712C79.4007 504.712 81.7275 504.958 84.2724 505.451C86.8173 505.943 88.8895 506.647 90.4892 507.561C93.6883 509.32 96.0514 510.903 97.5783 512.31C99.1053 513.717 99.8687 515.476 99.8687 517.587C99.8687 518.853 99.3598 519.979 98.3418 520.964C97.3966 521.948 95.7242 522.441 93.3247 522.441C92.743 522.441 92.1614 522.195 91.5797 521.702C90.998 521.21 90.2711 520.471 89.3985 519.486C88.2351 518.009 87.1081 517.024 86.0175 516.531C84.9268 516.18 83.3271 515.793 81.2185 515.37C79.1826 514.948 77.3648 514.737 75.7652 514.737C74.0201 514.737 72.2023 515.089 70.3119 515.793C68.4214 516.496 66.8217 517.516 65.5129 518.853C64.2768 520.119 63.6588 521.597 63.6588 523.285C63.6588 524.692 64.3132 525.923 65.622 526.979C67.0035 527.964 68.6395 528.773 70.53 529.406C72.7113 530.25 75.0744 530.989 77.6193 531.622C80.964 532.607 83.6907 533.522 85.7993 534.366C87.9806 535.14 90.0893 536.125 92.125 537.321C95.6878 539.361 98.2691 541.471 99.8687 543.652C101.468 545.763 102.268 548.718 102.268 552.517ZM155.659 537.743C156.241 538.728 156.713 540.17 157.077 542.069C157.44 543.899 157.622 545.552 157.622 547.029C157.622 549.773 157.004 553.678 155.768 558.743C150.751 567.608 143.335 572.04 133.519 572.04C129.883 572.04 126.175 570.879 122.394 568.557C118.613 566.236 115.995 563.562 114.541 560.537C112.578 554.487 111.596 550.652 111.596 549.034C111.596 546.22 112.214 543.23 113.45 540.064C114.759 536.898 116.395 534.155 118.358 531.833C119.594 530.215 121.812 528.843 125.011 527.717C128.211 526.521 131.119 525.923 133.737 525.923C138.826 525.923 143.153 526.873 146.716 528.773C150.278 530.602 153.26 533.592 155.659 537.743ZM146.17 554.733C146.534 553.818 146.716 551.462 146.716 547.662C146.716 545.622 146.316 543.617 145.516 541.647C144.789 539.677 143.698 537.989 142.244 536.582C142.098 536.441 141.699 536.23 141.044 535.949C140.39 535.597 139.481 535.28 138.317 534.999C137.227 534.647 135.954 534.471 134.5 534.471C130.428 534.471 127.447 536.054 125.557 539.22C123.666 542.386 122.721 545.974 122.721 549.984C122.721 550.688 122.903 552.024 123.266 553.994C123.703 555.964 124.066 557.195 124.357 557.688C124.575 558.18 125.12 558.884 125.993 559.798C126.938 560.643 128.065 561.416 129.374 562.12C130.756 562.753 132.173 563.07 133.628 563.07C136.9 563.07 139.517 562.331 141.48 560.854C143.444 559.306 145.007 557.266 146.17 554.733ZM180.495 555.261C180.495 557.934 180.895 560.009 181.695 561.487C182.568 562.894 183.658 563.597 184.967 563.597C185.694 563.597 186.385 563.562 187.039 563.492C187.694 563.351 188.348 563.281 189.003 563.281C189.73 563.281 190.348 563.633 190.857 564.336C191.438 565.04 191.729 565.814 191.729 566.658C191.729 568.346 190.893 569.683 189.221 570.668C187.621 571.582 185.44 572.04 182.677 572.04C180.713 572.04 178.714 571.477 176.678 570.351C174.715 569.155 173.079 567.326 171.77 564.864C170.461 562.331 169.807 559.2 169.807 555.472C169.807 547.451 169.952 540.662 170.243 535.104C170.607 528.491 170.788 520.154 170.788 510.094C170.788 506.928 170.97 504.712 171.334 503.446C171.77 502.461 172.461 501.722 173.406 501.23C174.424 500.667 175.478 500.385 176.569 500.385C177.66 500.385 178.605 500.561 179.405 500.913C180.277 501.265 180.859 501.828 181.15 502.601C181.441 503.446 181.622 504.29 181.695 505.134C181.841 505.908 181.913 507.034 181.913 508.511C181.913 511.396 181.804 514.174 181.586 516.848C181.441 520.084 181.368 522.441 181.368 523.918C180.786 536.3 180.495 546.748 180.495 555.261ZM224.472 544.497C224.69 543.934 225.454 541.894 226.762 538.376C228.144 534.858 229.416 532.185 230.58 530.356C232.47 527.471 234.143 526.029 235.597 526.029C237.633 526.029 239.196 526.416 240.287 527.19C241.377 527.893 241.923 528.913 241.923 530.25C241.923 530.883 241.632 531.763 241.05 532.888C240.541 534.014 240.25 534.682 240.178 534.893C237.269 541.084 234.651 547.733 232.325 554.838L230.034 563.07C229.162 565.743 227.671 567.924 225.563 569.613C223.454 571.231 220.982 572.04 218.146 572.04C215.601 572.04 213.238 570.914 211.057 568.663C209.748 566.693 208.366 564.195 206.912 561.17C205.531 558.145 204.331 555.19 203.313 552.306L199.496 541.225C198.696 539.044 198.041 537.18 197.532 535.632C197.096 534.084 196.878 532.677 196.878 531.411C196.805 529.934 197.242 528.738 198.187 527.823C199.132 526.908 200.441 526.451 202.113 526.451C204.004 526.451 205.349 526.838 206.149 527.612C206.949 528.315 207.676 529.441 208.33 530.989C208.621 532.607 209.421 535.914 210.73 540.909L211.493 543.863C212.147 546.255 212.984 548.683 214.002 551.145C215.02 553.607 216.037 555.964 217.055 558.215C216.91 557.864 217.419 559.024 218.582 561.698C219.309 559.658 220.146 557.16 221.091 554.205L224.472 544.497ZM248.563 547.451C248.563 543.16 249.545 539.607 251.508 536.793C253.471 533.908 256.198 531.2 259.688 528.667C260.706 527.964 262.414 527.366 264.814 526.873C267.213 526.31 269.322 526.029 271.14 526.029C273.321 526.029 275.611 526.486 278.011 527.401C280.483 528.245 282.483 529.23 284.01 530.356C286.7 532.255 288.554 534.471 289.572 537.004C290.59 539.466 291.099 542.421 291.099 545.868C291.099 547.346 290.226 548.788 288.481 550.195C286.809 551.532 284.991 552.2 283.028 552.2L278.883 552.095C276.775 552.095 273.757 552.165 269.831 552.306L267.541 552.411C265.941 552.552 264.741 552.622 263.941 552.622C262.778 552.622 261.178 552.482 259.142 552.2C259.433 555.507 260.706 558.11 262.96 560.009C265.214 561.839 267.65 562.753 270.267 562.753C274.848 562.753 278.047 561.874 279.865 560.115C281.392 559.06 282.41 558.391 282.919 558.11C283.428 557.828 284.228 557.688 285.318 557.688C286.482 557.688 287.5 558.215 288.372 559.271C289.245 560.326 289.681 561.381 289.681 562.437C289.681 563.633 288.918 564.864 287.391 566.13C285.936 567.326 283.937 568.592 281.392 569.929C280.01 570.492 278.12 570.984 275.721 571.407C273.321 571.829 271.322 572.04 269.722 572.04C267.177 572.04 264.341 571.336 261.215 569.929C258.088 568.452 255.761 566.834 254.234 565.075C252.707 563.316 251.362 560.818 250.199 557.582C249.108 554.346 248.563 550.969 248.563 547.451ZM270.267 544.602C275.43 544.602 279.211 544.426 281.61 544.074C281.465 542.034 280.81 540.381 279.647 539.115C278.484 537.778 276.884 536.652 274.848 535.738C274.194 535.456 273.612 535.245 273.103 535.104C272.594 534.964 272.012 534.893 271.358 534.893C268.013 534.893 265.177 535.773 262.851 537.532C260.597 539.29 259.251 541.542 258.815 544.286C262.451 544.497 266.268 544.602 270.267 544.602ZM332.393 547.451C335.302 549.07 337.338 550.688 338.501 552.306C339.665 553.854 340.246 555.894 340.246 558.426C340.246 560.959 339.483 563.21 337.956 565.18C336.429 567.08 334.466 568.557 332.066 569.613C330.321 570.387 328.14 570.984 325.522 571.407C322.977 571.829 320.978 572.04 319.524 572.04C316.979 572.04 314.216 571.582 311.234 570.668C308.253 569.753 305.708 568.452 303.6 566.763C301.564 565.075 300.546 563.105 300.546 560.854C300.546 559.447 301.019 558.356 301.964 557.582C302.909 556.738 304.145 556.316 305.672 556.316C306.908 556.316 308.217 557.16 309.598 558.849C310.98 560.326 312.58 561.452 314.397 562.226C316.288 562.999 318.142 563.386 319.96 563.386C326.867 563.386 330.321 561.874 330.321 558.849C330.321 558.215 330.103 557.617 329.667 557.055C329.23 556.421 328.831 555.999 328.467 555.788C327.813 555.296 326.904 554.874 325.74 554.522C324.577 554.17 323.414 553.889 322.25 553.678C321.087 553.396 320.214 553.185 319.633 553.044C319.051 552.904 317.815 552.658 315.924 552.306C314.107 551.954 312.361 551.356 310.689 550.512C307.926 549.245 305.672 547.698 303.927 545.868C302.255 544.039 301.418 541.682 301.418 538.798C301.418 537.18 301.818 535.562 302.618 533.944C303.491 532.255 304.654 530.989 306.108 530.145C308.29 528.808 310.689 527.788 313.307 527.084C315.924 526.381 318.36 526.029 320.614 526.029C322.432 526.029 324.468 526.205 326.722 526.557C329.049 526.908 330.721 527.401 331.739 528.034C333.629 529.019 335.011 530.039 335.884 531.094C336.756 532.15 337.192 533.486 337.192 535.104C337.192 535.878 337.011 536.652 336.647 537.426C336.283 538.13 335.847 538.622 335.338 538.904C334.175 539.326 333.157 539.537 332.284 539.537C331.63 539.537 331.085 539.431 330.648 539.22C330.212 538.939 329.812 538.657 329.449 538.376C329.158 538.094 328.976 537.919 328.903 537.848C327.958 536.863 326.904 536.089 325.74 535.527C324.577 534.964 322.868 534.682 320.614 534.682C319.16 534.682 317.742 534.893 316.361 535.316C315.052 535.667 314.034 536.125 313.307 536.687C312.725 537.11 312.325 537.496 312.107 537.848C311.889 538.13 311.78 538.517 311.78 539.009C311.78 540.979 313.816 542.421 317.888 543.336C322.032 544.25 324.213 544.743 324.432 544.813C324.868 544.954 326.068 545.306 328.031 545.868C330.067 546.431 331.521 546.959 332.393 547.451Z" stroke="black" stroke-width="2" mask="url(#path-12-inside-1_4_2)"/>
</g>
<defs>
<filter id="filter0_d_4_2" x="46.1345" y="500.385" width="298.112" height="79.6544" filterUnits="userSpaceOnUse" color-interpolation-filters="sRGB">
<feFlood flood-opacity="0" result="BackgroundImageFix"/>
<feColorMatrix in="SourceAlpha" type="matrix" values="0 0 0 0 0 0 0 0 0 0 0 0 0 0 0 0 0 0 127 0" result="hardAlpha"/>
<feOffset dy="4"/>
<feGaussianBlur stdDeviation="2"/>
<feComposite in2="hardAlpha" operator="out"/>
<feColorMatrix type="matrix" values="0 0 0 0 0 0 0 0 0 0 0 0 0 0 0 0 0 0 0.25 0"/>
<feBlend mode="normal" in2="BackgroundImageFix" result="effect1_dropShadow_4_2"/>
<feBlend mode="normal" in="SourceGraphic" in2="effect1_dropShadow_4_2" result="shape"/>
</filter>
</defs>
</svg>
